<?xml version="1.0" encoding="UTF-8" standalone="no"?>
<!-- Created with Inkscape (http://www.inkscape.org/) -->

<svg
   xmlns:dc="http://purl.org/dc/elements/1.1/"
   xmlns:cc="http://creativecommons.org/ns#"
   xmlns:rdf="http://www.w3.org/1999/02/22-rdf-syntax-ns#"
   xmlns:svg="http://www.w3.org/2000/svg"
   xmlns="http://www.w3.org/2000/svg"
   xmlns:sodipodi="http://sodipodi.sourceforge.net/DTD/sodipodi-0.dtd"
   xmlns:inkscape="http://www.inkscape.org/namespaces/inkscape"
   id="svg8"
   height="48"
   viewBox="0 0 12.7 12.7"
   width="48"
   version="1.1"
   sodipodi:docname="btn_add.svg"
   inkscape:version="0.92.2 (5c3e80d, 2017-08-06)">
  <metadata
     id="metadata8">
    <rdf:RDF>
      <cc:Work
         rdf:about="">
        <dc:format>image/svg+xml</dc:format>
        <dc:type
           rdf:resource="http://purl.org/dc/dcmitype/StillImage" />
        <dc:title></dc:title>
      </cc:Work>
    </rdf:RDF>
  </metadata>
  <defs
     id="defs6" />
  <sodipodi:namedview
     pagecolor="#ffffff"
     bordercolor="#666666"
     borderopacity="1"
     objecttolerance="10"
     gridtolerance="10"
     guidetolerance="10"
     inkscape:pageopacity="0"
     inkscape:pageshadow="2"
     inkscape:window-width="872"
     inkscape:window-height="480"
     id="namedview4"
     showgrid="false"
     inkscape:zoom="4.916666667"
     inkscape:cx="24"
     inkscape:cy="24"
     inkscape:window-x="0"
     inkscape:window-y="0"
     inkscape:window-maximized="0"
     inkscape:current-layer="svg8" />
  <path
     id="path828"
     d="m24 3.9961c-11.048 0-20.004 8.9559-20.004 20.004 0.0001 11.048 8.956 20.004 20.004 20.004s20.004-8.956 20.004-20.004-8.956-20.004-20.004-20.004zm0 1.8633c10.019 0 18.141 8.1216 18.141 18.141s-8.122 18.141-18.141 18.141-18.141-8.122-18.141-18.141c0.0004-10.019 8.122-18.141 18.141-18.141zm-2 8.1406v8h-8v4h8v8h4v-8h8v-4h-8v-8h-4z"
     fill-rule="evenodd"
     transform="scale(.26458)"
     fill="#333"
     style="fill:#ffffff" />
</svg>
