<?xml version="1.0" encoding="UTF-8" standalone="no"?>
<!-- Created with Inkscape (http://www.inkscape.org/) -->

<svg
   xmlns:dc="http://purl.org/dc/elements/1.1/"
   xmlns:cc="http://creativecommons.org/ns#"
   xmlns:rdf="http://www.w3.org/1999/02/22-rdf-syntax-ns#"
   xmlns:svg="http://www.w3.org/2000/svg"
   xmlns="http://www.w3.org/2000/svg"
   xmlns:sodipodi="http://sodipodi.sourceforge.net/DTD/sodipodi-0.dtd"
   xmlns:inkscape="http://www.inkscape.org/namespaces/inkscape"
   id="svg8"
   height="48"
   viewBox="0 0 12.7 12.7"
   width="48"
   version="1.1"
   sodipodi:docname="btn_cirle_back.svg"
   inkscape:version="0.92.2 (5c3e80d, 2017-08-06)">
  <defs
     id="defs8" />
  <sodipodi:namedview
     pagecolor="#ffffff"
     bordercolor="#666666"
     borderopacity="1"
     objecttolerance="10"
     gridtolerance="10"
     guidetolerance="10"
     inkscape:pageopacity="0"
     inkscape:pageshadow="2"
     inkscape:window-width="1920"
     inkscape:window-height="1017"
     id="namedview6"
     showgrid="false"
     inkscape:zoom="4.916666667"
     inkscape:cx="-31.01694915"
     inkscape:cy="24"
     inkscape:window-x="-8"
     inkscape:window-y="-8"
     inkscape:window-maximized="1"
     inkscape:current-layer="svg8" />
  <title
     id="title4753">UIO-icon</title>
  <metadata
     id="metadata5">
    <rdf:RDF>
      <cc:Work
         rdf:about="">
        <dc:format>image/svg+xml</dc:format>
        <dc:type
           rdf:resource="http://purl.org/dc/dcmitype/StillImage" />
        <dc:title>UIO-icon</dc:title>
        <dc:creator>
          <cc:Agent>
            <dc:title>Joaquín Urbano</dc:title>
          </cc:Agent>
        </dc:creator>
        <dc:rights>
          <cc:Agent>
            <dc:title>GPL</dc:title>
          </cc:Agent>
        </dc:rights>
      </cc:Work>
    </rdf:RDF>
  </metadata>
  <path
     id="path825"
     d="M 6.3504,11.643 A 5.2927,5.2927 0 0 0 11.643,6.3504 5.2927,5.2927 0 0 0 6.3504,1.0573 5.2927,5.2927 0 0 0 1.0573,6.3504 5.2927,5.2927 0 0 0 6.3504,11.643 Z m 0,-0.49299 a 4.7997,4.7997 0 0 1 -4.8001,-4.7997 4.7997,4.7997 0 0 1 4.8001,-4.8 4.7997,4.7997 0 0 1 4.7997,4.8 4.7997,4.7997 0 0 1 -4.7997,4.7997 z M 5.73287,8.49601 6.11164,7.95394 4.29834,6.67084 h 5.3196 V 6.00886 h -5.3109 l 1.7835,-1.2623 -0.3788,-0.5415 -2.3786,1.6831 H 3.3305561 c -0.16774,0.095778 -0.23733,0.30718 -0.24765,0.45375 0.020902,0.20611 0.096307,0.33416 0.2413,0.44899 z"
     style="fill:#ffffff;fill-rule:evenodd;stroke-width:0.2645800114"
     inkscape:connector-curvature="0" />
</svg>
