<?xml version="1.0" encoding="UTF-8" standalone="no"?>
<!-- Created with Inkscape (http://www.inkscape.org/) -->

<svg
   xmlns:dc="http://purl.org/dc/elements/1.1/"
   xmlns:cc="http://creativecommons.org/ns#"
   xmlns:rdf="http://www.w3.org/1999/02/22-rdf-syntax-ns#"
   xmlns:svg="http://www.w3.org/2000/svg"
   xmlns="http://www.w3.org/2000/svg"
   xmlns:sodipodi="http://sodipodi.sourceforge.net/DTD/sodipodi-0.dtd"
   xmlns:inkscape="http://www.inkscape.org/namespaces/inkscape"
   id="svg8"
   height="24"
   viewBox="0 0 6.35 6.35"
   width="24"
   version="1.1"
   sodipodi:docname="er.svg"
   inkscape:version="0.92.2 (5c3e80d, 2017-08-06)">
  <defs
     id="defs8" />
  <sodipodi:namedview
     pagecolor="#ffffff"
     bordercolor="#666666"
     borderopacity="1"
     objecttolerance="10"
     gridtolerance="10"
     guidetolerance="10"
     inkscape:pageopacity="0"
     inkscape:pageshadow="2"
     inkscape:window-width="1920"
     inkscape:window-height="1017"
     id="namedview6"
     showgrid="false"
     inkscape:zoom="4.916666667"
     inkscape:cx="-31.01694915"
     inkscape:cy="24"
     inkscape:window-x="-8"
     inkscape:window-y="-8"
     inkscape:window-maximized="1"
     inkscape:current-layer="svg8" />
  <title
     id="title4753">UIO-icon</title>
  <metadata
     id="metadata5">
    <rdf:RDF>
      <cc:Work
         rdf:about="">
        <dc:format>image/svg+xml</dc:format>
        <dc:type
           rdf:resource="http://purl.org/dc/dcmitype/StillImage" />
        <dc:title>UIO-icon</dc:title>
        <dc:creator>
          <cc:Agent>
            <dc:title>Joaquín Urbano</dc:title>
          </cc:Agent>
        </dc:creator>
        <dc:rights>
          <cc:Agent>
            <dc:title>GPL</dc:title>
          </cc:Agent>
        </dc:rights>
      </cc:Work>
    </rdf:RDF>
  </metadata>
  <path
     id="path825"
     d="M 3.175112427,5.556250041 A 2.381182509,2.381182508 0 0 0 5.556249946,3.175112522 2.381182509,2.381182508 0 0 0 3.175112427,0.7937500546 2.381182509,2.381182508 0 0 0 0.7937499587,3.175112522 2.381182509,2.381182508 0 0 0 3.175112427,5.556250041 Z m 0,-0.221795901 A 2.159382108,2.159382108 0 0 1 1.015550359,3.175072031 2.159382108,2.159382108 0 0 1 3.175112427,1.015554954 2.159382108,2.159382108 0 0 1 5.334494536,3.175072031 2.159382108,2.159382108 0 0 1 3.175112427,5.33445414 Z M 2.897286056,4.140421155 3.067694448,3.896544192 2.251891882,3.319278284 h 2.393284803 v -0.2978244 H 2.255806007 L 3.058201571,2.453545883 2.887779682,2.209925362 1.81764899,2.967151028 h -0.0011625 c -0.07546614,0.04309046 -0.106774639,0.138200095 -0.111417601,0.204141849 0.0094038,0.09272876 0.04332846,0.15033838 0.108560723,0.202000327 z"
     style="fill:#ffffff;fill-rule:evenodd;stroke-width:0.2645800114"
     inkscape:connector-curvature="0" />
</svg>
