<?xml version="1.0" encoding="UTF-8" standalone="no"?>
<svg
   xmlns:dc="http://purl.org/dc/elements/1.1/"
   xmlns:cc="http://creativecommons.org/ns#"
   xmlns:rdf="http://www.w3.org/1999/02/22-rdf-syntax-ns#"
   xmlns:svg="http://www.w3.org/2000/svg"
   xmlns="http://www.w3.org/2000/svg"
   xmlns:sodipodi="http://sodipodi.sourceforge.net/DTD/sodipodi-0.dtd"
   xmlns:inkscape="http://www.inkscape.org/namespaces/inkscape"
   id="svg6"
   height="100"
   viewBox="0 0 50 50"
   width="100"
   version="1.1"
   sodipodi:docname="invitation.svg"
   inkscape:version="0.92.2 (5c3e80d, 2017-08-06)"
   style="fill:#000000">
  <defs
     id="defs7" />
  <sodipodi:namedview
     pagecolor="#ffffff"
     bordercolor="#666666"
     borderopacity="1"
     objecttolerance="10"
     gridtolerance="10"
     guidetolerance="10"
     inkscape:pageopacity="0"
     inkscape:pageshadow="2"
     inkscape:window-width="1920"
     inkscape:window-height="1017"
     id="namedview5"
     showgrid="false"
     inkscape:zoom="0.7866666665"
     inkscape:cx="-535.8799148"
     inkscape:cy="-38.92971885"
     inkscape:window-x="-8"
     inkscape:window-y="-8"
     inkscape:window-maximized="1"
     inkscape:current-layer="svg6" />
  <metadata
     id="metadata12">
    <rdf:RDF>
      <cc:Work
         rdf:about="">
        <dc:format>image/svg+xml</dc:format>
        <dc:type
           rdf:resource="http://purl.org/dc/dcmitype/StillImage" />
        <dc:title></dc:title>
      </cc:Work>
    </rdf:RDF>
  </metadata>
  <path
     d="M 25.00000001,-9.766e-4 C 11.19283334,-9.766e-4 0,11.1916901 0,24.9990234 6.427406841e-5,32.0983085 2.959863147,38.5063517 7.712239585,43.0572916 H 0 v 6.9417318 h 50.00000001 v -6.9417318 h -7.71223958 c 4.75244483,-4.550939 7.71223958,-10.9589908 7.71223958,-18.0582682 0,-13.8075 -11.19333334,-25 -25,-25 z m 0,2.3284505 c 12.52166666,0 22.67154948,10.150375 22.67154948,22.671875 0,7.3700523 -3.51702211,13.9171602 -8.96354167,18.0579427 H 11.29231771 C 5.845757573,38.9165091 2.32845052,32.3694012 2.32845052,24.9993489 2.328783855,12.4781823 12.47883334,2.3274739 25.00000001,2.3274739 Z m 0.16829426,3.725586 c -0.015,0 -0.0283203,0.012185 -0.0283203,0.027018 0,0.014833 0.005052,0.027018 0.0117187,0.027018 0.006667,0 0.0199479,-0.012185 0.0299479,-0.027018 0.008333,-0.014833 0.00332,-0.027018 -0.0133463,-0.027018 z m 0.13834637,0 c -0.0216667,0.00283 -0.0499219,0.046089 -0.0865886,0.1282552 -0.0316667,0.070333 -0.17184898,0.4662239 -0.31184895,0.8795573 -0.20333334,0.6001666 -0.31648439,0.8832421 -0.56315105,1.4065755 -0.51166667,1.0801666 -0.64679685,1.6134166 -0.55013022,2.15625 0.0433334,0.2451666 0.0782682,0.336789 0.14160157,0.3629557 0.0316667,0.013167 0.0883333,0.021396 0.125,0.018229 0.065,-0.00533 0.0736328,-0.029362 0.18196615,-0.4501953 0.10166666,-0.3925 0.245,-1.060112 0.29166666,-1.3564453 0.008333,-0.0565 0.0247526,-0.098742 0.0380859,-0.094076 0.0233333,0.00917 0.51998698,0.5654063 0.81998698,0.9205729 0.10333334,0.121 0.1966276,0.2241667 0.20996094,0.2291667 0.0133333,0.00517 0.0719141,-0.03393 0.12858073,-0.086263 0.0583333,-0.0525 0.1431901,-0.1138854 0.18652343,-0.1367188 0.19833334,-0.1025 0.22498699,-0.2207864 0.15332032,-0.6894531 -0.0466667,-0.3021667 -0.0932161,-0.4423099 -0.29654948,-0.8759765 -0.16833334,-0.362 -0.26157552,-0.6443907 -0.32324219,-0.983724 -0.0533333,-0.2915 -0.0950521,-0.7781875 -0.0950521,-1.0963542 0,-0.2291666 -0.0151302,-0.3370234 -0.0501301,-0.3323561 z m 0.1533203,0.1936849 c -0.055,0.088167 -0.003411,0.7508125 0.0865886,1.1119791 0.05,0.1953334 0.0534635,0.1310521 0.008464,-0.1341146 -0.0216667,-0.1328333 -0.0466406,-0.4154375 -0.0566406,-0.6276041 -0.008333,-0.2231667 -0.0250781,-0.3707604 -0.038412,-0.3502604 z m -3.26985677,1.1002604 c -0.006667,0 -0.0183203,0.012185 -0.0283203,0.027018 -0.008333,0.014833 -0.003607,0.027018 0.0113932,0.027018 0.0166667,0 0.0286458,-0.012185 0.0286458,-0.027018 0,-0.014833 -0.005052,-0.027018 -0.0117187,-0.027018 z m 0.48828125,0.033854 c -0.0383333,-0.00233 -1.4323e-4,0.015737 0.14485677,0.080404 0.11166666,0.049833 0.25690105,0.1283203 0.32356771,0.1741536 0.18666667,0.128 0.4481901,0.4210469 0.68652344,0.7688802 0.11833333,0.173 0.23003906,0.3154141 0.2483724,0.3160808 0.045,0.00183 0.15329426,-0.1725443 0.29329426,-0.4703776 0.125,-0.2671667 0.18484375,-0.446198 0.0898438,-0.2695313 -0.14833333,0.2753333 -0.35333333,0.6064453 -0.375,0.6064453 -0.0116667,0 -0.0598177,-0.078805 -0.10481771,-0.1748047 C 23.8800261,8.1857762 23.76826829,8.0265887 23.59993495,7.857422 23.35660162,7.6145887 23.01986984,7.4303309 22.74153652,7.3889976 c -0.0283334,-0.00433 -0.0498177,-0.0073 -0.0631511,-0.00814 z m -0.27018228,0.035482 c -0.0216667,-0.0015 -0.0397266,-8.803e-4 -0.0530599,0.00195 -0.0183333,0.00367 -0.0301563,0.011128 -0.0351563,0.022461 -0.008333,0.021 0.0684635,0.1313672 0.1751302,0.2555339 0.56666666,0.6551667 0.93490885,1.4047969 0.98990885,2.0084635 0.0183334,0.1988334 -0.0416797,0.6520131 -0.0966797,0.7425131 -0.0383333,0.060167 -0.0582813,0.023359 -0.23828125,-0.4316407 -0.0916667,-0.2298333 -0.21510416,-0.5045182 -0.2734375,-0.6103515 -0.115,-0.2073334 -0.3598828,-0.4947917 -0.42154946,-0.4947917 -0.0466667,0 -0.0466927,-0.0016 0.014974,0.1848958 0.0666667,0.1973334 0.11675781,0.5041797 0.0934245,0.5758464 -0.0133333,0.043333 -0.0217057,0.047078 -0.0400391,0.017578 -0.0183333,-0.028333 -0.0234375,-0.024096 -0.0234375,0.017904 -0.001667,0.030333 -0.0149088,0.069104 -0.0315755,0.085937 -0.0416667,0.0425 -0.006862,0.1193671 0.0498047,0.1097005 0.04,-0.00667 0.0501432,0.01899 0.0634766,0.1601562 0.0133333,0.1316667 0.0382031,0.2022344 0.11653645,0.3235677 0.16,0.2483334 0.38352865,0.7208959 0.45019531,0.9557292 0.0433333,0.15 0.0832943,0.2300833 0.1266276,0.2604167 0.0333333,0.024167 0.13648439,0.1015494 0.22981772,0.1715495 0.0916667,0.070167 0.17677083,0.1275963 0.19010417,0.1279296 0.055,0.00133 -0.00155,-0.4462812 -0.0882162,-0.6966145 -0.0483333,-0.1388334 -0.0784375,-0.2617709 -0.0651042,-0.2734375 0.0116667,-0.011667 0.0468229,-0.026068 0.0768229,-0.031901 0.0333333,-0.00667 0.0515495,-0.028984 0.0465495,-0.063151 -0.0683333,-0.6565 0.0116667,-1.223875 0.25,-1.7760417 l 0.0914713,-0.2138672 -0.18164062,-0.2845052 c -0.41833335,-0.6583333 -0.71333336,-0.9395364 -1.125,-1.0748698 -0.13000003,-0.042667 -0.22833335,-0.066463 -0.29166657,-0.070963 z m 7.06184895,0.1520182 c -0.0116667,0.00333 -0.0282292,0.021315 -0.0598958,0.056315 -0.035,0.041667 -0.0651042,0.094831 -0.0651042,0.1181641 0,0.023333 -0.0351172,0.1165234 -0.0784505,0.2073568 -0.045,0.090833 -0.0964974,0.2080755 -0.11816406,0.2607422 -0.0366667,0.091833 -0.0467578,0.097562 -0.26009115,0.1432291 -0.425,0.0915 -0.94664062,0.4195339 -1.26497395,0.7972006 -0.14666667,0.1724999 -0.10848959,0.1575989 0.13151041,-0.052734 0.38,-0.3318334 0.74498697,-0.5520339 1.11165365,-0.6722005 0.255,-0.083167 0.31854165,-0.057177 0.0885417,0.035156 -0.48666668,0.1946667 -1.18177087,0.6700912 -1.56510417,1.0725912 -0.27666668,0.2895 -0.65657553,0.8484765 -0.86490886,1.2718098 l -0.0732422,0.148112 0.0898438,0.2382813 c 0.105,0.2858333 0.2668099,0.6024349 0.31347657,0.6207682 0.02,0.00717 0.10315103,-0.036346 0.18815103,-0.09668 0.15333334,-0.1101667 0.31832032,-0.1647682 0.36165365,-0.1207682 0.0316667,0.031 -0.0101042,0.2157578 -0.10677083,0.4684245 -0.0416667,0.1111666 -0.083099,0.2473932 -0.0930989,0.3030599 -0.0266667,0.1435 0.0149348,0.1311172 0.22493488,-0.067383 0.0966667,-0.092833 0.21664064,-0.1991693 0.26497397,-0.2360027 0.08,-0.061 0.0915495,-0.089268 0.12988282,-0.3082682 0.20666665,-1.1981667 0.7366927,-2.2778568 1.5266927,-3.1031901 0.30333333,-0.3181667 0.30832031,-0.365039 0.0283203,-0.3108724 l -0.11165365,0.022136 0.014974,-0.083984 c 0.0133333,-0.071667 0.0934505,-0.2927761 0.20345052,-0.5579427 0.0166667,-0.038667 0.0200911,-0.093253 0.0100912,-0.1214193 -0.01,-0.023667 -0.015026,-0.035234 -0.0266929,-0.0319016 z m -2.79003907,0.6858724 c -0.0133333,0.00833 -0.0384245,0.091818 -0.0934245,0.2923177 -0.0366666,0.1335 -0.0749609,0.2670495 -0.0849609,0.2965495 -0.01,0.029667 0.0134245,0.0053 0.0517578,-0.054036 0.0883333,-0.1356667 0.15652344,-0.362698 0.14485677,-0.4778646 -0.005,-0.039833 -0.009896,-0.061966 -0.0182292,-0.0569666 z m -3.62337238,0.4404297 c -0.006667,0 0.0233594,0.093516 0.0683594,0.2076823 0.0966667,0.2498333 0.20829427,0.7303255 0.20996094,0.8961589 0,0.1551666 -0.028138,0.1233958 -0.13313802,-0.1484375 -0.145,-0.3805 -0.3968099,-0.7290495 -0.60514323,-0.8382162 -0.06,-0.031667 -0.0399479,0.00207 0.0950521,0.1569011 0.095,0.1088333 0.21811198,0.2721145 0.27311198,0.3632812 0.10166667,0.1671667 0.34342449,0.6674453 0.34342449,0.710612 0,0.012833 0.0117318,0.054448 0.0250651,0.092448 0.015,0.038167 0.0416016,0.06901 0.0582682,0.06901 0.0516667,0 0.0133593,-0.5684453 -0.0566406,-0.835612 C 23.2832943,9.1643227 23.08830735,8.6946612 23.05664064,8.6946615 Z m 3.66015623,0.010091 c -0.0133333,-0.00367 -0.0652734,0.074336 -0.11360676,0.1735026 -0.0483333,0.099167 -0.15494792,0.2566093 -0.23828125,0.3496093 -0.14166667,0.1583334 -0.14976562,0.175698 -0.13476562,0.2695313 0.0316667,0.1761667 0.0432422,0.1946614 0.11490885,0.1946614 0.0683333,0 0.068138,0.00343 0.0498047,0.1279297 -0.0566667,0.384 -0.0647656,0.4941459 -0.0514323,0.6536459 0.008333,0.096333 0.0200651,0.1915963 0.0250651,0.211263 0.0216667,0.065167 0.0782943,0.015818 0.16829427,-0.1451823 0.05,-0.087167 0.14997396,-0.2314635 0.2233073,-0.3209635 0.17833333,-0.2175 0.20141926,-0.309612 0.16308593,-0.648112 -0.035,-0.3055 -0.16471355,-0.8553854 -0.20638022,-0.8658854 z m -4.39355468,0.00228 c -0.005,-0.00183 -0.008138,0.013833 -0.008138,0.041667 0,0.037 0.005013,0.052029 0.0133463,0.033529 0.006667,-0.0185 0.006667,-0.048883 0,-0.067383 -0.001667,-0.00467 -0.003542,-0.00715 -0.005208,-0.00781 z m -2.90332032,0.095703 c -0.0266666,-1.666e-4 -0.0481771,0.017396 -0.0481771,0.039063 0,0.032 0.24817709,0.4642735 0.42317707,0.7386068 0.03,0.048333 0.0482812,0.05606 0.0716146,0.032227 0.0233333,-0.023833 0.010026,-0.068562 -0.0566406,-0.1848959 -0.0483333,-0.084333 -0.14484375,-0.2593307 -0.21484375,-0.3889973 -0.085,-0.157 -0.14513019,-0.235836 -0.17513022,-0.2360036 z m 2.92350262,0.038086 c -0.006667,0.00733 -0.005078,0.03218 0.003255,0.055013 0.0233333,0.060833 0.0417318,0.05082 0.0250651,-0.013346 -0.008333,-0.030333 -0.019987,-0.049 -0.0283201,-0.041667 z M 17.20996094,8.973634 c -0.035,0.006 -0.0516536,0.042484 -0.0283203,0.083984 0.0133333,0.0245 0.1199479,0.1586692 0.23828123,0.2985026 0.11666668,0.1396666 0.22845053,0.2542239 0.2451172,0.2545573 0.0666667,10e-4 0.0615755,-0.052656 -0.0100912,-0.139323 -0.0416667,-0.049 -0.0916146,-0.1195755 -0.11328125,-0.1565755 -0.0583333,-0.103 -0.24496093,-0.3177708 -0.29329426,-0.3359375 -0.0133333,-0.00567 -0.0267448,-0.00721 -0.0384114,-0.00521 z m 3.98177083,0.1526693 0.2233073,0.077799 c 0.12166667,0.042833 0.28653645,0.1094453 0.36653645,0.148112 0.15,0.0735 0.45170573,0.2913073 0.54003907,0.389974 0.055,0.062 0.11174478,0.079255 0.0800781,0.024089 -0.17499998,-0.301 -0.65018228,-0.5801823 -1.06184895,-0.624349 z m -0.5283203,0.00651 c -0.0166667,-5e-4 -0.0349609,0.011474 -0.0432943,0.035807 -0.005,0.014 0.14813803,0.3016562 0.34147135,0.6393229 0.45333335,0.7961667 0.60016928,1.1328125 0.71516928,1.6536458 0.0266667,0.1128334 0.0650521,0.2120755 0.0950521,0.2399089 0.0716667,0.064167 0.069987,0.025854 -0.0133463,-0.2578125 -0.035,-0.1248334 -0.0616407,-0.2310026 -0.0566406,-0.2360026 0.0166667,-0.016667 0.17324218,0.385901 0.23990885,0.6152343 0.0366667,0.1253334 0.0866536,0.3307058 0.11165365,0.4567058 0.04,0.2035 0.0582422,0.2420755 0.15657552,0.3440755 0.0616667,0.063167 0.12497396,0.1104687 0.13997396,0.1054687 0.06,-0.02 0.0466015,-0.5769427 -0.0250651,-0.9954427 -0.0383333,-0.2206666 -0.0633464,-0.4127656 -0.055013,-0.4264323 0.0316667,-0.05 0.26026042,-0.023177 0.47526042,0.05599 0.205,0.074333 0.31998698,0.099185 0.31998698,0.068685 0,-0.027333 -0.25526042,-0.6050495 -0.35026042,-0.7965495 -0.445,-0.8835 -1.1214974,-1.4070781 -1.8264974,-1.4134114 -0.17,-0.0015 -0.19498698,-0.00777 -0.19498698,-0.051107 0,-0.0245 -0.014948,-0.037586 -0.029948,-0.0380859 z m 3.92480468,0.2854818 c -0.0333333,0.00367 -0.0400391,0.057117 -0.0400391,0.1617838 -0.001667,0.1718333 -0.0915234,0.5907474 -0.2281901,1.0452474 -0.065,0.2196667 -0.1134375,0.4084375 -0.10677084,0.4192708 0.006667,0.011 0.11173177,0.074927 0.23339844,0.1419271 0.12166666,0.067 0.24001301,0.1217448 0.26334635,0.1217448 0.0216667,-1.666e-4 0.0849349,-0.063935 0.14160156,-0.1416015 0.055,-0.077833 0.22182292,-0.2806797 0.36848959,-0.4508464 0.14833333,-0.1703333 0.26985677,-0.3219141 0.26985677,-0.3369141 0.003333,-0.093333 -0.36641927,-0.5261718 -0.70475261,-0.8261718 -0.105,-0.092667 -0.16360676,-0.1382735 -0.19694006,-0.1344401 z m 9.14680989,0.044596 c -0.0633333,0 -0.40997395,0.3823073 -0.38997395,0.4316406 0.0266667,0.071 0.0766016,0.043849 0.26660157,-0.1464843 0.18166666,-0.1828334 0.22670573,-0.2851563 0.12337238,-0.2851563 z m -5.1015625,0.398112 c -0.0233333,-0.024 -0.28515623,0.5537005 -0.28515623,0.6305338 0,0.0485 0.17839843,-0.044531 0.35839843,-0.1861979 0.12833333,-0.1015 0.11151042,-0.1225416 -0.0351563,-0.046875 -0.0633333,0.031833 -0.1230599,0.047815 -0.13639323,0.035482 -0.0116667,-0.012333 0.008294,-0.1128073 0.0432943,-0.2233073 0.035,-0.1106667 0.060013,-0.2051354 0.055013,-0.2096356 z m -2.41503905,0.062825 c -0.0783333,-0.078167 -1.3483073,1.2491875 -1.3483073,1.4088542 0,0.020167 0.1516276,0.1924713 0.33496095,0.383138 0.31499997,0.3278333 0.56505208,0.6309896 0.6783854,0.8268229 0.045,0.079833 0.14648438,0.1225 0.14648438,0.0625 0,-0.013667 0.15664062,-0.1671537 0.34830729,-0.3408203 0.19333335,-0.1736667 0.35498698,-0.3301485 0.36165365,-0.3479818 0.006667,-0.017833 -0.0715104,-0.2073984 -0.17317709,-0.4208984 -0.30166666,-0.6288334 -0.39830728,-1.0133724 -0.34830728,-1.3733724 0.015,-0.1048334 0.015,-0.1834089 0,-0.1982422 z m 4.06152343,0.4697266 c -0.0283333,0.00567 -0.0666016,0.032068 -0.0999349,0.073568 -0.0316667,0.040667 -0.11990885,0.1710468 -0.19824218,0.2897135 -0.0766667,0.1186667 -0.25514323,0.3802135 -0.3968099,0.5813802 -0.295,0.4151667 -0.32997395,0.4737422 -0.30664062,0.5107422 0.0383333,0.063167 0.10167969,0.012812 0.22167969,-0.1796875 0.07,-0.1135 0.15990885,-0.2437135 0.19824218,-0.2897135 0.04,-0.046 0.11178388,-0.1505964 0.16178385,-0.2320964 0.05,-0.081667 0.14679688,-0.2220078 0.21679688,-0.3121745 0.125,-0.1628333 0.23828125,-0.360388 0.23828125,-0.414388 0,-0.013333 -0.003385,-0.021716 -0.0117187,-0.025716 -0.006667,-0.003 -0.0151042,-0.00346 -0.0234375,-0.00163 z m -1.56673176,0.075846 c -0.003333,-8.333e-4 -0.008346,-3.643e-4 -0.0133463,0.0013 -0.0133333,0.00467 -0.0348568,0.018714 -0.0615234,0.039714 -0.0483333,0.036667 -0.15848958,0.097258 -0.24348958,0.1350912 -0.14166667,0.062 -0.16305988,0.082922 -0.21972657,0.2115885 -0.10333331,0.234 -0.20664061,0.5888802 -0.22330728,0.7688802 -0.01,0.109 -0.00694,0.1686198 0.0113932,0.1686198 0.0166667,0 0.1216927,-0.063458 0.23502603,-0.140625 0.14333333,-0.098333 0.21005208,-0.161151 0.22005208,-0.2089843 0.045,-0.232 0.13516927,-0.5284792 0.21516927,-0.7161459 0.075,-0.1781666 0.10141928,-0.2529401 0.0797526,-0.25944 z m -8.10807292,0.3304037 c -0.0133333,0.002 -0.0201823,0.00697 -0.0201823,0.015299 0,0.00967 0.0718229,0.1460599 0.16015625,0.3030599 0.0866667,0.157 0.17816406,0.3514662 0.2014974,0.4319662 0.045,0.1521666 0.0568099,0.3975442 0.0218099,0.4495442 -0.0116667,0.018333 -0.16514324,0.035755 -0.3968099,0.044922 -0.21333334,0.00867 -0.44645834,0.033768 -0.53645834,0.058268 -0.18833333,0.051667 -0.17509115,0.060177 -0.42675781,-0.2643229 -0.0933333,-0.1191666 -0.23661459,-0.2913203 -0.32161459,-0.382487 -0.0833333,-0.091167 -0.16497395,-0.1916328 -0.18164061,-0.2236328 -0.0166667,-0.031833 -0.0483203,-0.057943 -0.069987,-0.057943 -0.0833333,0 -0.066901,0.062969 0.0514323,0.1888021 0.0683333,0.072667 0.1233724,0.1459349 0.1233724,0.1624349 0,0.016667 0.0648958,0.099102 0.14322916,0.1832682 0.21,0.2248334 0.3968099,0.4514141 0.3968099,0.4827474 0,0.015167 -0.0183333,0.042372 -0.0416667,0.060872 -0.0583333,0.048833 -0.0481901,0.078031 0.0218099,0.061198 0.0533333,-0.013167 0.050013,-0.00504 -0.0283203,0.078125 -0.18666667,0.1983334 -0.0617188,0.3728282 0.36328125,0.5071615 0.43666667,0.1376667 0.51640625,0.1814557 0.81640625,0.4462891 0.155,0.1373333 0.32027343,0.2882786 0.36360677,0.3356119 0.0933333,0.098167 0.20328125,0.1621094 0.27994791,0.1621094 0.06,0 0.25670574,0.2090729 0.41503907,0.4414063 0.13166667,0.1935 0.22003907,0.4076224 0.29003907,0.696289 0.0283333,0.1203334 0.0599479,0.2274558 0.0716146,0.2379558 0.0116667,0.0105 0.10976562,0.094682 0.21809895,0.1868489 0.10833333,0.092 0.2235026,0.2087734 0.25683593,0.2594401 0.0316667,0.050667 0.0766016,0.088802 0.0999349,0.084635 0.095,-0.017833 -0.001784,-0.7606771 -0.16178385,-1.2356771 -0.11833333,-0.3568333 -0.24498698,-0.6204921 -0.52832031,-1.1044921 -0.11,-0.1865 -0.19986979,-0.3527995 -0.19986979,-0.3694662 0,-0.03 0.1415625,-0.079107 0.26822917,-0.092773 0.0983333,-0.010833 0.094987,-0.059839 -0.0133463,-0.1803386 -0.28333335,-0.3135 -0.82319012,-0.5251614 -1.56152345,-0.6113281 -0.13,-0.015333 -0.15005209,-0.022896 -0.0950521,-0.039063 0.0366667,-0.011 0.16006514,-0.021287 0.2750651,-0.022786 0.22166667,-0.00283 0.20833335,0.00673 0.25,-0.1764323 0.0133333,-0.0615 0.0232943,-0.070531 0.0432943,-0.040365 0.0133333,0.021333 0.0250651,0.075458 0.0250651,0.1197916 0,0.0445 0.009818,0.095289 0.0214844,0.1129558 0.01,0.017667 0.15343748,0.079854 0.31510417,0.1380208 0.1633333,0.058333 0.31842446,0.1148177 0.34342446,0.125651 0.08,0.033833 0.0566667,-0.065714 -0.0833333,-0.3522135 -0.19166667,-0.3916667 -0.39184895,-0.6431068 -0.68684895,-0.8636068 -0.17666667,-0.1313333 -0.19821615,-0.1384713 -0.21321615,-0.070638 -0.008333,0.036667 -0.0233594,0.025966 -0.0683594,-0.0472 -0.0633333,-0.099667 -0.0764974,-0.1617839 -0.0348307,-0.1617839 0.11,0 0.44828125,0.207224 0.65494792,0.4003907 0.0716667,0.065667 0.1282552,0.1074401 0.1282552,0.092773 0,-0.061833 -0.17171875,-0.2567656 -0.30338542,-0.343099 -0.17,-0.1123333 -0.55315103,-0.2420234 -0.64648446,-0.22819 z m 8.1015625,0.011068 c -0.005,-0.00167 -0.0167838,0.012633 -0.0367839,0.036133 -0.0633333,0.077833 -0.15983071,0.3813672 -0.15983071,0.5055338 0,0.050333 0.006602,0.091471 0.0166015,0.091471 0.01,0 0.11001303,-0.029263 0.2216797,-0.06543 0.11333333,-0.036 0.24813801,-0.077138 0.29980468,-0.091471 l 0.0950521,-0.026042 -0.11490885,-0.00293 c -0.0633333,-0.0015 -0.15988281,0.015594 -0.21321615,0.03776 -0.215,0.09 -0.23518226,0.045271 -0.1451823,-0.3098958 0.0333333,-0.125 0.0451172,-0.1722969 0.0367839,-0.1751302 z m -12.1357422,0.013346 c -0.0755,0 -0.00863,0.091146 0.22070313,0.2994792 0.13666667,0.125 0.31514323,0.2816484 0.3968099,0.3479817 0.0816667,0.066333 0.37315103,0.3204453 0.64648437,0.5647787 0.275,0.2441666 0.7233724,0.642901 0.9983724,0.8860677 0.57166666,0.5071666 0.83848958,0.7459245 1.03515625,0.9267578 0.13333333,0.124 0.23144531,0.1637422 0.23144531,0.094076 0,-0.036167 -0.23332031,-0.2494167 -0.90332031,-0.8229167 -0.22166667,-0.1906666 -0.65838542,-0.5761119 -0.97005209,-0.8564453 -0.92166666,-0.828 -1.62443229,-1.4397786 -1.65559896,-1.4397791 z m 15.64746095,0.180013 c -0.0333333,-0.013167 -0.4999349,0.439099 -0.9749349,0.9472656 -0.0883333,0.093833 -0.58669272,0.599849 -1.11002605,1.124349 -0.52166665,0.5245 -0.9501953,0.9642135 -0.9501953,0.9772135 0,0.013 0.008555,0.031833 0.0185547,0.041667 0.0416667,0.041667 0.0932422,0.00717 0.28157552,-0.1878255 0.41166667,-0.426 1.25003907,-1.2813568 1.9983724,-2.0406901 0.42666667,-0.4321667 0.77473958,-0.7998985 0.77473958,-0.8167318 0,-0.017 -0.0164193,-0.037247 -0.038086,-0.0452477 z m -8.55013022,0.042643 c -0.006667,0.007 0.0201823,0.1084271 0.061849,0.2252605 0.065,0.1876666 0.0732422,0.2516458 0.0732422,0.5494791 0,0.3835 -0.0468099,0.6484896 -0.18847657,1.0559896 -0.05,0.1443333 -0.0914713,0.274237 -0.0914713,0.288737 0,0.0145 0.0883203,0.070984 0.19498699,0.125651 0.31666666,0.1606667 0.5781901,0.3576849 0.81152343,0.6103516 0.12166667,0.1301667 0.23015625,0.2368125 0.24348958,0.2369792 0.04,6.666e-4 -0.001771,-0.4251745 -0.0651042,-0.6871745 -0.0583333,-0.2378334 -0.0848438,-0.6102865 -0.0481771,-0.6477865 0.0366667,-0.035833 0.14470052,0.012482 0.35970052,0.1604818 0.265,0.1825 0.48184897,0.3121745 0.5201823,0.3121745 0.0166667,0 0.0565495,-0.051583 0.0882161,-0.1145834 0.0316667,-0.063167 0.0984375,-0.1709166 0.1484375,-0.2395833 0.05,-0.068667 0.0917969,-0.1443021 0.0917969,-0.1679688 0,-0.052333 -0.47516927,-0.6977447 -0.6735026,-0.9134114 -0.25833334,-0.2836667 -0.71503907,-0.5429063 -1.29003907,-0.7330729 -0.12333333,-0.040833 -0.22998698,-0.068523 -0.23665368,-0.0615235 z m -1.29166667,0.3164063 c -0.03,0 -0.0399479,0.014174 -0.0299479,0.041341 0.0983333,0.2563334 0.1584375,0.7297604 0.1484375,1.1627604 -0.005,0.1953334 -0.003411,0.3609974 0.003255,0.3681641 0.008333,0.00717 0.15988282,0.037708 0.33821614,0.067708 0.1766667,0.030167 0.3533073,0.06719 0.38997396,0.082357 0.125,0.050667 0.17005209,0.024992 0.26171875,-0.1455078 0.11166667,-0.2096667 0.19661459,-0.526724 0.19661459,-0.733724 V 12.0423169 L 23.4632161,11.9000644 c -0.24333333,-0.156 -1.01325521,-0.5367839 -1.0865885,-0.5367837 z m 6.69661459,0.026693 c -0.115,-0.00983 -0.69652343,0.2745261 -1.01985677,0.5058594 -0.28166666,0.2005 -0.8766276,0.7724713 -0.91829426,0.883138 -0.035,0.092333 -0.0350391,0.9668438 0.001628,1.3606771 0.0316667,0.3498333 0.15509115,1.2356667 0.17675782,1.2708333 0.0216667,0.0365 0.10813801,-0.021776 0.29980468,-0.203776 l 0.17838542,-0.1692708 0.003255,-0.4824219 c 0.003333,-0.4133334 0.0151563,-0.5327214 0.0768229,-0.8310547 0.15666663,-0.7393333 0.50152343,-1.4227682 1.06152343,-2.0999349 0.0966667,-0.116 0.16657552,-0.2186901 0.15657552,-0.2281901 -0.003333,-0.00333 -0.008268,-0.00519 -0.0166017,-0.005859 z m -1.78483072,0.3326823 c -0.0216667,-0.020333 -0.32664063,0.1734297 -0.5983073,0.3779297 -0.40666666,0.3078333 -0.8283724,0.7939714 -0.9983724,1.1539714 l -0.046875,0.098958 0.21354167,0.211263 c 0.31333333,0.3101667 0.53498698,0.6654323 0.69498698,1.1139323 0.115,0.3163333 0.15484375,0.5259818 0.17317709,0.8896484 l 0.0169271,0.3369141 0.25651042,0.029297 c 0.14166666,0.016333 0.2650651,0.031687 0.2750651,0.033854 0.05,0.011333 0.0417448,-0.076974 -0.0449219,-0.4316406 -0.15166667,-0.6171667 -0.20667968,-1.0348151 -0.2216797,-1.7229818 -0.02,-0.8206666 0.0282552,-1.2390234 0.21158855,-1.8115234 0.045,-0.1453333 0.0766927,-0.2711224 0.0683594,-0.2796221 z m 5.59667969,0.9358724 c -0.0483333,0.00733 -0.13683594,0.060242 -0.25683595,0.1565755 -0.20499997,0.1653334 -0.94816405,0.6945573 -1.40983072,1.0045573 -0.345,0.2321667 -0.45826823,0.3288073 -0.43326823,0.3691406 0.01,0.017333 0.0280469,0.031576 0.0397135,0.031576 0.0266666,0 0.36337238,-0.2320365 0.62337238,-0.4290365 0.11,-0.084333 0.32835938,-0.2427213 0.48502605,-0.351888 0.78666667,-0.5525 0.99674478,-0.7091406 0.99674478,-0.7441406 0,-0.029167 -0.0149218,-0.041117 -0.0449218,-0.0367843 z m -4.5201823,0.033529 c -0.0216667,-0.022667 -0.33984375,0.7769375 -0.33984375,0.8567708 0,0.053333 0.0481511,0.017214 0.22981771,-0.1686198 0.13833334,-0.142 0.15852865,-0.1705807 0.0751953,-0.1077474 -0.095,0.072667 -0.16992188,0.1071406 -0.16992188,0.077474 0,-0.0045 0.048112,-0.152125 0.10644531,-0.328125 0.06,-0.1761667 0.10330729,-0.324586 0.0983073,-0.3297526 z m -13.66829427,0.2223307 c -0.0291667,0.00117 -0.0416667,0.022922 -0.0416667,0.065755 0,0.037167 0.0720339,0.084458 0.27636719,0.1822917 0.152,0.072667 0.33696614,0.1707812 0.41113281,0.2174479 0.14416667,0.091 0.18830469,0.102625 0.21647135,0.057292 0.0311667,-0.050667 -0.0689687,-0.1282812 -0.33463541,-0.2591145 -0.14266667,-0.070167 -0.31655209,-0.1625782 -0.38671875,-0.2050782 -0.0661667,-0.040167 -0.11195052,-0.059594 -0.14095049,-0.0585939 z m 10.046875,0.022135 c -0.008333,0.00867 0.004987,0.1159401 0.0283203,0.2386068 0.11333334,0.5728333 0.12657552,1.3323594 0.0315755,1.8808594 -0.04,0.2278333 -0.15516927,0.6130078 -0.25683593,0.8538411 -0.035,0.082167 -0.0315625,0.08975 0.0651042,0.1979167 0.15,0.1653333 0.2948828,0.4021666 0.46321616,0.75 0.0816667,0.17 0.15507811,0.3016276 0.16341145,0.2932942 0.008333,-0.01 0.0517187,-0.1232552 0.0950521,-0.2532552 0.13166667,-0.391 0.47502605,-0.9526588 0.6516927,-1.0628255 0.0966667,-0.060833 0.23816407,-0.057115 0.4514974,0.011719 0.0683333,0.022 0.14019532,0.030388 0.15852865,0.018555 0.025,-0.015167 0.0348307,-0.1026146 0.0348307,-0.3007813 0,-0.8368333 -0.46320313,-1.6780494 -1.24153646,-2.2548828 -0.24,-0.178 -0.61985677,-0.3977135 -0.64485677,-0.3730474 z m 4.27473958,0.043945 c -0.045,0 -0.0533333,0.011911 -0.0416667,0.059245 0.008333,0.032833 -0.006458,0.1123854 -0.0364583,0.1783854 -0.045,0.1015 -0.0467969,0.1136901 -0.008464,0.082357 0.0466667,-0.039 0.14322917,-0.2289661 0.14322917,-0.2861328 0,-0.0185 -0.024974,-0.033854 -0.0566402,-0.0338546 z m -6.703125,0.081706 c -0.11833333,-0.002 -0.19335937,0.00794 -0.19335937,0.030273 0,0.017 0.0616797,0.1276016 0.13834635,0.2457682 0.18166667,0.283 0.45822917,0.8618646 0.55989584,1.1653646 0.15,0.4563333 0.19826823,0.7610443 0.18326821,1.1995443 -0.0116667,0.3848333 -0.0448958,0.5592474 -0.1015625,0.524414 -0.0166667,-0.01 -0.0217187,-0.050758 -0.0117187,-0.093424 0.0133333,-0.058833 0.001537,-0.089839 -0.0501302,-0.1386719 -0.0366667,-0.034833 -0.10816407,-0.1307162 -0.15983073,-0.2132162 -0.12333334,-0.1945 -0.48846354,-0.5367317 -0.71679687,-0.6708984 -0.0983333,-0.058167 -0.2581901,-0.1318958 -0.35319012,-0.1640625 -0.3183333,-0.106 -0.65843746,-0.047838 -0.8984375,0.1529948 -0.0816666,0.068167 -0.1266276,0.063495 -0.1266276,-0.013672 0,-0.1 0.28007814,-0.2506589 0.58007814,-0.3128255 0.11666666,-0.024167 0.21989583,-0.049649 0.2265625,-0.056315 0.0133333,-0.014 -0.0533333,-0.1402188 -0.25,-0.4700521 -0.085,-0.1433334 -0.21158855,-0.3021459 -0.33658855,-0.4244792 -0.265,-0.2566667 -0.34675779,-0.2566667 -0.0934245,0 0.22333335,0.2268333 0.546875,0.7156953 0.546875,0.8251953 0,0.014 -0.0683594,0.029664 -0.1516927,0.034831 -0.15166666,0.009 -0.1533724,0.00753 -0.2483724,-0.1054688 -0.0950001,-0.113 -0.19173183,-0.1511875 -0.19173183,-0.075521 0,0.021167 0.0449349,0.081615 0.0999349,0.1341146 l 0.10188802,0.095378 -0.0683594,0.045898 c -0.10499998,0.071833 -0.29524738,0.2864922 -0.29524738,0.3336589 0,0.023667 0.1233203,0.1277005 0.27832032,0.2347005 0.83,0.5723333 0.98330728,0.8256953 1.38997395,2.2835286 0.0883333,0.3116667 0.18516926,0.6335026 0.21516926,0.7151693 0.0316667,0.081667 0.0566406,0.1566276 0.0566406,0.1682943 0,0.01 -0.0883203,0.060026 -0.19498699,0.110026 -0.20166666,0.093333 -0.37509115,0.250013 -0.42675781,0.3883464 -0.0466667,0.1233333 -0.0182161,0.1416015 0.20345051,0.1416015 0.26333337,0 0.26484375,0.041758 0.00651,0.1767579 -0.2966667,0.1533333 -0.53147136,0.3164713 -0.6748047,0.4664713 -0.0933333,0.1 -0.15518228,0.1416536 -0.22851561,0.1533203 -0.37833334,0.063333 -0.62977865,0.1817188 -0.64811199,0.3033854 -0.006667,0.053333 0.003073,0.060221 0.10807292,0.060221 0.10666667,0 0.21359375,0.036563 0.18359375,0.059896 -0.006667,0.00667 -0.0566927,0.036654 -0.11002603,0.069987 -0.11166669,0.066667 -0.47505209,0.5714974 -0.5950521,0.8264974 -0.0416667,0.091667 -0.0949088,0.2486328 -0.11490885,0.3486328 -0.0333333,0.1583333 -0.0534375,0.1947005 -0.1484375,0.2763672 -0.12833334,0.11 -0.19654945,0.2317448 -0.25488282,0.4550781 -0.065,0.25 -0.10333333,0.7485026 -0.0833333,1.0901693 l 0.0182297,0.3098958 -0.8782552,0.8717448 c -0.48333333,0.48 -0.87858073,0.8831511 -0.87858073,0.8964844 0,0.015 0.0183333,0.033333 0.0416667,0.041667 0.0316667,0.011667 0.23190105,-0.1716407 0.69856771,-0.639974 0.915,-0.9183333 1.00835937,-1.0082813 1.0266927,-0.9882812 0.0316667,0.031667 0.17317709,0.6183854 0.17317709,0.720052 0,0.1166667 -0.0850781,0.2431641 -0.16341145,0.2431641 -0.0316667,0 -0.0898177,-0.05151 -0.14648439,-0.1315104 -0.155,-0.215 -0.22007811,-0.1983985 -0.24674478,0.058268 -0.0183333,0.1666667 0.11489583,0.8483724 0.2265625,1.1650391 0.10833333,0.3116666 0.1134375,0.2817708 -0.1015625,0.6067708 -0.17833333,0.2716667 -0.21671875,0.3766276 -0.13671875,0.3766276 0.015,0 0.10829427,-0.1198958 0.20996093,-0.2682292 0.1,-0.1483333 0.196875,-0.2685156 0.21354167,-0.2701822 0.0733333,0 0.0980989,0.099974 0.13476563,0.5566406 0.0716667,0.9 0.16838542,1.1799609 0.5533854,1.6266276 0.38333334,0.4433333 0.43520834,0.5617187 0.546875,1.2200521 0.0766667,0.445 0.14490887,0.6399479 0.3232422,0.9049479 0.20666667,0.3116666 0.54009117,0.5768099 0.96842447,0.7718099 0.10666668,0.048333 0.30665365,0.1401172 0.44498698,0.2034505 l 0.25162762,0.1132812 0.71809895,0.02474 c 0.395,0.013333 0.7735026,0.035169 0.84016927,0.048503 0.0666667,0.013333 0.4416276,0.021563 0.83496095,0.018229 0.88,-0.00833 0.91990885,-0.016562 1.69824218,-0.3932292 0.30333334,-0.1466666 0.65018229,-0.3067317 0.77018229,-0.3583984 0.415,-0.175 0.70665365,-0.3698698 1.23665365,-0.8248698 0.15666666,-0.135 0.29652343,-0.2451172 0.31152343,-0.2451172 0.015,0 0.0332943,-0.031654 0.0432943,-0.069987 0.035,-0.1366667 0.24007812,-0.4584506 0.37174479,-0.5784506 0.4,-0.3683333 0.55171875,-0.5697265 0.76171875,-1.0113932 0.12333333,-0.26 0.2249349,-0.6268099 0.2249349,-0.8134766 0,-0.098333 -0.008346,-0.1149088 -0.055013,-0.1149088 -0.0516667,0 -0.055,-0.011641 -0.0416667,-0.1816406 0.008333,-0.1 0.0216146,-0.3101693 0.0299479,-0.4651693 0.01,-0.1566667 0.0283333,-0.3683464 0.0416667,-0.4716797 0.0416667,-0.3016667 0.18830728,-0.8766276 0.22330728,-0.8766276 0.03,0 0.5669401,0.6548828 0.8219401,1.0048828 0.115,0.155 0.173125,0.1886068 0.203125,0.1136068 0.01,-0.026667 -0.0532161,-0.1216797 -0.17154948,-0.2633464 -0.1016667,-0.1216667 -0.2416016,-0.2884505 -0.30826827,-0.3701172 -0.0666667,-0.081667 -0.21348958,-0.2601432 -0.32682292,-0.3968099 l -0.20507813,-0.2480468 0.0768229,-0.3450521 c 0.065,-0.2933334 0.0748698,-0.4016927 0.0748698,-0.7350261 -0.001667,-0.4133333 -0.0247526,-0.5117187 -0.12141929,-0.5117187 -0.0466667,0 -0.0501563,-0.013255 -0.0351562,-0.1282552 0.008333,-0.07 0.0251172,-0.1383594 0.0367839,-0.1516927 0.0116667,-0.011667 0.12809895,0.076654 0.25976562,0.1949869 0.13,0.12 0.4683724,0.4215886 0.7483724,0.6699219 0.28,0.25 0.56329426,0.499974 0.6266276,0.5566406 0.10666666,0.095 0.19694013,0.116875 0.1969401,0.046875 0,-0.013333 -0.26361979,-0.2535676 -0.58528645,-0.531901 -0.32333334,-0.28 -0.66639324,-0.5815495 -0.76139324,-0.6715495 -0.0966667,-0.09 -0.24348958,-0.220039 -0.32682291,-0.290039 l -0.1516927,-0.1266276 -0.014974,-0.3434245 c -0.0166667,-0.3783334 -0.074987,-0.6215886 -0.19498697,-0.7949219 -0.0633334,-0.095 -0.14843752,-0.1365365 -0.1484375,-0.07487 0,0.07 -0.048086,0.016419 -0.0797526,-0.086914 -0.04,-0.135 -0.18020833,-0.4198567 -0.296875,-0.6031901 -0.045,-0.071667 -0.0817057,-0.1383593 -0.0817057,-0.1516927 0,-0.013333 0.11834635,0.039909 0.26334635,0.1149089 0.145,0.076667 0.39688801,0.2082552 0.56022135,0.2949219 0.885,0.4616666 1.7249349,0.916914 1.8499349,1.0035807 0.04,0.026667 0.17985676,0.1032552 0.31152343,0.1699219 0.13,0.065 0.26859375,0.140039 0.30859375,0.165039 0.075,0.048333 0.15657552,0.034935 0.15657552,-0.025065 0,-0.021667 -0.0566276,-0.06819 -0.1266276,-0.1031901 -0.0716667,-0.036667 -0.3716276,-0.1917187 -0.66829427,-0.3450521 -0.295,-0.155 -0.6352474,-0.3299349 -0.75358073,-0.3916015 -0.12,-0.06 -0.35979167,-0.1916667 -0.53645834,-0.2916667 -0.175,-0.1 -0.59847656,-0.3284635 -0.93847656,-0.5084635 -0.52166667,-0.275 -0.63157552,-0.3432292 -0.69824219,-0.4348959 -0.0433333,-0.06 -0.0784505,-0.1283203 -0.0784505,-0.1533203 0,-0.1133333 -0.15658855,-0.286875 -0.41992189,-0.4635416 -0.20166666,-0.1366667 -0.355,-0.2732683 -0.625,-0.5582683 -0.22333333,-0.2366666 -0.4181901,-0.4148567 -0.51985676,-0.4781901 -0.0883333,-0.053333 -0.16015625,-0.11 -0.16015625,-0.125 0,-0.041667 0.21845051,-0.00514 0.37011718,0.061524 0.0783333,0.035 0.14983073,0.054922 0.15983073,0.044922 0.045,-0.045 -0.0551042,-0.248138 -0.19010416,-0.383138 -0.16166667,-0.1616667 -0.35141927,-0.245 -0.66308594,-0.2916667 -0.24166666,-0.036667 -0.26666666,-0.050091 -0.25,-0.1350911 0.006667,-0.035 -0.001602,-0.073333 -0.0166015,-0.083333 -0.0583333,-0.035 -0.0285156,-0.1817318 0.10481772,-0.5250651 0.24833332,-0.645 0.3298828,-1.0249584 0.29654947,-1.390625 -0.0166667,-0.2005 -0.048125,-0.2110834 -0.28645834,-0.09375 -0.11833333,0.057667 -0.25830728,0.1660546 -0.43164061,0.3310547 -0.20166667,0.1916666 -0.26161459,0.2367057 -0.27994792,0.2067057 -0.015,-0.021667 -0.0766797,-0.1550807 -0.13834637,-0.2952474 -0.10333331,-0.236 -0.18180988,-0.3764479 -0.27180988,-0.4882813 -0.0483333,-0.060167 -0.23665365,-0.1855468 -0.27832032,-0.1855468 -0.0483333,0 -0.2834375,0.3022109 -0.3984375,0.5120442 -0.135,0.247 -0.22147135,0.4921745 -0.25813801,0.7288412 -0.0383333,0.255 -0.0801562,0.3814583 -0.11848959,0.3697916 -0.0166667,-0.00667 -0.11826823,-0.2199739 -0.2249349,-0.4733072 -0.10666667,-0.2550001 -0.25002605,-0.5483516 -0.31835937,-0.6520183 -0.15000001,-0.224 -0.39000001,-0.4313151 -0.5,-0.4313151 -0.0416667,0 -0.15825521,0.2718386 -0.29492188,0.6803386 -0.0616667,0.1896666 -0.12179687,0.3497786 -0.13346355,0.3564453 -0.0116667,0.00667 -0.17335937,-0.081615 -0.36002603,-0.1966146 -0.38166667,-0.2378334 -0.67824219,-0.3551198 -0.73990885,-0.2936198 -0.055,0.055167 -0.0731641,0.3901693 -0.0348307,0.6318359 0.0166667,0.115 0.0816406,0.36 0.13997395,0.5416667 0.06,0.1833333 0.1014323,0.340013 0.093099,0.3466797 -0.0266667,0.028333 -0.14984375,-0.1985156 -0.21484375,-0.3951823 -0.12666667,-0.3816667 -0.15851563,-1.0481719 -0.0618489,-1.2428385 0.035,-0.072 0.20687497,-0.1248751 0.421875,-0.1302084 0.24166663,-0.00617 0.4949479,-0.081601 0.82161457,-0.2457682 0.32833333,-0.1648333 0.38153646,-0.1804922 0.49153646,-0.1461589 0.055,0.017167 0.0699479,-9.503e-4 0.15494792,-0.1826172 0.13166667,-0.2861666 0.22342448,-0.6223333 0.26009115,-0.9583333 0.0366667,-0.3396667 0.0351563,-0.3442109 -0.21484375,-0.6578776 -0.41833355,-0.5265 -1.0417841,-0.8670547 -1.78678407,-0.976888 -0.1716667,-0.025333 -0.33320313,-0.039341 -0.4498699,-0.041341 z m 6.42154949,0.1884765 c -0.035,-0.013833 -0.24157552,0.1018542 -0.44824219,0.2630209 -0.2116667,0.1656666 -0.33509115,0.3531041 -0.38509115,0.5859375 -0.065,0.3046666 -0.0434505,0.650901 0.0465495,0.7610677 0.015,0.0185 0.0368359,0.033529 0.0485026,0.033529 0.0116667,0 0.0617318,-0.1181953 0.10839843,-0.2626953 0.0483333,-0.1445 0.13001302,-0.3536771 0.18001302,-0.4648438 0.0516667,-0.1111666 0.11652341,-0.2682916 0.14485678,-0.3489583 0.06,-0.1713333 0.1950651,-0.4201693 0.2750651,-0.5068359 0.0333333,-0.0365 0.0399479,-0.055721 0.0299479,-0.0602218 z m 6.71516926,0.2988281 c -0.0416667,0.00317 -0.10007813,0.020607 -0.16341145,0.051107 -0.0583333,0.028667 -0.12013021,0.052234 -0.13346355,0.052734 -0.07,0.00217 -0.25651041,0.1264297 -0.25651041,0.1695963 0,0.026 0.0199609,0.047201 0.0432943,0.047201 0.075,0 0.5764974,-0.2492761 0.5764974,-0.2871094 0,-0.025667 -0.0264063,-0.036695 -0.0664063,-0.0335289 z m -14.5485026,0.2275391 c -0.0133333,0.003 -0.0218099,0.010151 -0.0218099,0.021484 0,0.019167 0.0635937,0.1152239 0.14192708,0.2128906 0.0783333,0.097833 0.22479167,0.3135 0.328125,0.4791667 0.10166667,0.1658333 0.2051823,0.3064921 0.22851564,0.3128255 0.0233333,0.00633 0.13312496,0.058862 0.24479166,0.116862 0.29499999,0.1538333 0.30355469,0.1499427 0.22688802,-0.108724 -0.135,-0.4503333 -0.43513022,-0.7919349 -0.84179688,-0.9541016 -0.155,-0.0615 -0.26164062,-0.089404 -0.30664062,-0.0804032 z m 13.39322917,0.3105469 c -0.045,-0.00367 -0.13322917,0.026018 -0.26822917,0.089518 -0.10666666,0.050333 -0.34657551,0.1550729 -0.53157551,0.2330729 -0.18500004,0.077833 -0.36160157,0.1566302 -0.39160157,0.1751302 -0.03,0.018333 -0.0983203,0.04793 -0.15332032,0.06543 -0.11333333,0.0355 -0.14182291,0.065531 -0.11848958,0.1236979 0.008333,0.0215 0.0234896,0.038904 0.0351563,0.038737 0.0116667,-1.666e-4 0.34303385,-0.1438359 0.73470052,-0.3193359 0.47333333,-0.2108334 0.71863281,-0.3341068 0.72363281,-0.3636068 0.005,-0.026167 -0.005274,-0.04031 -0.0302735,-0.0426433 z m -17.28157552,0.1152344 c -0.0716667,0.027667 -0.0467448,0.069417 0.0865885,0.1354166 0.07,0.035167 0.16333334,0.082953 0.20833334,0.1061198 0.045,0.023167 0.17186198,0.084552 0.28352865,0.1367188 0.19666666,0.092667 1.0498177,0.5435052 1.56315103,0.8261718 0.28,0.1545 0.80996095,0.4386849 1.29329428,0.6936849 0.16999999,0.09 0.36497395,0.1945808 0.43164062,0.2327474 0.12333333,0.071 0.2553125,0.093524 0.23697917,0.04069 -0.005,-0.016167 -0.19675782,-0.1286744 -0.42675782,-0.2496744 -0.22833333,-0.1211667 -0.50180988,-0.2664089 -0.60514323,-0.3232422 -0.10499999,-0.056667 -0.3948177,-0.2122032 -0.64648437,-0.3457032 -0.46833333,-0.2476666 -1.10345052,-0.5853671 -1.53678385,-0.8180338 -0.13333333,-0.0715 -0.2982422,-0.1616953 -0.36490885,-0.2001953 -0.2566667,-0.1481667 -0.48343753,-0.2500339 -0.52343747,-0.2347004 z m 12.31998697,0.068685 c -0.245,0.00133 -0.52980468,0.089078 -0.79980468,0.2467447 -0.1,0.058667 -0.196875,0.1064454 -0.21354167,0.1064454 -0.0216667,0 -0.0250521,-0.050461 -0.0117187,-0.1682943 0.01,-0.092667 0.008372,-0.1599141 -0.001628,-0.1494141 -0.025,0.023333 -0.0933854,0.3089271 -0.0950521,0.3919271 0,0.033333 0.0152343,0.060547 0.031901,0.060547 0.0183333,0 0.1847526,-0.077367 0.37141928,-0.1722005 0.38,-0.1935 0.64841145,-0.2858073 0.83007812,-0.2858073 0.0683333,0 0.11673177,-0.00713 0.10839843,-0.015625 -0.01,-0.00867 -0.10838541,-0.01499 -0.22005168,-0.014323 z m 0.0367839,0.1298828 c -0.10333335,-0.006 -0.7433073,0.2645911 -1.0983073,0.4684244 -0.34666667,0.2 -0.70688802,0.5071589 -0.85188802,0.7294922 -0.0433333,0.065333 -0.0432943,0.078664 -0.001628,0.2014974 0.06,0.177 0.0817839,0.1985677 0.20345053,0.1985677 0.0833333,0 0.11335937,0.014576 0.1516927,0.073242 0.04,0.0625 0.0466667,0.1284479 0.0416667,0.4466146 -0.003333,0.2818333 0.003359,0.3702734 0.0266927,0.3636068 0.0183333,-0.00667 0.23477864,-0.3658203 0.48144532,-0.7991537 0.47999998,-0.8435 0.6885026,-1.1742343 0.9235026,-1.469401 0.0816667,-0.1021667 0.14342447,-0.1958412 0.13509113,-0.2080078 -0.001667,-0.00283 -0.005052,-0.00438 -0.0117184,-0.00488 z m 0.84667968,0.1627604 c -0.05,0.00617 -0.14679688,0.063917 -0.30013022,0.1770833 -0.4,0.2968333 -0.78177083,0.5572917 -0.81510416,0.5572917 -0.0433333,0 -0.16315104,0.1370312 -0.14648437,0.1653646 0.03,0.048333 0.089974,0.01794 0.38997395,-0.1988933 0.17,-0.1223333 0.44498698,-0.3133125 0.61165365,-0.4244791 0.16666667,-0.1111667 0.30338542,-0.2160729 0.30338542,-0.2330729 0,-0.032333 -0.0132943,-0.047128 -0.0432943,-0.0432943 z m 1.40983072,0.7242838 c -0.0916667,0.00183 -0.30317709,0.089078 -0.71484374,0.2884115 -0.3216667,0.1558333 -0.71186198,0.3395365 -0.86686198,0.4082031 -0.32666667,0.144 -0.4133073,0.1949531 -0.38997397,0.2311198 0.0216667,0.036333 0.0234375,0.036141 0.23177084,-0.068359 0.10333333,-0.052 0.19984375,-0.094401 0.21484375,-0.094401 0.0133333,0 0.12507813,-0.049367 0.2467448,-0.1097005 0.12166666,-0.060333 0.30992186,-0.1452943 0.41992186,-0.1891276 0.41,-0.1653334 0.92178384,-0.4125964 0.91178387,-0.4404297 -0.006667,-0.0175 -0.0233854,-0.026216 -0.0533854,-0.0257166 z m -10.75976562,0.014648 c 0.015,-0.015167 0.29154948,0.1698802 0.33821615,0.2272135 0.0583333,0.0705 -0.0132682,0.034497 -0.18326824,-0.090169 -0.0916667,-0.068333 -0.16161458,-0.1297109 -0.15494791,-0.1370445 z m -6.01204427,0.6425781 c -0.0268333,0 -0.0403307,0.017891 -0.0348307,0.046224 0.009833,0.051167 -0.006766,0.045943 0.61523437,0.1829427 0.24466667,0.053833 0.53564323,0.1215573 0.6468099,0.1503906 0.18233333,0.047333 0.62973958,0.1525443 1.02473958,0.2412109 0.0816667,0.018333 0.18005208,0.04982 0.22005208,0.069987 0.04,0.020333 0.10644532,0.036458 0.14811198,0.036458 0.0416667,0 0.19671875,0.029701 0.34505209,0.068034 0.14833333,0.036667 0.51824218,0.1233984 0.82324218,0.1917318 0.30333333,0.068333 0.60683595,0.1452083 0.6735026,0.171875 0.14500002,0.058333 0.16321615,0.059948 0.21321615,0.029948 0.0516667,-0.033333 0.0166927,-0.1067839 -0.0566406,-0.1201172 -0.19833333,-0.038333 -0.5117448,-0.1066797 -0.83007813,-0.180013 -0.20166667,-0.046667 -0.53988283,-0.1233359 -0.7548828,-0.1735026 -0.21500003,-0.0495 -0.46338542,-0.1077162 -0.55338543,-0.1298828 -0.0883333,-0.022 -0.33174479,-0.079279 -0.53841145,-0.1272787 -0.208,-0.048 -0.71952865,-0.1707864 -1.13769532,-0.2727864 -0.41816666,-0.1018334 -0.78003645,-0.1852214 -0.8040365,-0.1852213 z m 11.53027344,0.00391 c -0.0583333,0.00917 -0.0532943,0.020076 0.0817057,0.1982421 0.0783333,0.1036667 0.17834635,0.2588933 0.22167968,0.3447266 0.055,0.105 0.0950391,0.1525078 0.1233724,0.1455078 0.0516667,-0.0135 0.7532552,-0.5038359 0.7532552,-0.5276692 0,-0.0235 -1.10001301,-0.173474 -1.18001298,-0.1608073 z m -2.36165366,0.1647135 c -0.008333,-0.00767 -0.10826821,0.023669 -0.2249349,0.069336 -0.22666665,0.089667 -0.41678385,0.1450261 -0.66178385,0.1933594 -0.085,0.016833 -0.15494791,0.041672 -0.15494791,0.055339 0,0.0135 0.0832682,0.066346 0.18326823,0.117513 0.1,0.051 0.26678385,0.1478515 0.37011718,0.2145182 0.10333334,0.066667 0.19988282,0.1182422 0.21321615,0.1149089 0.0133333,-0.00333 0.0633594,-0.1265729 0.11002604,-0.2747396 0.0483334,-0.1475 0.10846355,-0.314737 0.13346355,-0.3720703 0.025,-0.057167 0.0382422,-0.1103308 0.0315755,-0.1181646 z m 9.98990887,0.1611328 c -0.0966667,-0.007 -0.29153646,0.020258 -0.49153646,0.072591 -0.205,0.054 -0.26014324,0.086273 -0.23014324,0.1344401 0.01,0.016167 0.0216537,0.029297 0.0283203,0.029297 0.0283333,0 0.75501302,-0.1676145 0.76334635,-0.1757812 0.005,-0.00533 -9.113e-5,-0.023674 -0.0100912,-0.041341 -0.006667,-0.010333 -0.0282292,-0.016872 -0.0598957,-0.0192059 z m -1.77148438,0.3808594 c -0.0666667,-0.00583 -0.20354167,0.019713 -0.46354167,0.08138 -0.635,0.1483333 -0.98173176,0.2249089 -1.6500651,0.3649089 -0.34333333,0.071667 -0.63164063,0.1368489 -0.63997396,0.1451823 -0.008333,0.00833 -0.006419,0.028294 0.003581,0.043294 0.008333,0.016667 0.0431641,0.023229 0.0764974,0.018229 0.20833334,-0.043333 0.6167578,-0.129987 0.71842449,-0.1533203 0.0666667,-0.015 0.35652343,-0.076432 0.64485676,-0.1347656 0.28833334,-0.058333 0.53166667,-0.1134896 0.54166667,-0.1184896 0.0116667,-0.00667 0.12679687,-0.030052 0.25846353,-0.053385 0.45166667,-0.076667 0.56315105,-0.1064454 0.56315105,-0.148112 0,-0.026667 -0.0130598,-0.041255 -0.0530602,-0.0449217 z m -11.91178388,0.5846354 c -0.04,-0.00333 -0.0450781,0.00833 -0.0384115,0.041667 0.006667,0.04 0.0566537,0.060299 0.23665365,0.098633 0.12666667,0.025 0.26020833,0.058281 0.296875,0.071615 0.0916667,0.035 0.14973958,0.024935 0.14973958,-0.025065 0,-0.045 -0.27317708,-0.1283463 -0.58984375,-0.180013 -0.0233333,-0.00333 -0.040013,-0.00517 -0.055013,-0.00684 z m 16.21158853,0.8802083 c -0.0366667,0 -0.0851042,0.00159 -0.1484375,0.00326 -0.27166666,0.01 -0.33317708,0.028333 -0.29817708,0.083333 0.0116667,0.02 0.1116276,0.028438 0.29329428,0.023437 0.25333332,-0.00667 0.27343747,-0.011849 0.2734375,-0.061849 0,-0.038333 -0.008451,-0.048177 -0.1201172,-0.048177 z m -1.76985676,0.018229 c -0.06,0 -0.13359375,0.00155 -0.22526042,0.00488 -0.20166667,0.00667 -1.32316407,0.025039 -2.49316407,0.040039 -1.17166666,0.015 -2.13998698,0.038425 -2.15332031,0.051758 -0.0133333,0.013333 -0.0149218,0.03668 -0.003255,0.055013 0.015,0.025 0.243125,0.026758 0.953125,0.010091 0.51333333,-0.011667 1.10856772,-0.019935 1.3235677,-0.016601 0.21500002,0.00333 0.92992188,-0.00176 1.58658855,-0.010091 1.02,-0.015 1.1966276,-0.023307 1.20996093,-0.056641 0.02,-0.055 -0.0215755,-0.076784 -0.19824238,-0.078451 z m -15.78352866,0.1767578 c -0.15333333,-0.005 -0.42980468,-0.00337 -0.92480468,0.00163 -1.325,0.015 -1.43076823,0.014961 -2.1624349,0.00163 -0.43483333,-0.00833 -0.58145573,-0.00156 -0.61295573,0.023437 -0.0226667,0.02 -0.0338906,0.046563 -0.0253906,0.059896 0.0165,0.026667 3.1488802,0.029922 3.64388022,0.00326 0.23333333,-0.011667 0.27684895,-0.021641 0.27018228,-0.056641 -0.003333,-0.018333 -0.0351432,-0.02987 -0.18847657,-0.033203 z m -5.48502603,0.021484 c -0.14583334,0.00333 -0.19220313,0.031914 -0.15820313,0.086914 0.0126667,0.02 0.11798698,0.026484 0.31998698,0.021484 0.24633333,-0.005 0.30110677,-0.014844 0.30110677,-0.048177 0,-0.031667 -0.0563698,-0.043346 -0.28320312,-0.055013 -0.0713333,-0.00333 -0.13102084,-0.00521 -0.1796875,-0.00521 z m 6.18001302,1.0149739 c -0.0483333,-0.018333 -0.44324219,0.056667 -0.86490885,0.1666667 -0.13333334,0.035 -0.38839842,0.08845 -0.56673179,0.1201172 -0.1783333,0.03 -0.38492186,0.073385 -0.46158853,0.095052 -0.16333333,0.045 -0.74661458,0.1615234 -0.94661458,0.1865234 -0.145,0.02 -0.18315625,0.045104 -0.16015625,0.1067709 0.015,0.038333 0.15351563,0.023489 0.43684896,-0.048177 0.0883333,-0.021667 0.26998697,-0.06 0.4033203,-0.083333 0.13333334,-0.025 0.33498699,-0.066719 0.44498699,-0.095052 0.11166666,-0.028333 0.27490885,-0.063372 0.36490885,-0.081706 0.21,-0.04 0.50184896,-0.098385 0.68684896,-0.1367187 0.0816667,-0.016667 0.25667969,-0.053411 0.38834635,-0.080078 0.24666667,-0.05 0.36640625,-0.1150651 0.27473959,-0.1500655 z m 10.1702474,0.048503 c -0.025,0 -0.0452604,0.00493 -0.0585938,0.016602 -0.0366667,0.038333 0.0166797,0.1050782 0.0966797,0.1217448 0.1,0.02 0.13997395,0.0065 0.13997397,-0.048503 0,-0.048333 -0.10472657,-0.09151 -0.17805987,-0.0898438 z m 0.953125,0.3066407 c -0.0483333,0 -0.0615234,0.016797 -0.0615234,0.05013 0,0.036667 0.19649738,0.1233724 0.28483071,0.1233724 0.0283333,0.00167 0.13686199,0.024726 0.24186199,0.05306 0.21833333,0.058333 0.3499349,0.059961 0.3499349,0.00163 0,-0.026667 -0.0484245,-0.053203 -0.13509115,-0.07487 -0.075,-0.018333 -0.25979167,-0.063229 -0.41145834,-0.1015625 -0.13833333,-0.033333 -0.22188801,-0.051758 -0.26855468,-0.051758 z m 1.76855468,0.4199218 c -0.08,0.00333 -0.1451823,0.021836 -0.14518228,0.048503 0,0.028333 0.0584896,0.04987 0.2018229,0.07487 0.11166668,0.018333 0.78475262,0.171836 1.49641928,0.3401693 1.17333334,0.2783334 1.40498697,0.3183594 1.31998699,0.2350261 -0.0283334,-0.026667 -0.38662762,-0.1185026 -0.83496095,-0.2151693 -0.14833334,-0.031667 -0.40339844,-0.093425 -0.56673177,-0.1350912 -0.16166667,-0.043333 -0.48989583,-0.1230599 -0.7265625,-0.1780599 -0.23833333,-0.055 -0.4699349,-0.1183463 -0.51660157,-0.1383463 -0.055,-0.025 -0.1481901,-0.035234 -0.2281901,-0.0319017 z m -16.9469401,0.081706 c -0.067,-0.01 -0.57527865,0.096589 -0.60644532,0.1282552 -0.0135,0.013333 -0.015875,0.038346 -0.005208,0.055013 0.0133333,0.021667 0.0513464,0.025052 0.11751302,0.011719 0.054,-0.011667 0.13486198,-0.023398 0.17936198,-0.025065 0.0443333,-0.00167 0.0989271,-0.011484 0.12109375,-0.021484 0.0223333,-0.01 0.085625,-0.033424 0.140625,-0.051758 0.10866667,-0.036667 0.13389323,-0.083346 0.0530596,-0.0966802 z m 3.70117187,0.6067708 c -0.06,0.00667 -0.1998177,0.060039 -0.43815104,0.1650391 -0.23333333,0.1033333 -0.49658855,0.215039 -0.58658855,0.2483724 -0.275,0.105 -0.36360676,0.1581771 -0.36360676,0.2148437 0,0.03 0.0101823,0.053385 0.0201823,0.053385 0.06,0.00167 1.36989581,-0.6048958 1.39322916,-0.6432291 0.0183333,-0.03 0.009935,-0.041745 -0.0250651,-0.0384111 z m 8.94498698,0.2516276 c 0.155,0 0.16028644,0.028424 0.0852865,0.4684245 -0.11833337,0.7 -0.0717188,0.9464062 0.1549479,0.8164062 0.16500003,-0.095 0.18144532,0.070221 0.023112,0.2268881 -0.085,0.086667 -0.12329426,0.1048177 -0.20996093,0.1048177 -0.12666667,0 -0.20496093,-0.049831 -0.2516276,-0.1598308 -0.0183333,-0.045 -0.0433073,-0.083333 -0.0566406,-0.083333 -0.0116667,0 -0.0467839,0.058255 -0.0784505,0.1282552 -0.0633333,0.145 -0.1413802,0.2382943 -0.24804687,0.2932943 -0.18166668,0.095 -0.3952474,0.00512 -0.50358073,-0.2132162 -0.0783333,-0.1583333 -0.10326823,-0.4299349 -0.0582682,-0.6416015 0.0716667,-0.3483333 0.32160156,-0.7052474 0.55826823,-0.7952474 0.11666667,-0.045 0.18160157,-0.038099 0.3499349,0.031901 0.0166667,0.00833 0.0552474,-0.030039 0.086914,-0.081706 0.0466667,-0.08 0.0714453,-0.095052 0.1481119,-0.0950521 z m -0.41471353,0.3066406 c -0.125,-0.01 -0.27694012,0.1615886 -0.36360678,0.4199219 -0.0916667,0.275 -0.0548568,0.7666276 0.0634766,0.8349609 0.06,0.035 0.0634635,0.035026 0.13346355,-0.014974 0.13,-0.09 0.27140625,-0.4999609 0.31640624,-0.9182942 0.0183334,-0.18 -0.004974,-0.2583073 -0.0983073,-0.3066406 -0.0166667,-0.01 -0.033099,-0.014974 -0.0514323,-0.014974 z m -1.33007813,0.1516927 c 0.10333333,0 0.20996093,0.1100131 0.2516276,0.2633464 0.0416667,0.1466667 0.034987,0.4566406 -0.0133463,0.6399739 -0.19833333,0.7616667 -0.77166666,1.1351042 -1,0.6484375 -0.035,-0.075 -0.0634766,-0.1585937 -0.0634766,-0.1835937 0,-0.115 -0.0616797,-0.056458 -0.18001302,0.171875 -0.07,0.1366667 -0.17828125,0.2999088 -0.23828125,0.3649089 -0.125,0.13 -0.22160157,0.1501822 -0.30826824,0.061849 -0.0983333,-0.096667 -0.099987,-0.1634766 -0.0283203,-0.8968099 0.0283334,-0.295 0.009909,-0.3817187 -0.0934245,-0.4283854 -0.20166667,-0.091667 0.0902083,-0.3116016 0.296875,-0.2249349 0.12666667,0.051667 0.14,0.1531641 0.0833333,0.6598307 -0.0683333,0.6266667 -0.0583984,0.7135417 0.0582682,0.546875 0.14999998,-0.2116666 0.338125,-0.7084114 0.41145833,-1.0800781 0.0233333,-0.12 0.0501693,-0.1817057 0.0901693,-0.2067057 0.095,-0.06 0.16509117,-0.069948 0.21842447,-0.029948 0.05,0.035 0.0498828,0.045039 0.004883,0.2900391 -0.0733333,0.4116667 -0.0798828,0.4933594 -0.0465495,0.6516927 0.0966667,0.4683333 0.51156251,0.2000521 0.55989583,-0.3632812 0.02,-0.2516667 -0.008242,-0.3985287 -0.11490885,-0.5751954 -0.0516667,-0.085 -0.0934245,-0.1717317 -0.0934245,-0.1917317 0,-0.055 0.11007813,-0.1181641 0.20507803,-0.1181642 z m -9.41503907,0.25 c -0.035,0 -0.085026,0.014961 -0.1516927,0.043294 -0.0916667,0.04 -0.12662762,0.070026 -0.1266276,0.110026 0,0.03 0.0183333,0.053385 0.0416667,0.053385 0.0716667,0 0.31342447,-0.1349219 0.3017578,-0.1699219 -0.008333,-0.025 -0.0301042,-0.03845 -0.0651042,-0.0367831 z m 5.31835938,0.00163 c 0.0816667,-0.00333 0.16998697,0.043464 0.23665365,0.1334635 0.0433333,0.06 0.0550521,0.1131641 0.0533854,0.2431641 -0.005,0.2666666 -0.10007812,0.4399349 -0.53841145,0.9749349 l -0.15332032,0.1868489 0.0748698,0.055013 c 0.0416667,0.03 0.20335937,0.1600391 0.36002604,0.2900391 0.29666666,0.2466667 0.42010416,0.3016146 0.5234375,0.2382812 0.0866667,-0.055 0.1233073,0.00835 0.0566406,0.09668 -0.095,0.1283334 -0.18324218,0.1767188 -0.3232422,0.1783854 -0.18499998,0.00167 -0.27674478,-0.055013 -0.62174478,-0.3883463 -0.16666667,-0.1616667 -0.32175782,-0.2932943 -0.34342449,-0.2932943 -0.04,0 -0.0549609,0.04987 -0.0849609,0.2832031 -0.035,0.2650001 -0.14822917,0.5533855 -0.26822917,0.6783855 -0.0783333,0.081667 -0.13355468,0.1165364 -0.18522135,0.1165364 -0.10333333,0 -0.11153646,-0.058346 -0.0332031,-0.2216797 0.14,-0.285 0.21848958,-0.8899739 0.20182292,-1.5566406 -0.0133333,-0.5083333 -0.0269271,-0.5364974 -0.18359375,-0.4098307 -0.12333334,0.1 -0.16983074,0.1065755 -0.24316405,0.031576 -0.0933334,-0.091667 0.008216,-0.2184375 0.2548828,-0.3151042 0.185,-0.071667 0.37839845,-0.019805 0.44173176,0.116862 0.05,0.11 0.0884505,0.5183724 0.0784505,0.8317057 -0.005,0.1966667 0.001407,0.2698568 0.0247396,0.2698568 0.07,0 0.48518228,-0.6098698 0.56184895,-0.8248698 0.0616667,-0.1733333 0.0566146,-0.4101041 -0.0117187,-0.5234375 -0.0483333,-0.083333 -0.050013,-0.096797 -0.0133463,-0.1334635 0.0383333,-0.038333 0.0850912,-0.058268 0.13509104,-0.058268 z m 1.85839843,0.3401692 c 0.16,0 0.17140625,0.041589 0.10807292,0.3782552 -0.13833333,0.7333334 -0.0998958,1.0666407 0.10677083,0.9316407 0.14333334,-0.095 0.16824219,0.068177 0.0315755,0.2148437 -0.065,0.071667 -0.11653645,0.099987 -0.19986978,0.1116537 -0.1,0.013333 -0.12332032,0.00526 -0.19498699,-0.066406 -0.075,-0.075 -0.0833333,-0.098425 -0.0833333,-0.2600911 0,-0.096667 -0.0100652,-0.1767579 -0.0250651,-0.1767579 -0.0133333,0 -0.0782292,0.1117058 -0.14322917,0.2483724 -0.13666666,0.2866667 -0.23665365,0.4167579 -0.36165365,0.4684245 -0.0483333,0.021667 -0.10341146,0.036458 -0.1217448,0.036458 -0.075,0 -0.1717578,-0.071458 -0.21842446,-0.1614584 -0.0566667,-0.1066666 -0.0498568,-0.321888 0.0218099,-0.726888 0.06,-0.34 0.053138,-0.4282292 -0.0335287,-0.5182292 l -0.0716146,-0.076497 0.0683594,-0.068359 c 0.0966667,-0.096667 0.26675782,-0.1166667 0.34342448,-0.041667 0.0716667,0.073333 0.0766797,0.3131901 0.0133463,0.7281901 -0.025,0.1566666 -0.0468359,0.3401953 -0.0485026,0.4085286 -0.001667,0.105 0.005261,0.1215886 0.0585938,0.1282553 0.125,0.018333 0.3214974,-0.4001303 0.49316406,-1.0501303 0.115,-0.43 0.15516927,-0.508138 0.25683596,-0.5081383 z m -7.98404948,0.033203 c -0.09,0.00167 -0.32799218,0.098399 -0.79199218,0.3167318 -0.18516667,0.088333 -0.4036849,0.1848047 -0.48535157,0.2164714 -0.28083333,0.1083333 -0.72753906,0.3351171 -0.72753906,0.3701171 0,0.075 0.0967526,0.041602 0.80891927,-0.2750651 0.15566667,-0.07 0.3153099,-0.1433724 0.35514323,-0.165039 0.04,-0.021667 0.15551042,-0.06974 0.25651042,-0.1080729 0.3055,-0.115 0.62792969,-0.281823 0.62792969,-0.326823 0,-0.018333 -0.0134531,-0.02832 -0.0436198,-0.0283203 z m 2.93066407,0.1298821 c -0.03,0.00167 -0.0633333,0.015039 -0.0833333,0.040039 -0.02,0.023333 -0.17505208,0.1416797 -0.34505208,0.2633463 -0.17,0.1216667 -0.49346353,0.3516797 -0.71679688,0.5133464 -0.22499999,0.16 -0.5831771,0.410013 -0.79817707,0.555013 -0.87166668,0.5866667 -0.86263022,0.579974 -0.86263022,0.639974 0,0.073333 0.0884349,0.031862 0.37076824,-0.1748047 0.16,-0.115 0.56848958,-0.4033464 0.91015625,-0.6383464 0.34,-0.235 0.70493488,-0.4900651 0.80826823,-0.5667317 0.1033333,-0.076667 0.3033203,-0.2149349 0.44498697,-0.3082683 0.26333333,-0.1766666 0.32324218,-0.2283724 0.3232422,-0.290039 0,-0.023333 -0.023099,-0.035195 -0.0514323,-0.0335286 z m 15.11165365,1.2200521 c -0.0733333,0.026667 -0.0550781,0.071576 0.0449219,0.1149089 0.0516667,0.02 0.10169271,0.050065 0.11002605,0.066732 0.01,0.015 0.11160153,0.07513 0.2249349,0.1334636 0.22333331,0.1133333 0.25656246,0.1184114 0.26822916,0.038411 0.005,-0.04 -0.0548437,-0.085247 -0.2981771,-0.211914 -0.19333331,-0.1016667 -0.32160155,-0.1532683 -0.34993491,-0.1416015 z m -6.47005208,0.1383464 c 0.0733333,0.00167 0.1415495,0.036575 0.17154946,0.1149088 0.0333333,0.09 0.0183594,0.1650912 -0.0566406,0.2600912 -0.115,0.145 -0.3766276,0.049948 -0.3766276,-0.1367188 0,-0.145 0.13838541,-0.2382812 0.26171874,-0.2382812 z m 1.82845051,0.2851562 c 0.0533333,0 0.0999479,0.016706 0.11328125,0.040039 0.015,0.025 -1.1718e-4,0.1780989 -0.0367839,0.3847656 -0.0783333,0.4433333 -0.0833463,0.7567188 -0.0133463,0.8450521 0.0516667,0.063333 0.0516536,0.063307 0.1533203,0.014974 0.065,-0.031667 0.10996095,-0.038151 0.1266276,-0.021484 0.0433333,0.043333 -0.003268,0.1666797 -0.0999349,0.2633464 -0.0716667,0.071667 -0.11165365,0.089844 -0.19498699,0.089844 -0.13,0 -0.2181901,-0.059896 -0.26985676,-0.1848958 l -0.0416667,-0.098307 -0.0602214,0.1266276 c -0.0916667,0.19 -0.16493488,0.2817448 -0.26660155,0.3300781 v -0.00195 c -0.16333333,0.078333 -0.30175781,0.051953 -0.42675781,-0.08138 -0.23666667,-0.2483333 -0.20648437,-0.8450781 0.061849,-1.2467448 0.18666665,-0.2783333 0.43837239,-0.4051432 0.62337239,-0.3134765 l 0.0882162,0.044922 0.0768229,-0.09668 c 0.06,-0.075 0.0966667,-0.094726 0.16666667,-0.094727 z m -0.45182291,0.3066406 c -0.24166667,0.015 -0.4683724,0.5848438 -0.3733724,1.0481771 0.0216667,0.098333 0.0535417,0.1683594 0.0885417,0.1933594 0.0883333,0.061667 0.1748568,0.00177 0.26985677,-0.1848958 0.095,-0.1883334 0.18164063,-0.5767318 0.18164063,-0.8167318 0.001667,-0.1483333 -0.006484,-0.1732943 -0.063151,-0.2099609 -0.0333333,-0.023333 -0.0685156,-0.031615 -0.1035157,-0.029948 z m -1.29492187,0.154948 c 0.0366666,0.00167 0.065039,0.00999 0.0817057,0.02832 0.0516667,0.063333 0.0865886,0.3666666 0.0865886,0.75 0.001667,0.815 -0.15332032,1.4116406 -0.44498699,1.7233072 -0.0933333,0.1 -0.14848958,0.1367188 -0.20182291,0.1367188 -0.095,0 -0.11984375,-0.061628 -0.0481771,-0.1266276 0.22,-0.1983333 0.37492187,-0.8235547 0.37825522,-1.5185547 0.001667,-0.47 -0.0198177,-0.6265234 -0.10481772,-0.7281901 -0.0383333,-0.045 -0.0617188,-0.09849 -0.0533854,-0.1184896 0.03,-0.08 0.19830728,-0.148151 0.3066406,-0.146484 z m -0.9749349,0.2666015 c 0.0933333,0 0.1381901,0.015143 0.18652343,0.063477 0.10166667,0.1016667 0.10992189,0.2297265 0.0449219,0.6363932 -0.07,0.4333333 -0.0716406,0.5216927 -0.014974,0.5683594 0.0366667,0.03 0.0567057,0.028568 0.1233724,-0.00977 0.11,-0.063333 0.15657552,-0.058359 0.15657552,0.014974 0,0.096667 -0.0998307,0.2350261 -0.2014974,0.2766927 -0.13666667,0.058333 -0.21822917,0.048177 -0.30989584,-0.035156 -0.12166666,-0.11 -0.1484245,-0.2998698 -0.0934245,-0.6582031 0.075,-0.4816667 0.0766536,-0.4919011 0.0283203,-0.5319011 -0.085,-0.07 -0.1835026,0.076953 -0.4235026,0.6269531 -0.0633333,0.1483334 -0.1297526,0.3647136 -0.16308594,0.5397136 -0.0316667,0.16 -0.0750521,0.3084114 -0.0950521,0.3300781 -0.0533333,0.051667 -0.12519532,0.046654 -0.20019532,-0.013346 l -0.063151,-0.051432 0.0498047,-0.3333333 c 0.0266667,-0.1816667 0.0551433,-0.4617839 0.0634766,-0.6201172 0.015,-0.2866667 0.0150652,-0.2884766 -0.0582682,-0.3551433 -0.0516667,-0.048333 -0.0683073,-0.084753 -0.0566406,-0.1214192 0.0166667,-0.055 0.16320314,-0.1383464 0.24153647,-0.1383464 0.14166667,0 0.21847658,0.1516667 0.18847655,0.375 -0.01,0.075 -0.01,0.1363932 0,0.1363932 0.008333,0 0.0717188,-0.1132552 0.13671877,-0.2532552 0.15499998,-0.3233333 0.2816276,-0.4466145 0.45996086,-0.4466146 z M 23.609375,24.7675825 c 0.0216667,-0.00333 0.0434766,-0.00333 0.0634766,0 0.0283333,0.005 0.0551172,0.015274 0.0784505,0.030273 0.0983333,0.065 0.0964193,0.2499349 -0.003581,0.3499349 -0.0883333,0.088333 -0.1983724,0.091432 -0.29003905,0.00977 -0.10500002,-0.093333 -0.11328127,-0.1848307 -0.0299479,-0.2848307 0.05,-0.06 0.11664063,-0.095143 0.18164085,-0.1051433 z m -0.81640625,0.2200521 c 0.0216667,0.00167 0.0399349,0.0066 0.0582682,0.016602 0.0583333,0.03 0.058164,0.035156 0.0348307,0.4518229 -0.0133333,0.2333333 -0.023112,0.6465495 -0.023112,0.9215495 0,0.665 0.0383073,0.7601042 0.26497395,0.6484375 0.12333333,-0.061667 0.15169271,-0.053372 0.15169271,0.043294 0,0.1 -0.17501303,0.2650782 -0.30501303,0.2884115 -0.135,0.025 -0.28001302,-0.048463 -0.34667968,-0.1751302 -0.11166667,-0.215 -0.13351562,-0.7266667 -0.0618489,-1.4166667 0.0516667,-0.4916666 0.0316927,-0.5332422 -0.0983073,-0.1982422 -0.0516667,0.1366667 -0.17832032,0.6316927 -0.36165364,1.4016927 -0.12166668,0.5216667 -0.20825521,0.7014974 -0.33658855,0.7014974 -0.12833333,0 -0.24661458,-0.2547395 -0.32161458,-0.6914062 -0.0316667,-0.1816667 -0.0383464,-0.8033724 -0.0133463,-1.1650391 l 0.0166015,-0.2317708 -0.055013,0.061523 c -0.085,0.098333 -0.15838542,0.3219662 -0.34505208,1.0569662 -0.22,0.8766666 -0.28489584,1.0732812 -0.39322917,1.1966146 -0.095,0.1083333 -0.2165625,0.1547526 -0.30989583,0.1214192 -0.0816667,-0.031667 -0.0750521,-0.064922 0.0299479,-0.1699218 0.12833334,-0.1283334 0.21644532,-0.3714714 0.39811199,-1.0914714 0.17,-0.6766667 0.29169271,-1.0117318 0.44335936,-1.2333984 0.15833334,-0.23 0.39346355,-0.3568099 0.50846355,-0.2718099 0.05,0.036667 0.0499349,0.056862 0.0166015,0.5751953 -0.0266667,0.415 -0.0282161,0.610026 -0.004883,0.860026 0.0333333,0.3533334 0.0515885,0.4433594 0.0865885,0.4433594 0.0133333,0 0.0300781,-0.026888 0.0384115,-0.060221 0.006667,-0.033333 0.0617448,-0.2849349 0.1217448,-0.5582682 0.12333332,-0.57 0.2097526,-0.8582682 0.3297526,-1.0999349 0.12666667,-0.26 0.33188802,-0.4367969 0.4768883,-0.4251304 z m 2.66666667,0.060221 c 0.14833334,0 0.15333334,0.023307 0.0833333,0.4316407 -0.0333333,0.205 -0.0634766,0.4647526 -0.0634766,0.5797526 -0.001667,0.1783333 0.005013,0.216927 0.055013,0.266927 0.0566667,0.055 0.0599089,0.054766 0.15657553,0.00977 0.08,-0.038333 0.10507812,-0.04168 0.12174478,-0.013346 0.0466667,0.075 -0.0450781,0.2501823 -0.16341145,0.3118489 -0.16333333,0.085 -0.30839845,0.031484 -0.4000651,-0.1451823 l -0.0514323,-0.098307 -0.0517578,0.1217447 c -0.07,0.16 -0.18496094,0.2948438 -0.29329427,0.3398438 -0.165,0.068333 -0.27828125,0.038555 -0.40494792,-0.1064453 -0.11666667,-0.1316667 -0.15661458,-0.2666016 -0.15494792,-0.5166016 0.001667,-0.4266666 0.24145834,-0.8799739 0.53645834,-1.0149739 0.13333333,-0.06 0.2185677,-0.061797 0.32356772,-0.00846 0.075,0.04 0.0830729,0.040078 0.1080729,-0.00326 0.0716667,-0.12 0.11690105,-0.1549479 0.19856779,-0.1549479 z m -0.4202474,0.3131511 c -0.14166667,-0.00667 -0.2947526,0.1799218 -0.37141927,0.4615885 -0.06,0.2216667 -0.046888,0.6202214 0.023112,0.726888 0.155,0.2383334 0.40510417,-0.1516666 0.48177083,-0.75 0.035,-0.2833333 0.0184245,-0.3834635 -0.0732422,-0.4251302 -0.0183333,-0.00833 -0.0385547,-0.013346 -0.0602214,-0.0133463 z m -1.328125,0.1601562 c 0.0833333,0.00667 0.098138,0.019909 0.13313802,0.1149089 0.0516667,0.1466666 0.0552084,1.105013 0.005208,1.3883463 -0.085,0.4733334 -0.28359373,0.9215755 -0.4752604,1.0732422 -0.0866667,0.068333 -0.19639323,0.076563 -0.21972657,0.018229 -0.008333,-0.025 0.023125,-0.08319 0.078125,-0.1448568 0.19333334,-0.2133333 0.3116276,-0.6898828 0.33496094,-1.3382161 0.02,-0.5416667 -0.0147527,-0.7950391 -0.12141927,-0.8733724 -0.0583333,-0.043333 -0.0666276,-0.061888 -0.0432943,-0.101888 0.045,-0.075 0.20326822,-0.1447266 0.30826858,-0.1363931 z m -7.05598958,1.0983073 c -0.0625,0 -0.30151302,0.2414583 -0.28417969,0.2864583 0.0266667,0.07 0.1,0.036732 0.22916667,-0.099935 0.1275,-0.1366667 0.14267968,-0.1865235 0.055013,-0.1865233 z m 16.1624349,1.2233073 c -0.0333333,0.00833 -0.0764974,0.04487 -0.0764974,0.07487 0,0.013333 0.049987,0.078516 0.11165365,0.1451823 0.11833333,0.1283333 0.15179687,0.1430469 0.17513022,0.08138 0.0133333,-0.036667 -0.1216797,-0.263138 -0.18001304,-0.2998047 -0.008333,-0.00333 -0.0186068,-0.00329 -0.0302734,-0.00163 z m -12.6015625,1.6650391 c -0.0133333,-0.00333 -0.0282552,-0.00178 -0.0449219,0.00488 -0.0483334,0.018333 -0.21498698,0.4418229 -0.19498698,0.4934896 0.035,0.093333 0.10313801,0.021406 0.17480468,-0.1835938 0.0266667,-0.081667 0.0669141,-0.1730859 0.0869141,-0.2047526 0.03,-0.05 0.0148568,-0.100026 -0.0218099,-0.110026 z m 19.20345052,0.7083333 a 0.7242000001,3.450666669 16.23 0 0 -1.58691405,3.1149089 0.7242000001,3.450666669 16.23 0 0 -0.26822917,3.5149739 0.7242000001,3.450666669 16.23 0 0 1.66015623,-3.110026 0.7242000001,3.450666669 16.23 0 0 0.26822917,-3.5166016 0.7242000001,3.450666669 16.23 0 0 -0.0732422,-0.00326 z m -11.07161459,1.9348958 c -0.0566667,-0.00333 -0.12015625,0.011706 -0.20182291,0.040039 -0.0583333,0.021667 -0.10677084,0.043372 -0.1484375,0.081706 -0.0416667,0.038333 -0.0782422,0.091719 -0.11490885,0.1783854 -0.075,0.1716667 -0.15341145,0.4700131 -0.28841147,1.0133464 -0.16166663,0.6516667 -0.47307292,1.7363802 -0.69140623,2.4147136 -0.11666669,0.3616666 -0.21182292,0.6817968 -0.28515627,0.9667968 -0.0716667,0.285 -0.1233203,0.5333333 -0.1533203,0.75 -0.0283333,0.2166667 -0.0367318,0.399974 -0.0250651,0.5566407 0.0133333,0.155 0.0466015,0.2833854 0.0999349,0.3867187 0.05,0.096667 0.10503907,0.185013 0.16503907,0.2633464 0.06,0.078333 0.12498698,0.1467057 0.19498698,0.2067057 0.07,0.06 0.14493489,0.1100651 0.2249349,0.1500651 0.08,0.041667 0.16358072,0.07306 0.25358072,0.094727 0.0883333,0.021667 0.18161458,0.033489 0.27994792,0.035156 0.0983333,0.00333 0.19997396,-0.00352 0.30664063,-0.020182 0.215,-0.033333 0.44665367,-0.1032552 0.69498697,-0.2115886 0.11166668,-0.048333 0.2198698,-0.1083854 0.3248698,-0.1783854 0.105,-0.068333 0.20667968,-0.1483594 0.30501301,-0.235026 0.0983333,-0.086667 0.19194009,-0.1815365 0.28027345,-0.2832031 0.0883333,-0.1016667 0.1713802,-0.2099089 0.24804687,-0.3232422 0.0783333,-0.1133334 0.14858073,-0.231849 0.21191407,-0.3535157 0.0633333,-0.1216666 0.11996093,-0.2466666 0.16829426,-0.375 0.0483333,-0.1266666 0.0865365,-0.2564322 0.11653647,-0.3847656 0.0316666,-0.13 0.051849,-0.259974 0.0618489,-0.389974 0.0133333,-0.1683333 0.0165105,-0.3234244 0.006511,-0.4684244 -0.01,-0.145 -0.0317708,-0.2767709 -0.0651042,-0.3984375 -0.0333333,-0.1216667 -0.0764713,-0.2297917 -0.13313801,-0.328125 -0.0566667,-0.098333 -0.12507814,-0.1850912 -0.20507814,-0.2600912 -0.0766667,-0.071667 -0.17010416,-0.1285416 -0.2734375,-0.171875 -0.10333333,-0.045 -0.21666666,-0.073255 -0.33333333,-0.086589 -0.11666667,-0.015 -0.2349349,-0.013125 -0.34993488,0.00521 -0.11333337,0.016667 -0.22490887,0.051562 -0.3232422,0.1015625 -0.17,0.088333 -0.32851562,0.1399089 -0.35351562,0.1149089 -0.025,-0.025 0.0667448,-0.4015886 0.20507812,-0.8365886 0.13833333,-0.435 0.27346355,-0.9834635 0.30013021,-1.2167969 0.0216667,-0.1866666 0.0266667,-0.3015625 0,-0.3932291 -0.015,-0.046667 -0.0366927,-0.088216 -0.0683594,-0.1298828 -0.0333333,-0.041667 -0.0749219,-0.085091 -0.1282552,-0.1350912 -0.105,-0.096667 -0.17666667,-0.1515495 -0.25,-0.1715495 -0.0183333,-0.005 -0.0366406,-0.00846 -0.0566411,-0.00846 z m -12.87402343,0.5533855 c -0.10583334,0 -0.19255209,0.00987 -0.26171875,0.033203 -0.069,0.025 -0.12056771,0.061614 -0.15690105,0.1132812 -0.0363333,0.053333 -0.0571198,0.1235807 -0.0644531,0.2119141 -0.007333,0.086667 -0.001065,0.1932812 0.0166016,0.3216145 0.015,0.1116667 0.0190911,0.2150651 0.0100911,0.3167318 -0.008833,0.1016667 -0.0308828,0.2016406 -0.0673828,0.3066407 -0.0365,0.1033333 -0.0872813,0.2098307 -0.15494791,0.3264974 -0.0675,0.1166666 -0.15173959,0.2399218 -0.25390625,0.3782551 -0.0598333,0.081667 -0.17587501,0.2000391 -0.31770834,0.3317058 -0.142,0.1316666 -0.30951302,0.2768229 -0.47167968,0.4101562 -0.16233334,0.1316667 -0.31992188,0.2516667 -0.44075521,0.3333334 -0.12083334,0.083333 -0.20547396,0.1283593 -0.22330729,0.110026 -0.0146667,-0.013333 -0.0055,-0.1234505 0.0208333,-0.2867839 0.0265,-0.1633333 0.0703333,-0.3799479 0.125,-0.6132812 0.0548333,-0.2333333 0.104625,-0.4982422 0.140625,-0.7399089 0.036,-0.2399999 0.0585938,-0.4532942 0.0585938,-0.5849609 0,-0.21 -0.009258,-0.3367708 -0.0517578,-0.4401042 -0.0211667,-0.051667 -0.0507969,-0.096563 -0.0917969,-0.1432291 -0.041,-0.046667 -0.0933229,-0.093398 -0.16015625,-0.1500651 -0.0681667,-0.056667 -0.12484635,-0.1017578 -0.18001302,-0.1350912 -0.055,-0.033333 -0.10809636,-0.056615 -0.16959635,-0.071615 -0.123,-0.03 -0.2787474,-0.026758 -0.5452474,-0.010091 -0.16466667,0.01 -0.30831511,0.030182 -0.4313151,0.061849 -0.12283334,0.03 -0.22497396,0.069753 -0.30664063,0.1214193 -0.0815,0.05 -0.14211719,0.1116406 -0.18261719,0.1816406 -0.0406667,0.071667 -0.0608724,0.1534505 -0.0608724,0.2451172 0,0.075 0.0244297,0.1482161 0.0654297,0.2132161 0.041,0.065 0.0984036,0.1201172 0.16373697,0.1617839 0.0651667,0.043333 0.13826303,0.071745 0.21126303,0.080078 0.073,0.01 0.14644531,-1.95e-4 0.21061197,-0.033529 0.0871667,-0.046667 0.15628646,-0.078099 0.21028646,-0.093099 0.0538333,-0.013333 0.0925052,-0.011615 0.11783854,0.011719 0.0251667,0.021667 0.0377292,0.063294 0.0390625,0.1266276 0.001333,0.063333 -0.008367,0.1482161 -0.0263672,0.2548828 -0.0618333,0.3683333 -0.16210156,0.7832552 -0.2874349,1.2115885 -0.12516666,0.4266667 -0.27565885,0.8651954 -0.43782552,1.2835287 -0.16216667,0.4183333 -0.33644792,0.8133203 -0.50911458,1.1533203 -0.0863333,0.17 -0.1721849,0.3265495 -0.2561849,0.4632161 -0.0838333,0.1383334 -0.16580729,0.2565235 -0.24414062,0.3531901 -0.0926667,0.115 -0.15702605,0.2186329 -0.19335938,0.3069662 -0.0363333,0.09 -0.044724,0.1665234 -0.0253906,0.2281901 0.0193333,0.061667 0.0669427,0.1099349 0.14127604,0.1416016 0.0743333,0.031667 0.17569531,0.048503 0.30436198,0.048503 0.0593333,0 0.12044271,-0.00836 0.18294271,-0.026693 0.0626667,-0.018333 0.12657291,-0.043451 0.19140625,-0.078451 0.12966666,-0.068333 0.26329426,-0.1700912 0.39746093,-0.3017578 0.13416667,-0.1316667 0.26854948,-0.2931511 0.40071615,-0.4798178 0.132,-0.1883333 0.26159115,-0.4016406 0.38509114,-0.6399739 0.14816667,-0.285 0.25398438,-0.4682812 0.33398438,-0.5716146 0.04,-0.051667 0.0738646,-0.083346 0.10286458,-0.09668 0.0288333,-0.015 0.0531953,-0.011823 0.0751953,0.00651 0.0643333,0.053333 0.2806276,0.3950912 0.48079427,0.7600912 0.12233333,0.2233333 0.23276302,0.4116146 0.33626302,0.5716146 0.1035,0.1583333 0.20039844,0.2881901 0.29589843,0.3948567 0.0956667,0.1066667 0.19039584,0.1901693 0.2890625,0.256836 0.0986667,0.066667 0.2016198,0.1166146 0.31445313,0.1549479 0.10666667,0.038333 0.20610677,0.06349 0.30110677,0.076823 0.0951667,0.013333 0.18592969,0.014922 0.27376302,0.00326 0.0878333,-0.011667 0.17297136,-0.03332 0.25813802,-0.069987 0.085,-0.035 0.17016146,-0.085182 0.25716146,-0.1451823 0.0806667,-0.056667 0.14129167,-0.125026 0.18229167,-0.1933593 0.0411667,-0.07 0.062151,-0.1414584 0.063151,-0.203125 10e-4,-0.061667 -0.0179583,-0.1166537 -0.0572917,-0.1533203 -0.0395,-0.036667 -0.0991953,-0.054922 -0.17936198,-0.044922 -0.0625,0.00667 -0.14269531,-0.00181 -0.22102864,-0.02181 -0.0783333,-0.02 -0.15477084,-0.051549 -0.2109375,-0.088216 -0.0516667,-0.033333 -0.16390104,-0.1568229 -0.30273438,-0.326823 -0.13883333,-0.1683333 -0.30420833,-0.3833072 -0.46354166,-0.5983073 -0.15933334,-0.2133333 -0.31261459,-0.4283073 -0.42578125,-0.5983073 -0.113,-0.17 -0.18619792,-0.295039 -0.18619792,-0.3317057 0,-0.02 0.0895573,-0.1049739 0.23372396,-0.2233073 0.14433333,-0.1183333 0.34366666,-0.2716406 0.5625,-0.4316406 0.28666666,-0.2083333 0.53366406,-0.4082292 0.74316406,-0.6015625 0.20966667,-0.1933333 0.38189583,-0.3817318 0.51822917,-0.5667318 0.13633333,-0.1833333 0.2368776,-0.3649219 0.30371093,-0.5449219 0.0335,-0.091667 0.0580365,-0.1818099 0.0748698,-0.2718099 0.0168333,-0.09 0.0255417,-0.1801432 0.0260417,-0.2718098 8.3334e-4,-0.11 -0.0237161,-0.2199089 -0.0673828,-0.3232422 -0.0436667,-0.1033334 -0.10598177,-0.1998698 -0.1813151,-0.2832031 -0.0751667,-0.083333 -0.1629948,-0.151862 -0.25716146,-0.2001954 -0.094,-0.048333 -0.19427084,-0.076497 -0.29427084,-0.076497 z m 10.48567708,0.1933593 c -0.1,-0.00333 -0.20509115,0.00658 -0.30175781,0.031576 -0.0983333,0.023333 -0.18838542,0.061654 -0.26171875,0.1116536 -0.07,0.05 -0.12483074,0.1217057 -0.15983072,0.2067057 -0.0366667,0.085 -0.055013,0.1815365 -0.055013,0.2832031 0,0.1 0.0164323,0.2034245 0.0514323,0.3017579 0.035,0.096667 0.0884896,0.1883463 0.16015625,0.2633463 0.0566667,0.061667 0.11321615,0.1082292 0.17154948,0.1432292 0.06,0.035 0.11997395,0.056771 0.18164062,0.065104 0.0633333,0.00833 0.12856771,0.00495 0.19856771,-0.011719 0.0683333,-0.016667 0.14139322,-0.044922 0.21972655,-0.086589 0.11166667,-0.06 0.20502605,-0.1401041 0.27669272,-0.2317708 0.0716667,-0.091667 0.12339843,-0.1947656 0.1500651,-0.3014323 0.0266667,-0.1066667 0.0301693,-0.2153125 0.006836,-0.3203125 -0.0216667,-0.1033333 -0.0701432,-0.2014974 -0.1468099,-0.2848307 -0.0483333,-0.055 -0.12003905,-0.096667 -0.20670572,-0.125 -0.085,-0.028333 -0.18316406,-0.043255 -0.28483083,-0.0449215 z m -4.16015625,1.8916016 c -0.12166667,0 -0.24009115,0.031667 -0.34342448,0.083333 -0.10333334,0.051667 -0.19317709,0.1215755 -0.25651042,0.1982422 -0.065,0.075 -0.10347657,0.1583594 -0.10514323,0.2350261 -0.001667,0.038333 0.006771,0.073437 0.0234375,0.1067708 0.0183333,0.033333 0.0465885,0.063216 0.0865885,0.088216 0.0466667,0.026667 0.0749219,0.086836 0.0865886,0.1735026 0.0116667,0.086667 0.006979,0.2030599 -0.0130208,0.3447266 -0.0216667,0.1433333 -0.0586458,0.3135026 -0.11197916,0.5068359 -0.0533333,0.1950001 -0.12138022,0.4132813 -0.20638022,0.654948 -0.28666667,0.8166666 -0.43022135,1.2285026 -0.47688802,1.4651692 -0.0233333,0.1183334 -0.0215886,0.1916667 -0.003255,0.25 0.02,0.058333 0.0583594,0.1031641 0.11002605,0.1598308 0.0616667,0.068333 0.13842446,0.1168489 0.21842446,0.1451822 0.0816667,0.028333 0.16666667,0.038281 0.25,0.029948 0.0833333,-0.01 0.16307292,-0.038333 0.23307294,-0.083333 0.0683333,-0.045 0.12670571,-0.1085156 0.16503905,-0.186849 0.0633333,-0.1316666 0.31526041,-0.6547526 0.55859375,-1.1630859 0.12166666,-0.255 0.27639323,-0.5352734 0.4280599,-0.7802734 0.15166666,-0.245 0.2985677,-0.4565365 0.40690103,-0.5748698 0.0966667,-0.105 0.16981772,-0.1848698 0.22981772,-0.2415365 0.0616667,-0.058333 0.10832031,-0.095234 0.15332031,-0.1152344 0.045,-0.018333 0.0883463,-0.021719 0.13834635,-0.011719 0.0516667,0.01 0.11014324,0.031849 0.18847657,0.061849 0.075,0.03 0.13167968,0.049857 0.18001302,0.061523 0.0483333,0.011667 0.0867057,0.013542 0.1233724,0.00521 0.0366667,-0.01 0.0697786,-0.031771 0.1064453,-0.065104 0.0383333,-0.035 0.0800911,-0.081523 0.13509115,-0.1448568 0.07,-0.081667 0.12348958,-0.161901 0.16015625,-0.2402343 0.0366667,-0.08 0.0549349,-0.1566927 0.0582682,-0.2350261 0.003333,-0.078333 -0.0116277,-0.1566536 -0.0432943,-0.2366536 -0.03,-0.08 -0.0785547,-0.1598698 -0.1435547,-0.2415365 -0.075,-0.095 -0.15320311,-0.1618229 -0.24153645,-0.2018229 -0.0866667,-0.038333 -0.1798698,-0.049909 -0.28320311,-0.031576 -0.10333335,0.016667 -0.2152474,0.061719 -0.33691407,0.1367188 -0.12166667,0.073333 -0.2550651,0.1766015 -0.4000651,0.3082682 -0.10500002,0.096667 -0.17656252,0.1515885 -0.2265625,0.1699219 -0.0233334,0.00833 -0.0432682,0.00674 -0.0582682,-0.00326 -0.015,-0.00833 -0.0267839,-0.026719 -0.0367839,-0.053385 -0.025,-0.07 -0.0664193,-0.1400391 -0.12141927,-0.2067057 -0.055,-0.066667 -0.1216927,-0.1298959 -0.19335936,-0.1848959 -0.0716667,-0.053333 -0.1483073,-0.099844 -0.2233073,-0.1315104 -0.075,-0.033333 -0.15016927,-0.051758 -0.21516932,-0.051758 z m 3.54654949,0.00326 c -0.0716667,0.00167 -0.14321615,0.011693 -0.21321615,0.026693 -0.13833334,0.031667 -0.26832032,0.088412 -0.36165366,0.1634115 -0.0466667,0.038333 -0.084987,0.079922 -0.11165365,0.1282552 -0.0266667,0.046667 -0.0416667,0.098359 -0.0416667,0.1516927 0,0.05 0.009987,0.1015625 0.0283203,0.1432292 0.0166667,0.043333 0.0400651,0.078385 0.0667318,0.095052 0.0416667,0.025 0.0684114,0.063411 0.0800781,0.1217448 0.0116667,0.058333 0.006406,0.1348697 -0.0169271,0.2415364 -0.045,0.2116667 -0.16161458,0.5352344 -0.36328125,1.0319011 -0.11833333,0.2933333 -0.21320313,0.5516536 -0.28320312,0.7783203 -0.0716667,0.2266667 -0.11989585,0.423138 -0.14322916,0.5914713 -0.025,0.1683334 -0.026836,0.3100912 -0.006836,0.4267578 0.02,0.1166667 0.0632552,0.2099089 0.12825521,0.2815756 0.0883333,0.098333 0.18352865,0.1751822 0.28352864,0.2285156 0.0983334,0.053333 0.20160156,0.084805 0.30826823,0.091471 0.10833333,0.00833 0.2183724,-0.00659 0.33170574,-0.044922 0.11166666,-0.038333 0.22838541,-0.099896 0.34505208,-0.1848959 0.0733333,-0.053333 0.13497397,-0.1234114 0.18164062,-0.2050781 0.045,-0.08 0.074961,-0.170013 0.084961,-0.2633464 0.006667,-0.07 0.009805,-0.1234114 0.008138,-0.1634114 -0.001667,-0.041667 -0.009987,-0.069844 -0.0283203,-0.089844 -0.0166667,-0.02 -0.0433333,-0.031745 -0.0833333,-0.038411 -0.0383333,-0.00667 -0.0898698,-0.00846 -0.15820312,-0.00846 -0.0983333,0 -0.17175782,-0.00833 -0.21842448,-0.041667 -0.0233333,-0.016667 -0.0398437,-0.039987 -0.0481771,-0.069987 -0.01,-0.03 -0.011836,-0.068203 -0.006836,-0.1165365 0.0116667,-0.096667 0.0501172,-0.2299609 0.12011719,-0.4182943 0.07,-0.1883333 0.17009115,-0.4299088 0.30175781,-0.7399088 0.13166667,-0.3066667 0.23485677,-0.5635677 0.31152344,-0.7819011 0.0783333,-0.2166666 0.1298698,-0.3949609 0.15820313,-0.5432942 0.0283333,-0.1483334 0.0316797,-0.2665756 0.0133463,-0.3649089 -0.0166667,-0.098333 -0.0565365,-0.1751953 -0.11653646,-0.241862 -0.0416667,-0.046667 -0.0933984,-0.083034 -0.1500651,-0.1097005 -0.0583333,-0.028333 -0.12144532,-0.048516 -0.18977865,-0.061849 -0.0666667,-0.011667 -0.13861979,-0.01668 -0.21028629,-0.013346 z m 9.33854166,0 c -0.02,0 -0.0401823,2.083e-4 -0.061849,0.00521 -0.04,0.00667 -0.078125,0.02155 -0.11979167,0.046549 -0.04,0.026667 -0.0819141,0.063281 -0.12858072,0.1132812 -0.0916667,0.1 -0.19976563,0.2534375 -0.34309896,0.4817709 -0.14333334,0.23 -0.3216406,0.5348177 -0.55664064,0.938151 -0.1633333,0.2783333 -0.3301953,0.5401042 -0.49186196,0.7734375 -0.16166667,0.2333333 -0.31670574,0.4365625 -0.45670574,0.6015625 -0.14,0.1633333 -0.26490885,0.2883203 -0.36490885,0.3616536 -0.05,0.036667 -0.0932161,0.059987 -0.12988281,0.069987 -0.0366667,0.00833 -0.0649609,0.0034 -0.0849609,-0.016602 -0.015,-0.013333 0.0230599,-0.1466016 0.0947266,-0.3499349 0.0733333,-0.2033333 0.18001302,-0.4768099 0.30501302,-0.7718099 0.13666666,-0.3233334 0.2435677,-0.5964584 0.3235677,-0.828125 0.08,-0.23 0.13153646,-0.4201172 0.15820313,-0.5784505 0.0266667,-0.1583334 0.0266276,-0.284974 0.001628,-0.389974 -0.0233333,-0.105 -0.0732292,-0.1884636 -0.14322916,-0.2584635 -0.06,-0.06 -0.13667969,-0.1066407 -0.22167969,-0.139974 -0.0833333,-0.033333 -0.1768099,-0.051641 -0.2718099,-0.056641 -0.095,-0.005 -0.19316406,0.00499 -0.28483073,0.02832 -0.0916667,0.023333 -0.17988283,0.061901 -0.2548828,0.1152344 -0.06,0.041667 -0.10501303,0.083294 -0.13834637,0.1266276 -0.0333333,0.043333 -0.0535156,0.088346 -0.0618489,0.1383463 -0.008333,0.048333 -0.001693,0.099909 0.014974,0.1565756 0.0183333,0.056667 0.0485026,0.1181901 0.0901693,0.1865234 0.0233334,0.038333 0.0398828,0.076745 0.0465495,0.1217448 0.006667,0.046667 0.003281,0.098372 -0.0117187,0.1650391 -0.0283333,0.135 -0.10173177,0.3267187 -0.23339844,0.6367187 -0.30333333,0.7166667 -0.48157551,1.1682813 -0.57324218,1.4882813 -0.045,0.16 -0.0682031,0.2884375 -0.0748698,0.3984375 -0.006667,0.1116666 0.004987,0.2064322 0.0283203,0.3014323 0.0333333,0.1316666 0.074974,0.2285546 0.13997396,0.3102213 0.065,0.08 0.15335937,0.1434115 0.2766927,0.2050781 0.0833333,0.041667 0.1565625,0.07151 0.2265625,0.089844 0.0716667,0.018333 0.13833334,0.024857 0.20833334,0.019857 0.07,-0.005 0.14351561,-0.02306 0.22851563,-0.05306 0.0833333,-0.031667 0.17645832,-0.075169 0.28645833,-0.1318359 0.13,-0.066667 0.38347655,-0.2749219 0.56347655,-0.4615886 0.185,-0.1916666 0.30492189,-0.2982812 0.37825522,-0.3216145 0.0366667,-0.011667 0.0617838,-0.00327 0.0784505,0.025065 0.015,0.028333 0.0214844,0.076602 0.0214844,0.1416015 0,0.1066667 0.0185026,0.2033724 0.0485026,0.2900391 0.0316667,0.086667 0.0764713,0.1631901 0.13313802,0.2281901 0.055,0.065 0.12161458,0.1201172 0.19661458,0.1617838 0.0733333,0.043333 0.15519532,0.074766 0.24186198,0.093099 0.085,0.018333 0.17660157,0.025221 0.26660155,0.018555 0.0916667,-0.00667 0.18343754,-0.026849 0.2734375,-0.061849 0.09,-0.033333 0.17809897,-0.079896 0.25976564,-0.1432292 0.0833333,-0.061667 0.16018226,-0.1384765 0.22851563,-0.2301432 0.06,-0.081667 0.0982422,-0.1597786 0.11490885,-0.2314453 0.0166667,-0.07 0.0116537,-0.1335156 -0.0133463,-0.186849 -0.025,-0.053333 -0.0717188,-0.095 -0.13671877,-0.125 -0.065,-0.028333 -0.14833332,-0.044922 -0.25,-0.044922 -0.0633333,0 -0.1114453,-0.0018 -0.14811197,-0.00846 -0.0366667,-0.00667 -0.0617839,-0.02 -0.0784505,-0.041667 -0.0333333,-0.043333 -0.0315234,-0.1266536 -0.0198568,-0.2783203 0.008333,-0.091667 0.0732162,-0.3047917 0.17154949,-0.578125 0.0983333,-0.2716667 0.23007813,-0.6034635 0.37174478,-0.9251302 0.13833337,-0.3166667 0.24311198,-0.5666406 0.31477865,-0.764974 0.0716667,-0.1983333 0.11019532,-0.3466276 0.11686198,-0.4599609 0.003333,-0.055 -0.00168,-0.1015625 -0.0133463,-0.1432292 -0.0133333,-0.04 -0.0351432,-0.071927 -0.0634766,-0.1002604 -0.0566667,-0.056667 -0.14501301,-0.091419 -0.26334635,-0.1214193 -0.0833333,-0.02 -0.15151041,-0.035156 -0.21484375,-0.035156 z m -16.11002605,0.00684 c -0.025,0 -0.0482813,0.00159 -0.0716146,0.00326 -0.0966667,0.00667 -0.19855469,0.030026 -0.31022135,0.068359 -0.11166667,0.038333 -0.23471355,0.091497 -0.37304687,0.1598307 -0.19333333,0.096667 -0.375,0.2151823 -0.54166667,0.3535157 -0.16833335,0.1383333 -0.32195313,0.2932552 -0.46028646,0.4615885 -0.13833334,0.1666667 -0.26088542,0.3465365 -0.36588542,0.5332031 -0.10516667,0.1866667 -0.19274219,0.381862 -0.26074219,0.5751954 -0.0678333,0.1949999 -0.11639583,0.390039 -0.14322916,0.5817057 -0.0268333,0.19 -0.0321641,0.3767187 -0.0139974,0.5533854 0.0181667,0.1766667 0.0604375,0.3415365 0.12760416,0.4915365 0.0335,0.075 0.0729662,0.1465495 0.11946615,0.2132161 0.0466667,0.066667 0.0996719,0.1285547 0.15950521,0.1852214 0.11316667,0.1066666 0.22439843,0.1849479 0.33756511,0.2382812 0.11166667,0.051667 0.22635413,0.076537 0.34635417,0.07487 0.12166666,-0.00333 0.24838541,-0.033177 0.38671873,-0.089844 0.13833333,-0.056667 0.28845053,-0.141914 0.45345053,-0.2535807 l 0.40657552,-0.2763672 0.23177083,0.2747396 c 0.0633333,0.076667 0.14839844,0.1519141 0.23339844,0.2119141 0.085,0.061667 0.17002605,0.1063802 0.23502605,0.1230469 0.0616667,0.015 0.12828125,0.021927 0.19661458,0.016927 0.0683333,-0.00333 0.13833333,-0.018411 0.20833333,-0.038411 0.13833334,-0.041667 0.27648437,-0.1134896 0.39648437,-0.2018229 0.12166667,-0.088333 0.2233724,-0.194974 0.29003907,-0.3066406 0.0333333,-0.055 0.0582813,-0.1116667 0.0716146,-0.1666667 0.0133333,-0.056667 0.0152083,-0.1133333 0.005208,-0.1666667 -0.0116667,-0.061667 -0.0432682,-0.1048437 -0.0999349,-0.1315104 -0.0583333,-0.026667 -0.14334635,-0.038411 -0.26334635,-0.038411 -0.0816667,0 -0.1434375,1.562e-4 -0.19010416,-0.00651 -0.0466667,-0.00667 -0.0766797,-0.020208 -0.0966797,-0.046875 -0.02,-0.026667 -0.0298698,-0.066628 -0.0332031,-0.1266276 -0.005,-0.06 -0.003333,-0.1400781 0,-0.2467448 0.001667,-0.1433333 0.038112,-0.3232552 0.10644532,-0.5449219 0.07,-0.22 0.17355468,-0.4799088 0.31022135,-0.7815755 0.11166666,-0.2483333 0.21471355,-0.5100651 0.28971355,-0.7333984 0.0766667,-0.2216667 0.12528645,-0.4050781 0.12695311,-0.4967448 0.005,-0.1383333 -0.003372,-0.2231641 -0.0400391,-0.2848307 -0.0366667,-0.06 -0.10187499,-0.096719 -0.21354167,-0.1367188 -0.10166665,-0.035 -0.18164062,-0.050039 -0.26497395,-0.040039 -0.0816667,0.011667 -0.16485677,0.045065 -0.26985677,0.1083984 -0.12166666,0.071667 -0.1968099,0.1083203 -0.2718099,0.1116536 -0.075,0.00167 -0.1481901,-0.030091 -0.26985676,-0.093424 -0.0966667,-0.05 -0.18832032,-0.085104 -0.27832032,-0.1067709 -0.0683333,-0.016667 -0.13670573,-0.02474 -0.20670573,-0.024739 z m -0.0133463,0.8580729 c 0.0166667,-0.00167 0.0350521,2.867e-4 0.0533854,0.00195 0.0583333,0.00667 0.1049349,0.0147 0.14160157,0.026367 0.035,0.011667 0.0617839,0.026797 0.0784505,0.05013 0.0366667,0.046667 0.0398307,0.1251302 0.0348307,0.2584635 -0.005,0.1 -0.044987,0.2517187 -0.11165365,0.4283854 -0.065,0.1766667 -0.15484375,0.379961 -0.25651042,0.584961 -0.10166666,0.2033333 -0.21511718,0.408177 -0.32845051,0.5898437 -0.11333334,0.1816667 -0.22682292,0.3399089 -0.32682292,0.4482422 -0.15666667,0.1716667 -0.2649349,0.2717708 -0.3499349,0.3151042 -0.0433333,0.021667 -0.0799479,0.028438 -0.11328125,0.023437 -0.035,-0.00667 -0.0650521,-0.024974 -0.0950521,-0.056641 -0.035,-0.035 -0.063151,-0.2467188 -0.063151,-0.4700521 0,-0.12 0.0114583,-0.2467057 0.0364583,-0.3733724 0.0233334,-0.1283333 0.0569271,-0.2584245 0.10026043,-0.3850911 0.0433333,-0.1283334 0.094987,-0.2565886 0.1533203,-0.3782553 0.0583333,-0.1216666 0.12307292,-0.2383072 0.19140625,-0.3483072 0.0683333,-0.11 0.14342449,-0.2101303 0.21842449,-0.3001303 0.0766667,-0.09 0.1550651,-0.1680729 0.23339843,-0.2330729 0.0783333,-0.063333 0.15673177,-0.1135547 0.23339843,-0.1435547 0.0583333,-0.023333 0.11492189,-0.036745 0.16992195,-0.038412 z m 10.40332032,0.080078 c 0.0466667,0 0.0817318,0.00331 0.10839843,0.014974 0.0283333,0.011667 0.0465234,0.033359 0.0615234,0.068359 0.0266667,0.068333 0.0335287,0.1952083 0.0335287,0.421875 0,0.1783333 -0.0152083,0.3515625 -0.046875,0.5182292 -0.03,0.1666666 -0.0748047,0.3284375 -0.13313801,0.4817708 -0.06,0.155 -0.13334634,0.3014453 -0.2216797,0.4397786 -0.0883333,0.1383334 -0.19164062,0.2683464 -0.30664062,0.3883464 -0.10666667,0.1116667 -0.21022135,0.2002214 -0.31022135,0.2685547 -0.0983333,0.066667 -0.19332032,0.1130599 -0.27832032,0.1363932 -0.0866667,0.021667 -0.16477865,0.021706 -0.23144531,-0.00163 -0.065,-0.023333 -0.12015625,-0.071563 -0.16015625,-0.1432292 -0.0366667,-0.063333 -0.0499609,-0.1534244 -0.0432943,-0.2600911 0.005,-0.105 0.029987,-0.2282812 0.069987,-0.3632813 0.0416667,-0.1333333 0.0967839,-0.2765104 0.16178385,-0.423177 0.0666667,-0.1466667 0.14322917,-0.2983594 0.2265625,-0.4433594 0.0833333,-0.1466667 0.17326824,-0.2882943 0.26660157,-0.4182943 0.0933333,-0.1316667 0.19015625,-0.2518489 0.28515625,-0.3535156 0.095,-0.1 0.18640625,-0.1832031 0.27473958,-0.2415365 0.0883333,-0.058333 0.17182292,-0.090169 0.24348959,-0.090169 z m 8.26985675,1.6966146 a 0.7668000001,0.9372000003 16.22999999 0 0 -0.84667969,0.7099609 0.7668000001,0.9372000003 16.22999999 0 0 0.47363282,1.1152344 0.7668000001,0.9372000003 16.22999999 0 0 0.99804687,-0.6852214 0.7668000001,0.9372000003 16.22999999 0 0 -0.4733073,-1.1149088 0.7668000001,0.9372000003 16.22999999 0 0 -0.1516927,-0.0250651 z m -16.51009116,6.6305338 c 0.16138315,0 0.29011017,0.045774 0.38606772,0.1373698 0.0959575,0.091596 0.1438802,0.208505 0.1438802,0.3502604 0,0.1439363 -0.048997,0.2615943 -0.14713542,0.3531901 -0.0959575,0.091596 -0.22361021,0.1373698 -0.3828125,0.1373698 -0.15920228,0 -0.28760378,-0.045774 -0.38574218,-0.1373698 -0.0959576,-0.091596 -0.14420573,-0.2092538 -0.14420573,-0.3531901 0,-0.1417554 0.0471738,-0.2586646 0.14095053,-0.3502604 0.0959575,-0.091596 0.2254334,-0.1373698 0.38899738,-0.1373698 z m 9.90559897,0 c 0.16138314,0 0.29011017,0.045774 0.3860677,0.1373698 0.0959575,0.091596 0.14388022,0.208505 0.14388022,0.3502604 0,0.1439363 -0.048997,0.2615943 -0.14713542,0.3531901 -0.0959575,0.091596 -0.22361021,0.1373698 -0.3828125,0.1373698 -0.15920228,0 -0.28792931,-0.045774 -0.38606771,-0.1373698 -0.0959575,-0.091596 -0.1438802,-0.2092538 -0.1438802,-0.3531901 0,-0.1417554 0.0468483,-0.2586646 0.140625,-0.3502604 0.0959575,-0.091596 0.22575891,-0.1373698 0.38932291,-0.1373698 z m -19.39876303,0.180013 h 0.98144532 v 4.7630209 h -0.98144532 z m 10.9358724,0.3531901 h 0.94563801 v 0.8701172 h 0.60514324 v 0.6936849 H 23.1126302 v 1.7662761 c 0,0.1308512 0.0250357,0.2248733 0.0751953,0.2815755 0.0501596,0.056702 0.14600497,0.084961 0.28776042,0.084961 0.10468096,0 0.19730323,-0.00752 0.2779948,-0.022786 v 0.7161458 c -0.18537254,0.056702 -0.37598884,0.085286 -0.57226564,0.085286 -0.66297938,0 -1.0012378,-0.3347098 -1.01432291,-1.0042318 V 46.1617967 H 21.6500651 v -0.6936866 h 0.51692709 z m 5.86230468,0 h 0.9453125 v 0.8701172 h 0.60514324 v 0.6936849 H 28.9746094 v 1.7662761 c 0,0.1308512 0.0250357,0.2248733 0.0751953,0.2815755 0.0501596,0.056702 0.14600497,0.084961 0.28776042,0.084961 0.10468096,0 0.19762875,-0.00752 0.27832031,-0.022786 v 0.7161458 c -0.18537253,0.056702 -0.37631435,0.085286 -0.57259115,0.085286 -0.66297938,0 -1.00091225,-0.3347098 -1.0139974,-1.0042318 v -1.9072265 h -0.51692707 v -0.6936866 h 0.51692706 z M 14.97363285,45.402682 c 0.37510675,0 0.65404791,0.1101375 0.83723958,0.3304037 0.18319167,0.2202661 0.27721381,0.5496042 0.28157552,0.9879557 v 2.2867839 H 15.1468099 v -2.2636719 c 0,-0.2006385 -0.0436252,-0.3458064 -0.13085938,-0.4352213 -0.0872341,-0.091596 -0.23207648,-0.1373698 -0.43489583,-0.1373698 -0.26606409,0 -0.46560076,0.1133605 -0.59863281,0.3401692 v 2.4960938 h -0.94563802 v -3.5397151 h 0.88997396 l 0.0292969,0.4091797 c 0.25297898,-0.3162237 0.59231174,-0.4746094 1.01757813,-0.4746094 z m 10.71321615,0 c 0.43617062,0 0.78194954,0.1101375 1.03710937,0.3304037 0.25734068,0.2180853 0.3860677,0.5256107 0.3860677,0.922526 v 1.5341797 c 0.002181,0.3358514 0.0490292,0.5900824 0.140625,0.7623698 v 0.055664 h -0.95507812 c -0.0436171,-0.085053 -0.0754244,-0.1908934 -0.0950521,-0.3173828 -0.22898958,0.2551598 -0.5265203,0.3828125 -0.89290365,0.3828125 -0.34675567,0 -0.63461719,-0.1004683 -0.86360677,-0.3011068 -0.22680873,-0.2006385 -0.34049478,-0.4534696 -0.34049478,-0.7587891 0,-0.3751067 0.13872173,-0.6629683 0.4156901,-0.8636067 0.27914921,-0.2006385 0.68144562,-0.3021812 1.20703125,-0.304362 h 0.43522135 v -0.2027995 c 0,-0.163564 -0.0425509,-0.2944397 -0.12760417,-0.3925781 -0.0828724,-0.098138 -0.21482251,-0.1471355 -0.39583333,-0.1471354 -0.15920228,0 -0.28470625,0.038253 -0.37630208,0.1145833 -0.089415,0.07633 -0.13411459,0.18077 -0.13411459,0.3138021 h -0.9453125 c 0,-0.2050002 0.0632891,-0.3945422 0.18977865,-0.5690104 0.12648948,-0.1744683 0.30528788,-0.3107158 0.53645833,-0.4088542 0.23117044,-0.1003193 0.49044769,-0.1507162 0.77832034,-0.1507161 z m 7.7236328,0 c 0.47760687,0 0.867011,0.1462423 1.16796875,0.4384766 0.3031386,0.2922344 0.47194229,0.689159 0.50683595,1.1907552 l 0.00651,0.2421875 c 0,0.5430325 -0.151614,0.9789594 -0.4547526,1.3082682 -0.3031386,0.327128 -0.70973242,0.4908855 -1.22005209,0.4908855 -0.51031965,0 -0.91798783,-0.1637575 -1.22330728,-0.4908855 -0.3031386,-0.3271279 -0.4547526,-0.7719752 -0.4547526,-1.3346354 v -0.042318 c 0,-0.3511174 0.0675866,-0.6643401 0.20279947,-0.9391276 0.1352129,-0.2747875 0.32937781,-0.4872164 0.58235676,-0.6376953 0.25515985,-0.1504789 0.55054184,-0.2259115 0.88639364,-0.2259112 z m 4.18717449,0 c 0.37510675,0 0.65437343,0.1101375 0.8375651,0.3304037 0.18319168,0.2202661 0.2768883,0.5496042 0.28125,0.9879557 v 2.2867839 h -0.9453125 v -2.2636719 c 0,-0.2006385 -0.0436252,-0.3458064 -0.13085937,-0.4352213 -0.0872341,-0.091596 -0.23240202,-0.1373698 -0.43522135,-0.1373698 -0.26606412,0 -0.46560077,0.1133605 -0.59863282,0.3401692 v 2.4960938 h -0.9453125 v -3.5397151 h 0.88964844 l 0.0296224,0.4091797 c 0.25297896,-0.3162237 0.59198621,-0.4746094 1.0172526,-0.4746094 z m -21.1061198,0.06543 h 0.98763021 l 0.65755208,2.3847657 0.65755209,-2.3847657 h 0.98795573 l -1.19401042,3.5397136 H 17.6855469 Z m 3.75846354,0 h 0.94889324 v 3.5397136 H 20.25 Z m 9.90559897,0 h 0.9485677 v 3.5397136 H 30.155599 Z m 3.2548828,0.7001954 c -0.23117043,0 -0.40996883,0.090474 -0.53645833,0.2714843 -0.12648948,0.17883 -0.18977865,0.4570223 -0.18977863,0.8343099 0,0.3358514 0.0632891,0.59298 0.18977863,0.7718099 0.1264895,0.1766491 0.3074366,0.264974 0.54296875,0.264974 0.2289896,0 0.407788,-0.08725 0.53645833,-0.2617188 0.12867035,-0.1766491 0.19303385,-0.4577389 0.19303385,-0.84375 0,-0.3293088 -0.0643635,-0.5846142 -0.19303385,-0.765625 -0.12867033,-0.1810108 -0.30961745,-0.2714843 -0.54296875,-0.2714843 z m -7.60253906,1.2298177 c -0.47324514,0 -0.7250019,0.1637574 -0.75553385,0.4908854 l -0.003255,0.055664 c 0,0.1177661 0.0414765,0.2146858 0.12434895,0.2910157 0.0828724,0.07633 0.19623297,0.1145833 0.34016927,0.1145833 0.13957463,0 0.26830165,-0.030733 0.38606771,-0.091797 0.11776607,-0.063245 0.20501657,-0.1469466 0.26171875,-0.2516276 V 47.398125 Z"
     id="path911"
     style="fill:#241f21;stroke-width:0.5;fill-opacity:1"
     inkscape:connector-curvature="0" />
</svg>
