<?xml version="1.0" encoding="UTF-8" standalone="no"?>
<!-- Created with Inkscape (http://www.inkscape.org/) -->

<svg
   xmlns:osb="http://www.openswatchbook.org/uri/2009/osb"
   xmlns:dc="http://purl.org/dc/elements/1.1/"
   xmlns:cc="http://creativecommons.org/ns#"
   xmlns:rdf="http://www.w3.org/1999/02/22-rdf-syntax-ns#"
   xmlns:svg="http://www.w3.org/2000/svg"
   xmlns="http://www.w3.org/2000/svg"
   xmlns:sodipodi="http://sodipodi.sourceforge.net/DTD/sodipodi-0.dtd"
   xmlns:inkscape="http://www.inkscape.org/namespaces/inkscape"
   id="svg8"
   height="48"
   width="48"
   version="1.1"
   viewBox="0 0 12.7 12.7"
   sodipodi:docname="kuwa_mjanja_logo_black_48.svg"
   inkscape:version="0.92.2 (5c3e80d, 2017-08-06)">
  <defs
     id="defs9">
    <clipPath
       clipPathUnits="userSpaceOnUse"
       id="clipPath847">
      <rect
         style="fill:#ff0000;fill-opacity:0.52314812;stroke:none;stroke-width:0.815732;stroke-linecap:round;stroke-linejoin:round;stroke-miterlimit:4;stroke-dasharray:none;stroke-opacity:1"
         id="rect849"
         width="101.58684"
         height="101.69591"
         x="68.720795"
         y="248.86708" />
    </clipPath>
    <linearGradient
       id="linearGradient17002"
       osb:paint="solid"
       gradientTransform="matrix(0.00229968,0,0,0.00764365,-480.76794,1614.5601)">
      <stop
         style="stop-color:#283593;stop-opacity:1;"
         offset="0"
         id="stop17004" />
    </linearGradient>
    <clipPath
       clipPathUnits="userSpaceOnUse"
       id="clipPath83799-06">
      <circle
         style="opacity:1;fill:#ffffff;fill-opacity:1;stroke:#cccccc;stroke-width:0.49900001;stroke-linecap:round;stroke-linejoin:round;stroke-miterlimit:4;stroke-dasharray:none;stroke-opacity:1"
         id="circle83801-32"
         cx="1629.7842"
         cy="2526.7087"
         r="16.425676" />
    </clipPath>
    <linearGradient
       id="linearGradient17020"
       osb:paint="solid"
       gradientTransform="matrix(8.4815637e-7,0,0,8.4815637e-7,1622.9529,2135.1955)">
      <stop
         style="stop-color:#536dfe;stop-opacity:1;"
         offset="0"
         id="stop17022" />
    </linearGradient>
    <linearGradient
       id="linearGradient17014"
       osb:paint="solid"
       gradientTransform="matrix(0.00634403,0,0,0.00634403,-2363.0635,2243.3806)">
      <stop
         style="stop-color:#8c9eff;stop-opacity:1;"
         offset="0"
         id="stop17016" />
    </linearGradient>
    <clipPath
       clipPathUnits="userSpaceOnUse"
       id="clipPath83799-06-6">
      <circle
         style="opacity:1;fill:#ffffff;fill-opacity:1;stroke:#cccccc;stroke-width:0.49900001;stroke-linecap:round;stroke-linejoin:round;stroke-miterlimit:4;stroke-dasharray:none;stroke-opacity:1"
         id="circle83801-32-7"
         cx="1629.7842"
         cy="2526.7087"
         r="16.425676" />
    </clipPath>
    <clipPath
       clipPathUnits="userSpaceOnUse"
       id="clipPath83799-06-8">
      <circle
         style="opacity:1;fill:#ffffff;fill-opacity:1;stroke:#cccccc;stroke-width:0.49900001;stroke-linecap:round;stroke-linejoin:round;stroke-miterlimit:4;stroke-dasharray:none;stroke-opacity:1"
         id="circle83801-32-4"
         cx="1629.7842"
         cy="2526.7087"
         r="16.425676" />
    </clipPath>
    <linearGradient
       id="linearGradient19224"
       osb:paint="solid">
      <stop
         style="stop-color:#7e57c2;stop-opacity:1;"
         offset="0"
         id="stop19226" />
    </linearGradient>
    <clipPath
       clipPathUnits="userSpaceOnUse"
       id="clipPath83799-06-9">
      <circle
         style="opacity:1;fill:#ffffff;fill-opacity:1;stroke:#cccccc;stroke-width:0.49900001;stroke-linecap:round;stroke-linejoin:round;stroke-miterlimit:4;stroke-dasharray:none;stroke-opacity:1"
         id="circle83801-32-1"
         cx="1629.7842"
         cy="2526.7087"
         r="16.425676" />
    </clipPath>
    <clipPath
       clipPathUnits="userSpaceOnUse"
       id="clipPath83799-06-85">
      <circle
         style="opacity:1;fill:#ffffff;fill-opacity:1;stroke:#cccccc;stroke-width:0.49900001;stroke-linecap:round;stroke-linejoin:round;stroke-miterlimit:4;stroke-dasharray:none;stroke-opacity:1"
         id="circle83801-32-5"
         cx="1629.7842"
         cy="2526.7087"
         r="16.425676" />
    </clipPath>
    <linearGradient
       id="linearGradient6475"
       osb:paint="solid">
      <stop
         style="stop-color:#000000;stop-opacity:1;"
         offset="0"
         id="stop6473" />
    </linearGradient>
    <clipPath
       id="clipPath847-3"
       clipPathUnits="userSpaceOnUse">
      <rect
         y="248.86708"
         x="68.720795"
         height="101.69591"
         width="101.58684"
         id="rect849-1"
         style="fill:#ff0000;fill-opacity:0.52314812;stroke:none;stroke-width:0.815732;stroke-linecap:round;stroke-linejoin:round;stroke-miterlimit:4;stroke-dasharray:none;stroke-opacity:1" />
    </clipPath>
    <clipPath
       id="clipPath83799-06-1"
       clipPathUnits="userSpaceOnUse">
      <circle
         r="16.425676"
         cy="2526.7087"
         cx="1629.7842"
         id="circle83801-32-49"
         style="opacity:1;fill:#ffffff;fill-opacity:1;stroke:#cccccc;stroke-width:0.49900001;stroke-linecap:round;stroke-linejoin:round;stroke-miterlimit:4;stroke-dasharray:none;stroke-opacity:1" />
    </clipPath>
    <clipPath
       id="clipPath83799-06-6-1"
       clipPathUnits="userSpaceOnUse">
      <circle
         r="16.425676"
         cy="2526.7087"
         cx="1629.7842"
         id="circle83801-32-7-1"
         style="opacity:1;fill:#ffffff;fill-opacity:1;stroke:#cccccc;stroke-width:0.49900001;stroke-linecap:round;stroke-linejoin:round;stroke-miterlimit:4;stroke-dasharray:none;stroke-opacity:1" />
    </clipPath>
    <clipPath
       id="clipPath83799-06-8-1"
       clipPathUnits="userSpaceOnUse">
      <circle
         r="16.425676"
         cy="2526.7087"
         cx="1629.7842"
         id="circle83801-32-4-2"
         style="opacity:1;fill:#ffffff;fill-opacity:1;stroke:#cccccc;stroke-width:0.49900001;stroke-linecap:round;stroke-linejoin:round;stroke-miterlimit:4;stroke-dasharray:none;stroke-opacity:1" />
    </clipPath>
    <clipPath
       id="clipPath83799-06-9-4"
       clipPathUnits="userSpaceOnUse">
      <circle
         r="16.425676"
         cy="2526.7087"
         cx="1629.7842"
         id="circle83801-32-1-0"
         style="opacity:1;fill:#ffffff;fill-opacity:1;stroke:#cccccc;stroke-width:0.49900001;stroke-linecap:round;stroke-linejoin:round;stroke-miterlimit:4;stroke-dasharray:none;stroke-opacity:1" />
    </clipPath>
    <clipPath
       id="clipPath83799-06-85-7"
       clipPathUnits="userSpaceOnUse">
      <circle
         r="16.425676"
         cy="2526.7087"
         cx="1629.7842"
         id="circle83801-32-5-8"
         style="opacity:1;fill:#ffffff;fill-opacity:1;stroke:#cccccc;stroke-width:0.49900001;stroke-linecap:round;stroke-linejoin:round;stroke-miterlimit:4;stroke-dasharray:none;stroke-opacity:1" />
    </clipPath>
    <clipPath
       clipPathUnits="userSpaceOnUse"
       id="clipPath847-2">
      <rect
         style="fill:#ff0000;fill-opacity:0.52314812;stroke:none;stroke-width:0.815732;stroke-linecap:round;stroke-linejoin:round;stroke-miterlimit:4;stroke-dasharray:none;stroke-opacity:1"
         id="rect849-8"
         width="101.58684"
         height="101.69591"
         x="68.720795"
         y="248.86708" />
    </clipPath>
    <clipPath
       clipPathUnits="userSpaceOnUse"
       id="clipPath83799-06-0">
      <circle
         style="opacity:1;fill:#ffffff;fill-opacity:1;stroke:#cccccc;stroke-width:0.49900001;stroke-linecap:round;stroke-linejoin:round;stroke-miterlimit:4;stroke-dasharray:none;stroke-opacity:1"
         id="circle83801-32-13"
         cx="1629.7842"
         cy="2526.7087"
         r="16.425676" />
    </clipPath>
    <clipPath
       clipPathUnits="userSpaceOnUse"
       id="clipPath83799-06-6-3">
      <circle
         style="opacity:1;fill:#ffffff;fill-opacity:1;stroke:#cccccc;stroke-width:0.49900001;stroke-linecap:round;stroke-linejoin:round;stroke-miterlimit:4;stroke-dasharray:none;stroke-opacity:1"
         id="circle83801-32-7-8"
         cx="1629.7842"
         cy="2526.7087"
         r="16.425676" />
    </clipPath>
    <clipPath
       clipPathUnits="userSpaceOnUse"
       id="clipPath83799-06-8-7">
      <circle
         style="opacity:1;fill:#ffffff;fill-opacity:1;stroke:#cccccc;stroke-width:0.49900001;stroke-linecap:round;stroke-linejoin:round;stroke-miterlimit:4;stroke-dasharray:none;stroke-opacity:1"
         id="circle83801-32-4-9"
         cx="1629.7842"
         cy="2526.7087"
         r="16.425676" />
    </clipPath>
    <clipPath
       clipPathUnits="userSpaceOnUse"
       id="clipPath83799-06-9-45">
      <circle
         style="opacity:1;fill:#ffffff;fill-opacity:1;stroke:#cccccc;stroke-width:0.49900001;stroke-linecap:round;stroke-linejoin:round;stroke-miterlimit:4;stroke-dasharray:none;stroke-opacity:1"
         id="circle83801-32-1-3"
         cx="1629.7842"
         cy="2526.7087"
         r="16.425676" />
    </clipPath>
    <clipPath
       clipPathUnits="userSpaceOnUse"
       id="clipPath83799-06-85-8">
      <circle
         style="opacity:1;fill:#ffffff;fill-opacity:1;stroke:#cccccc;stroke-width:0.49900001;stroke-linecap:round;stroke-linejoin:round;stroke-miterlimit:4;stroke-dasharray:none;stroke-opacity:1"
         id="circle83801-32-5-7"
         cx="1629.7842"
         cy="2526.7087"
         r="16.425676" />
    </clipPath>
    <clipPath
       clipPathUnits="userSpaceOnUse"
       id="clipPath847-0">
      <rect
         style="fill:#ff0000;fill-opacity:0.52314812;stroke:none;stroke-width:0.815732;stroke-linecap:round;stroke-linejoin:round;stroke-miterlimit:4;stroke-dasharray:none;stroke-opacity:1"
         id="rect849-7"
         width="101.58684"
         height="101.69591"
         x="68.720795"
         y="248.86708" />
    </clipPath>
    <clipPath
       clipPathUnits="userSpaceOnUse"
       id="clipPath83799-06-3">
      <circle
         style="opacity:1;fill:#ffffff;fill-opacity:1;stroke:#cccccc;stroke-width:0.49900001;stroke-linecap:round;stroke-linejoin:round;stroke-miterlimit:4;stroke-dasharray:none;stroke-opacity:1"
         id="circle83801-32-55"
         cx="1629.7842"
         cy="2526.7087"
         r="16.425676" />
    </clipPath>
    <clipPath
       clipPathUnits="userSpaceOnUse"
       id="clipPath83799-06-6-4">
      <circle
         style="opacity:1;fill:#ffffff;fill-opacity:1;stroke:#cccccc;stroke-width:0.49900001;stroke-linecap:round;stroke-linejoin:round;stroke-miterlimit:4;stroke-dasharray:none;stroke-opacity:1"
         id="circle83801-32-7-5"
         cx="1629.7842"
         cy="2526.7087"
         r="16.425676" />
    </clipPath>
    <clipPath
       clipPathUnits="userSpaceOnUse"
       id="clipPath83799-06-8-9">
      <circle
         style="opacity:1;fill:#ffffff;fill-opacity:1;stroke:#cccccc;stroke-width:0.49900001;stroke-linecap:round;stroke-linejoin:round;stroke-miterlimit:4;stroke-dasharray:none;stroke-opacity:1"
         id="circle83801-32-4-1"
         cx="1629.7842"
         cy="2526.7087"
         r="16.425676" />
    </clipPath>
    <clipPath
       clipPathUnits="userSpaceOnUse"
       id="clipPath83799-06-9-47">
      <circle
         style="opacity:1;fill:#ffffff;fill-opacity:1;stroke:#cccccc;stroke-width:0.49900001;stroke-linecap:round;stroke-linejoin:round;stroke-miterlimit:4;stroke-dasharray:none;stroke-opacity:1"
         id="circle83801-32-1-1"
         cx="1629.7842"
         cy="2526.7087"
         r="16.425676" />
    </clipPath>
    <clipPath
       clipPathUnits="userSpaceOnUse"
       id="clipPath83799-06-85-0">
      <circle
         style="opacity:1;fill:#ffffff;fill-opacity:1;stroke:#cccccc;stroke-width:0.49900001;stroke-linecap:round;stroke-linejoin:round;stroke-miterlimit:4;stroke-dasharray:none;stroke-opacity:1"
         id="circle83801-32-5-71"
         cx="1629.7842"
         cy="2526.7087"
         r="16.425676" />
    </clipPath>
  </defs>
  <sodipodi:namedview
     pagecolor="#ffffff"
     bordercolor="#666666"
     borderopacity="1"
     objecttolerance="10"
     gridtolerance="10"
     guidetolerance="10"
     inkscape:pageopacity="0"
     inkscape:pageshadow="2"
     inkscape:window-width="1920"
     inkscape:window-height="1017"
     id="namedview7"
     showgrid="false"
     inkscape:zoom="4.916666667"
     inkscape:cx="48.99095415"
     inkscape:cy="24"
     inkscape:window-x="-8"
     inkscape:window-y="-8"
     inkscape:window-maximized="1"
     inkscape:current-layer="svg8" />
  <title
     id="title4753">UIO-icon</title>
  <metadata
     id="metadata5">
    <rdf:RDF>
      <cc:Work
         rdf:about="">
        <dc:format>image/svg+xml</dc:format>
        <dc:type
           rdf:resource="http://purl.org/dc/dcmitype/StillImage" />
        <dc:title>UIO-icon</dc:title>
        <dc:creator>
          <cc:Agent>
            <dc:title>Joaquín Urbano</dc:title>
          </cc:Agent>
        </dc:creator>
        <dc:rights>
          <cc:Agent>
            <dc:title>GPL</dc:title>
          </cc:Agent>
        </dc:rights>
      </cc:Work>
    </rdf:RDF>
  </metadata>
  <g
     id="layer1"
     transform="translate(0,-284.3)"
     style="fill:#333333;fill-opacity:1">
    <path
       id="path850"
       d="m 6.0654,295.94 c -0.027315,-0.00545 -0.18202,-0.014348 -0.34378,-0.019766 l -0.29411,-0.00985 -0.1032,-0.046972 c -0.056761,-0.025835 -0.13876,-0.063147 -0.18223,-0.082916 -0.17556,-0.079853 -0.31195,-0.18845 -0.39662,-0.31582 -0.072508,-0.10907 -0.10062,-0.18819 -0.1318,-0.37099 -0.04597,-0.26952 -0.067588,-0.31762 -0.22438,-0.49929 -0.15774,-0.18276 -0.19677,-0.29751 -0.22648,-0.66595 -0.015084,-0.18707 -0.025042,-0.22832 -0.054987,-0.22779 -0.0068443,1.2e-4 -0.046256,0.049785 -0.087582,0.11037 -0.041326,0.060581 -0.079971,0.11015 -0.085879,0.11015 -0.032996,0 -0.017114,-0.043678 0.056205,-0.15456 0.087822,-0.13282 0.085833,-0.12077 0.040982,-0.24827 -0.045546,-0.12947 -0.099814,-0.40877 -0.092741,-0.47731 0.01086,-0.10522 0.038012,-0.1116 0.10111,-0.023773 0.023455,0.032648 0.04731,0.054101 0.060158,0.054101 0.032247,0 0.067039,-0.051725 0.067039,-0.099668 0,-0.041326 -0.057894,-0.28196 -0.070986,-0.29506 -0.0077927,-0.00779 -0.045977,0.028953 -0.42037,0.40454 -0.19137,0.19198 -0.27333,0.26725 -0.2858,0.26246 -0.0096137,-0.00369 -0.01748,-0.011296 -0.01748,-0.016902 0,-0.00561 0.16183,-0.1709 0.35963,-0.36731 l 0.35963,-0.35712 -0.0072243,-0.12692 c -0.0079624,-0.13988 0.0076583,-0.34369 0.03421,-0.44632 0.023675,-0.091512 0.051328,-0.14101 0.10393,-0.18604 0.03943,-0.033751 0.047288,-0.04838 0.06088,-0.11334 0.0085837,-0.041025 0.029902,-0.10514 0.047375,-0.14248 0.048941,-0.10458 0.19741,-0.31127 0.24348,-0.33894 0.021834,-0.013116 0.042038,-0.025737 0.044897,-0.028048 0.012569,-0.010157 -0.031341,-0.024751 -0.074945,-0.024906 -0.042838,-1.517e-4 -0.047315,-0.00264 -0.044146,-0.024541 0.0072276,-0.049948 0.11031,-0.098183 0.2653,-0.12414 0.030187,-0.00506 0.055005,-0.021618 0.09381,-0.062605 0.058386,-0.061669 0.15454,-0.12834 0.27625,-0.19153 0.10585,-0.054959 0.10511,-0.071923 -0.0031054,-0.071923 -0.090868,0 -0.10244,-0.00807 -0.083371,-0.058221 0.021412,-0.05632 0.092455,-0.12103 0.17477,-0.15919 0.044008,-0.020403 0.080012,-0.040671 0.080009,-0.045039 -3.063e-6,-0.00437 -0.010398,-0.035259 -0.023099,-0.068644 -0.012701,-0.033385 -0.052268,-0.16529 -0.087926,-0.29312 -0.16642,-0.59659 -0.22967,-0.70041 -0.56951,-0.93472 -0.063518,-0.043794 -0.11409,-0.086403 -0.11409,-0.096121 0,-0.019291 0.078117,-0.10722 0.1214,-0.13665 l 0.027591,-0.01876 -0.041387,-0.039083 c -0.022763,-0.021496 -0.041387,-0.046219 -0.041387,-0.054941 0,-0.030979 0.040043,-0.015177 0.078664,0.031045 0.038694,0.046308 0.039987,0.046857 0.10167,0.043125 0.03436,-0.00208 0.062473,-0.00848 0.062473,-0.014235 0,-0.044808 -0.13289,-0.24506 -0.22423,-0.33791 -0.1034,-0.1051 -0.069964,-0.1051 0.038054,0 0.051441,0.050052 0.10316,0.11514 0.13812,0.17383 0.080458,0.13506 0.10786,0.18668 0.10212,0.19242 -0.0027727,0.00278 -0.044382,0.013168 -0.092465,0.0231 -0.12315,0.025438 -0.23752,0.087089 -0.23752,0.12804 0,0.031534 0.018168,0.033536 0.051489,0.00567 0.098411,-0.08228 0.23809,-0.10608 0.3679,-0.062695 0.039456,0.013187 0.10478,0.043445 0.14517,0.067239 0.09327,0.054947 0.24257,0.19494 0.29288,0.27462 0.021314,0.03376 0.050959,0.073027 0.065876,0.087261 0.021021,0.020057 0.02559,0.032856 0.020311,0.056891 -0.0038369,0.017471 -0.0017009,0.034171 0.0048922,0.038246 0.023023,0.014229 0.036946,-0.057227 0.041855,-0.21483 0.0055917,-0.17949 -0.01358,-0.3043 -0.075444,-0.49113 -0.041155,-0.12429 -0.15509,-0.36123 -0.22941,-0.47709 -0.03104,-0.048388 -0.056436,-0.09369 -0.056436,-0.10067 0,-0.01827 0.12275,-0.01614 0.26346,0.00457 0.30537,0.044946 0.56047,0.18437 0.73178,0.39996 0.10202,0.12839 0.10264,0.13027 0.087556,0.26932 -0.014921,0.13758 -0.052267,0.27535 -0.10639,0.3925 -0.034381,0.074414 -0.040511,0.081673 -0.063027,0.074645 -0.045123,-0.014085 -0.066941,-0.0076 -0.20155,0.059912 -0.13399,0.067202 -0.23743,0.098123 -0.33659,0.10062 -0.08782,0.00221 -0.15797,0.023896 -0.17266,0.053374 -0.039728,0.079688 -0.026185,0.35286 0.025216,0.50862 0.026571,0.080517 0.077211,0.17324 0.088465,0.16199 0.0030702,-0.00307 -0.014232,-0.066849 -0.038449,-0.14173 -0.024218,-0.07488 -0.050158,-0.17479 -0.057645,-0.22203 -0.01564,-0.098677 -0.0077795,-0.23608 0.014798,-0.25865 0.025205,-0.025205 0.14642,0.022756 0.30268,0.11977 0.076324,0.047382 0.14263,0.083767 0.14734,0.080857 0.0047105,-0.00291 0.0295,-0.068566 0.055089,-0.1459 0.055339,-0.16724 0.10362,-0.27856 0.12081,-0.27856 0.045014,0 0.14326,0.085001 0.20421,0.17668 0.028211,0.042436 0.087012,0.16244 0.13067,0.26669 0.043656,0.10424 0.085021,0.19141 0.09192,0.19371 0.016038,0.00534 0.032785,-0.046792 0.048653,-0.15147 0.014612,-0.096394 0.050329,-0.19705 0.10574,-0.29799 0.047147,-0.08588 0.14348,-0.20969 0.16315,-0.20969 0.017172,0 0.094136,0.051274 0.11395,0.075914 0.036842,0.045818 0.068909,0.10342 0.11134,0.2 0.025334,0.057666 0.050578,0.11199 0.056098,0.12073 0.0078743,0.01246 0.032668,-0.00575 0.11507,-0.084531 0.070671,-0.067563 0.12837,-0.1119 0.17637,-0.13553 0.097498,-0.047998 0.11057,-0.043745 0.11787,0.038352 0.013338,0.15004 -0.019899,0.30519 -0.12193,0.5692 -0.054367,0.14067 -0.066351,0.20082 -0.042898,0.21532 0.0066416,0.00411 0.0097911,0.019416 0.0069985,0.034024 -0.0066195,0.03463 0.003556,0.040102 0.10233,0.05502 0.12751,0.019259 0.20554,0.053713 0.27187,0.12004 0.054666,0.054666 0.095839,0.13809 0.077301,0.15663 -0.0041431,0.00414 -0.033496,-0.00409 -0.065228,-0.018289 -0.061869,-0.027691 -0.15151,-0.042586 -0.15151,-0.025176 0,0.00582 0.029606,0.028853 0.065791,0.051187 0.04107,0.02535 0.1209,0.098796 0.21245,0.19547 0.11068,0.11687 0.17354,0.17293 0.25621,0.22851 0.10769,0.072398 0.17189,0.14344 0.17189,0.19021 0,0.010047 0.014471,0.038233 0.032158,0.062649 0.027109,0.037423 0.071956,0.065367 0.28563,0.17798 0.13941,0.073472 0.31242,0.16704 0.38447,0.20792 0.072047,0.040883 0.17073,0.094757 0.21929,0.11972 0.048561,0.024965 0.18762,0.097012 0.30902,0.16011 0.1214,0.063094 0.24432,0.12668 0.27315,0.1413 0.028833,0.014623 0.052424,0.03356 0.052424,0.042082 0,0.025167 -0.03369,0.030682 -0.064849,0.010608 -0.015929,-0.010256 -0.072746,-0.040724 -0.12626,-0.0677 -0.053514,-0.026976 -0.11063,-0.058215 -0.12692,-0.069421 -0.051515,-0.035432 -0.39568,-0.22216 -0.75803,-0.41128 -0.066771,-0.034849 -0.16982,-0.088914 -0.22901,-0.12014 -0.059183,-0.03123 -0.10761,-0.052539 -0.10761,-0.047351 0,0.00519 0.015018,0.033111 0.033373,0.062054 0.047473,0.074857 0.10519,0.19203 0.12162,0.24692 0.012618,0.042142 0.032624,0.064138 0.032624,0.035868 0,-0.02532 0.03429,-0.00814 0.060594,0.03035 0.048741,0.07133 0.073163,0.17083 0.079914,0.32559 l 0.0061395,0.14073 0.061874,0.051747 c 0.03403,0.028461 0.094155,0.081844 0.13361,0.11863 0.039456,0.036785 0.17976,0.16047 0.31178,0.27486 0.13202,0.11439 0.24004,0.21263 0.24004,0.21832 0,0.028215 -0.036819,0.019263 -0.080603,-0.019599 -0.026333,-0.023372 -0.14189,-0.12577 -0.25679,-0.22754 -0.1149,-0.10178 -0.25286,-0.2252 -0.30658,-0.27427 -0.053715,-0.049071 -0.10149,-0.084994 -0.10618,-0.079829 -0.0046813,0.00517 -0.011543,0.032981 -0.015249,0.061814 -0.0060261,0.046886 -0.0044698,0.052423 0.014736,0.052423 0.039201,0 0.048726,0.040514 0.049299,0.20969 4.6208e-4,0.13636 -0.0040743,0.18088 -0.030666,0.301 l -0.031208,0.14098 0.084233,0.10183 c 0.046328,0.056006 0.10657,0.12914 0.13387,0.16253 0.027302,0.033385 0.084035,0.10156 0.12607,0.15149 0.048532,0.05765 0.074076,0.096929 0.069979,0.10761 -0.011876,0.030949 -0.036144,0.017306 -0.08297,-0.046645 -0.10457,-0.14281 -0.32409,-0.41111 -0.33637,-0.41111 -0.014683,0 -0.074704,0.23541 -0.091454,0.35869 -0.0057732,0.042491 -0.013427,0.1294 -0.017008,0.19314 -0.0035811,0.063736 -0.0091895,0.14941 -0.012463,0.19038 -0.005576,0.069794 -0.0045162,0.074497 0.01679,0.074497 0.019409,0 0.02273,0.00687 0.022664,0.046905 -1.2648e-4,0.076735 -0.041593,0.22675 -0.092219,0.33362 -0.085628,0.18076 -0.14764,0.26308 -0.31194,0.41411 -0.053344,0.049033 -0.13788,0.18053 -0.15186,0.23622 -0.0039559,0.015764 -0.01197,0.02866 -0.017809,0.02866 -0.0058385,0 -0.063349,0.045268 -0.1278,0.1006 -0.21714,0.1864 -0.33622,0.2659 -0.5064,0.33805 -0.048781,0.020684 -0.19051,0.086739 -0.31494,0.14679 -0.31856,0.15373 -0.33498,0.15752 -0.6953,0.16058 -0.16086,0.00137 -0.31482,-0.00198 -0.34213,-0.00744 z m -0.38071,-1.5573 c 0.078382,-0.061656 0.15982,-0.24571 0.19443,-0.43945 0.020708,-0.1159 0.019225,-0.50849 -0.0021459,-0.56838 -0.013904,-0.038964 -0.020288,-0.0445 -0.054381,-0.047165 -0.043031,-0.00336 -0.10791,0.025494 -0.12609,0.056086 -0.0096974,0.016314 -0.0064973,0.02391 0.017528,0.041609 0.043452,0.032009 0.057934,0.13563 0.050011,0.35782 -0.0094595,0.26527 -0.058331,0.46045 -0.13713,0.54767 -0.022974,0.025429 -0.035931,0.049332 -0.032123,0.059258 0.0092634,0.024139 0.054511,0.020388 0.089905,-0.00746 z m -1.1125,-0.081735 c 0.044353,-0.050412 0.07101,-0.13131 0.16152,-0.49015 0.075827,-0.30064 0.10576,-0.39248 0.14104,-0.43273 l 0.022164,-0.025285 -0.0066966,0.095191 c -0.01042,0.14811 -0.007492,0.40253 0.0054915,0.47727 0.031041,0.17869 0.079541,0.28287 0.13169,0.28287 0.05237,0 0.087988,-0.073934 0.13824,-0.28695 0.074481,-0.31573 0.12667,-0.51794 0.14814,-0.5739 0.052806,-0.1377 0.061273,-0.1206 0.040103,0.080992 -0.029679,0.28261 -0.020543,0.49172 0.025346,0.58015 0.026927,0.051888 0.08647,0.082043 0.14177,0.071797 0.053276,-0.00987 0.12498,-0.077836 0.12498,-0.11846 0,-0.039517 -0.01185,-0.042866 -0.062682,-0.017716 -0.092382,0.045707 -0.10838,0.00648 -0.10838,-0.26566 0,-0.1123 0.0043668,-0.28188 0.009704,-0.37685 0.0096005,-0.17084 0.0094485,-0.17281 -0.014336,-0.18554 -0.058239,-0.031169 -0.15956,0.0462 -0.21922,0.16741 -0.04892,0.099377 -0.084228,0.21726 -0.13483,0.45017 -0.0244,0.1123 -0.046892,0.21535 -0.049982,0.22901 -0.00309,0.013658 -0.0099111,0.024832 -0.015158,0.024832 -0.014541,0 -0.021872,-0.037506 -0.035595,-0.1821 -0.0097183,-0.1024 -0.0093394,-0.18225 0.0016711,-0.35205 0.013753,-0.21209 0.01352,-0.22015 -0.0068068,-0.23521 -0.046751,-0.034652 -0.14316,0.016818 -0.20796,0.11102 -0.062311,0.090591 -0.11183,0.22832 -0.18161,0.50509 -0.074396,0.29508 -0.11062,0.39438 -0.16294,0.4467 -0.043368,0.043368 -0.045783,0.057157 -0.012186,0.069585 0.038169,0.014119 0.087602,-0.0052 0.12654,-0.049463 z m 2.8777,-0.41341 c 0.11949,-0.12775 0.18279,-0.37231 0.1826,-0.70553 -8.7611e-5,-0.15718 -0.01465,-0.28165 -0.035952,-0.30732 -0.0252,-0.030365 -0.14231,0.00514 -0.15882,0.048151 -0.0033235,0.00866 0.0063816,0.030515 0.021567,0.048562 0.034982,0.041574 0.044358,0.10589 0.04353,0.29861 -0.0012228,0.28456 -0.065067,0.54019 -0.15531,0.62186 -0.028867,0.026124 -0.019108,0.051373 0.019855,0.051373 0.0223,0 0.044324,-0.014866 0.08252,-0.0557 z m -1.1601,-0.014536 c 0.044386,-0.018545 0.091831,-0.073534 0.12025,-0.13937 l 0.021476,-0.049747 0.021041,0.040699 c 0.03735,0.072243 0.096786,0.093747 0.1636,0.059195 0.048632,-0.025149 0.086194,-0.096929 0.066986,-0.12801 -0.0068145,-0.011026 -0.017367,-0.00987 -0.049624,0.00544 -0.040081,0.019019 -0.041479,0.018931 -0.064489,-0.00409 -0.020089,-0.0201 -0.02342,-0.035962 -0.022836,-0.10875 3.7615e-4,-0.046868 0.012308,-0.15374 0.026516,-0.23749 0.028397,-0.1674 0.026553,-0.17698 -0.03407,-0.17698 -0.033754,0 -0.05221,0.014477 -0.081422,0.063868 -0.010144,0.017151 -0.013715,0.017262 -0.044146,0.00138 -0.042993,-0.022443 -0.078041,-0.021604 -0.13244,0.00317 -0.12079,0.055012 -0.21927,0.24086 -0.22009,0.41535 -4.841e-4,0.10279 0.015978,0.1578 0.063389,0.21179 0.052147,0.059392 0.098685,0.071611 0.16585,0.043547 z m -0.066262,-0.1243 c -0.028691,-0.043788 -0.033787,-0.20693 -0.009292,-0.29742 0.035768,-0.13214 0.11317,-0.21226 0.17696,-0.18319 0.03732,0.017004 0.044225,0.057657 0.029541,0.17392 -0.030954,0.24508 -0.1333,0.40424 -0.19721,0.30669 z m 0.62846,-0.030738 c 0.0085705,-0.00857 0.026125,-0.069409 0.039011,-0.1352 0.013989,-0.071422 0.041084,-0.16029 0.067249,-0.22057 0.097975,-0.22572 0.13844,-0.28575 0.17317,-0.25693 0.019629,0.016291 0.019408,0.020504 -0.011486,0.21813 -0.022852,0.14618 -0.011827,0.22402 0.038163,0.26943 0.037446,0.034021 0.071017,0.037843 0.12698,0.01446 0.041264,-0.017241 0.082554,-0.074107 0.08262,-0.11379 4.9639e-5,-0.029801 -0.019456,-0.031618 -0.064137,-0.00597 -0.027607,0.015844 -0.035686,0.01651 -0.050559,0.00416 -0.023452,-0.019464 -0.022521,-0.055444 0.0060236,-0.23272 0.026781,-0.16632 0.023046,-0.21911 -0.018437,-0.26059 -0.02005,-0.02005 -0.038357,-0.026358 -0.076492,-0.026358 -0.07283,0 -0.12456,0.050484 -0.18794,0.18343 -0.027146,0.056935 -0.052597,0.10352 -0.056556,0.10352 -0.0039592,0 -0.0038435,-0.025295 2.5848e-4,-0.05621 0.012082,-0.091077 -0.019111,-0.15348 -0.076716,-0.15348 -0.032119,0 -0.09238,0.034443 -0.099498,0.056869 -0.0047898,0.015092 0.0022186,0.030049 0.023188,0.049482 0.029929,0.027737 0.030029,0.028339 0.024194,0.14561 -0.0032233,0.064768 -0.014954,0.17914 -0.02607,0.25416 l -0.020211,0.1364 0.025772,0.020869 c 0.030628,0.0248 0.060055,0.026711 0.081478,0.00529 z m 1.1848,-0.31136 c 0.041535,-0.01971 0.071564,-0.056781 0.10926,-0.13489 l 0.024791,-0.051368 0.016688,0.039941 c 0.021486,0.051423 0.057275,0.075936 0.11087,0.075936 0.033804,0 0.05054,-0.00774 0.079668,-0.036874 0.039461,-0.039462 0.058861,-0.090329 0.04119,-0.108 -0.0070693,-0.00707 -0.02516,-0.00399 -0.052185,0.0089 -0.041107,0.019603 -0.041495,0.019565 -0.062316,-0.00615 -0.029023,-0.035842 -0.027177,-0.16456 0.0049635,-0.34602 0.014972,-0.084525 0.021142,-0.14717 0.015491,-0.15727 -0.0054941,-0.00982 -0.024755,-0.016785 -0.046402,-0.016785 -0.029131,0 -0.043698,0.00834 -0.06843,0.039161 l -0.031421,0.039161 -0.03648,-0.018202 c -0.075658,-0.03775 -0.17849,0.014068 -0.25485,0.12842 -0.10976,0.16436 -0.12197,0.4085 -0.02554,0.51051 0.051212,0.054176 0.10815,0.0651 0.17471,0.033517 z m -0.059963,-0.09888 c -0.014502,-0.010157 -0.027309,-0.038518 -0.035763,-0.079193 -0.044943,-0.21625 0.083103,-0.49005 0.19491,-0.41679 0.023222,0.015215 0.026405,0.025636 0.026278,0.086036 -2.0758e-4,0.098227 -0.035754,0.25719 -0.074814,0.33457 -0.038504,0.076276 -0.074403,0.10074 -0.11061,0.075374 z m -2.1391,-0.13303 c 0.040775,-0.040775 0.0416,-0.11671 0.0015533,-0.14295 -0.039292,-0.025746 -0.096167,-0.012577 -0.13258,0.030697 -0.034439,0.040929 -0.030532,0.078374 0.01216,0.11652 0.037447,0.03346 0.082767,0.031834 0.11887,-0.00426 z m -0.95892,-0.28341 c 0.049009,-0.051149 0.095631,-0.16919 0.10978,-0.27795 0.012398,-0.095288 0.018662,-0.11588 0.035244,-0.11588 0.0088602,0 0.071856,0.053896 0.13999,0.11977 0.14171,0.13701 0.1788,0.16023 0.25446,0.15931 0.057458,-6.985e-4 0.093717,-0.020601 0.13273,-0.072857 0.027101,-0.0363 0.012096,-0.06211 -0.02327,-0.040023 -0.04235,0.026447 -0.092757,0.00355 -0.21421,-0.097314 -0.063894,-0.053063 -0.13009,-0.10651 -0.1471,-0.11876 L 5.1355,292.425312 5.198531,292.348269 c 0.17907,-0.21888 0.21822,-0.28986 0.22012,-0.39905 9.2145e-4,-0.053108 -0.0039129,-0.07505 -0.021883,-0.099328 -0.043656,-0.058982 -0.11055,-0.072555 -0.15222,-0.030885 -0.015042,0.015042 -0.014452,0.02078 0.0056402,0.054833 0.027467,0.046554 0.029596,0.1434 0.0046983,0.21374 -0.031187,0.088105 -0.20143,0.33816 -0.23022,0.33816 -0.009563,0 -0.012263,-0.0303 -0.009834,-0.11037 0.0039019,-0.12859 -0.011907,-0.29595 -0.032152,-0.34039 -0.02578,-0.056582 -0.10491,-0.077484 -0.18101,-0.047812 -0.10088,0.039335 -0.14267,0.090893 -0.10457,0.129 0.030139,0.03014 0.049208,0.027622 0.10001,-0.013207 0.064232,-0.051618 0.069262,-0.040301 0.074557,0.16775 0.0069467,0.27294 -0.024906,0.52091 -0.081868,0.63733 -0.032735,0.066908 -0.029166,0.090889 0.013528,0.090889 0.020757,0 0.04371,-0.014486 0.075468,-0.04763 z m 2.6981,-0.18041 c 0.030565,-0.038857 0.037379,-0.069792 0.023444,-0.10644 -0.032634,-0.085834 -0.17739,-0.04463 -0.17739,0.050491 0,0.076531 0.10713,0.11547 0.15395,0.05595 z m -1.8279,-0.018779 c 0.051148,-0.021371 0.09213,-0.074538 0.14791,-0.19188 0.026689,-0.056149 0.053176,-0.10209 0.05886,-0.10209 0.0056843,0 0.010334,0.032664 0.010334,0.072587 0,0.066192 0.0029644,0.07555 0.033642,0.10623 0.029825,0.029825 0.038904,0.032937 0.080008,0.027423 0.034476,-0.00463 0.055566,-0.016257 0.082241,-0.045366 0.055445,-0.060501 0.045385,-0.12689 -0.013392,-0.08838 -0.084735,0.055521 -0.10041,-0.081482 -0.043651,-0.38152 0.026022,-0.13755 0.021168,-0.15451 -0.04423,-0.15451 -0.041912,0 -0.058012,0.031909 -0.10481,0.20773 -0.070881,0.26629 -0.15149,0.43761 -0.20248,0.43036 -0.021505,-0.00305 -0.024456,-0.00976 -0.023405,-0.053161 6.6135e-4,-0.027315 0.0093526,-0.10245 0.019314,-0.16696 0.026185,-0.16959 0.02445,-0.26816 -0.0052425,-0.29785 -0.031302,-0.031302 -0.10086,-0.023 -0.14064,0.016785 l -0.028189,0.028189 0.029873,0.031181 c 0.035479,0.037031 0.037758,0.073291 0.013333,0.21208 -0.029163,0.1657 -0.03184,0.25404 -0.0090232,0.29783 0.019051,0.036564 0.058592,0.065856 0.089379,0.06621 0.0077828,8.98e-5 0.030364,-0.00661 0.050179,-0.014891 z m 0.71895,-0.22012 c 0.025061,-0.026155 0.0692,-0.093315 0.098086,-0.14924 0.048322,-0.093561 0.073131,-0.11728 0.073403,-0.070186 5.9134e-5,0.010267 0.011846,0.043872 0.026194,0.074683 0.092838,0.19938 0.32811,0.046828 0.40912,-0.26527 0.01957,-0.075389 0.022253,-0.20208 0.0055532,-0.26222 -0.017364,-0.06252 -0.060662,-0.10795 -0.10289,-0.10795 -0.038957,0 -0.084249,0.026316 -0.084249,0.048953 0,0.00803 0.017167,0.0431 0.038149,0.077944 0.043808,0.072751 0.055697,0.13265 0.046844,0.23604 -0.019696,0.23002 -0.18906,0.34011 -0.22879,0.14873 -0.013458,-0.064827 -0.011025,-0.098434 0.01936,-0.26735 0.018039,-0.10028 0.017968,-0.1038 -0.0024059,-0.11869 -0.021927,-0.016034 -0.050236,-0.012016 -0.089541,0.012704 -0.016406,0.010322 -0.027254,0.035137 -0.036883,0.084384 -0.029831,0.15255 -0.10707,0.35556 -0.16827,0.44225 -0.047948,0.067918 -0.051673,0.032816 -0.023714,-0.22349 0.02269,-0.20801 0.017485,-0.24924 -0.034191,-0.27084 -0.084795,-0.03543 -0.20398,0.054913 -0.12183,0.092344 0.042575,0.019398 0.050217,0.054425 0.038336,0.17571 -0.029382,0.29995 -0.028533,0.32735 0.011387,0.36727 0.035743,0.035743 0.075078,0.027721 0.12632,-0.025762 z m 0.98587,-0.23283 c 0.043121,-0.022435 0.075169,-0.060266 0.10152,-0.11983 0.012721,-0.028757 0.02726,-0.052287 0.03231,-0.052287 0.0050498,0 0.015435,0.015097 0.023078,0.033549 0.018658,0.045044 0.051095,0.06578 0.1029,0.06578 0.035221,0 0.050731,-0.00774 0.085837,-0.042848 0.064636,-0.064637 0.057787,-0.13188 -0.0094991,-0.093262 -0.092967,0.053356 -0.11213,-0.047208 -0.063584,-0.33375 0.03061,-0.18069 0.028505,-0.19233 -0.034786,-0.19233 -0.031414,0 -0.041469,0.00648 -0.060714,0.039093 -0.012686,0.021501 -0.028659,0.036723 -0.035497,0.033827 -0.068993,-0.029227 -0.095436,-0.031684 -0.14349,-0.013334 -0.096371,0.036805 -0.19894,0.18297 -0.22858,0.32573 -0.017993,0.086673 -0.0077123,0.19789 0.024251,0.26233 0.044409,0.089539 0.1313,0.12633 0.20625,0.087335 z m -0.054903,-0.09528 c -0.048258,-0.028157 -0.063653,-0.22938 -0.026142,-0.34171 0.040518,-0.12134 0.11618,-0.19518 0.17029,-0.16622 0.03784,0.020251 0.047956,0.052085 0.040007,0.1259 -0.01844,0.17124 -0.076059,0.33888 -0.1293,0.37617 -0.028622,0.020048 -0.030256,0.020222 -0.054862,0.00586 z m -2.6019,-2.9067 c -0.019465,-0.023454 -0.13245,-0.099247 -0.13867,-0.093024 -0.0029831,0.00299 0.025575,0.028274 0.063463,0.056203 0.069309,0.051089 0.099188,0.065718 0.075206,0.036822 z m -0.50397,5.927 c -0.0082003,-0.02137 0.060452,-0.19471 0.080103,-0.20225 0.027544,-0.010564 0.044054,0.015654 0.027025,0.042923 -0.0081001,0.012971 -0.024091,0.050796 -0.035534,0.084057 -0.028878,0.083934 -0.056945,0.11344 -0.071594,0.075267 z m 5.2724,-0.79574 c -0.025053,-0.02718 -0.045552,-0.053887 -0.045552,-0.05935 0,-0.016057 0.031146,-0.037224 0.04352,-0.029576 0.023878,0.014757 0.079497,0.10718 0.073658,0.1224 -0.009754,0.025418 -0.023088,0.019188 -0.071626,-0.03347 z m -6.7482,-0.47336 c -0.0071296,-0.018581 0.090741,-0.11734 0.11629,-0.11734 0.035798,0 0.029756,0.020488 -0.022438,0.076081 -0.052952,0.056401 -0.082972,0.069598 -0.093847,0.041256 z m 0.025506,-1.0703 c 0,-0.024258 -0.0036683,-0.021534 0.35317,-0.26221 0.088016,-0.059364 0.23507,-0.16161 0.3268,-0.22722 0.091722,-0.065607 0.22384,-0.16011 0.2936,-0.21 0.069756,-0.049893 0.13314,-0.098315 0.14085,-0.10761 0.017135,-0.020646 0.055463,-0.022337 0.055463,-0.00245 0,0.024761 -0.024187,0.046341 -0.13244,0.11816 -0.057666,0.03826 -0.13961,0.095151 -0.1821,0.12643 -0.042491,0.031274 -0.19148,0.13571 -0.3311,0.23209 -0.13961,0.096374 -0.30712,0.21402 -0.37223,0.26144 -0.11577,0.084307 -0.15201,0.10132 -0.15201,0.071371 z m 7.4919,-0.19515 c -0.046589,-0.023804 -0.087902,-0.048449 -0.091806,-0.054765 -0.003904,-0.00631 -0.024141,-0.018606 -0.044972,-0.02731 -0.04118,-0.017206 -0.048665,-0.035575 -0.019118,-0.046913 0.011904,-0.00457 0.064414,0.016725 0.14374,0.058288 0.099305,0.052029 0.12437,0.069843 0.12196,0.086694 -0.004665,0.032665 -0.018528,0.030647 -0.10981,-0.015993 z m -8.3638,-0.31183 c 0,-0.014113 0.18297,-0.10705 0.29799,-0.15137 0.033386,-0.012862 0.12278,-0.052649 0.19866,-0.088415 0.25323,-0.11936 0.34213,-0.15008 0.34213,-0.11821 0,0.018044 -0.13206,0.086692 -0.2572,0.1337 -0.041305,0.015515 -0.088486,0.03541 -0.10485,0.044212 -0.016361,0.0088 -0.081894,0.039221 -0.14563,0.067601 -0.29155,0.12982 -0.3311,0.14325 -0.3311,0.11248 z m 1.0374,-0.46082 c 0,-0.016239 0.014301,-0.028595 0.051598,-0.044583 0.054659,-0.02343 0.081712,-0.024187 0.088937,-0.00249 0.0046157,0.013865 -0.09435,0.069537 -0.12361,0.069537 -0.0096622,0 -0.016922,-0.00964 -0.016922,-0.022465 z m 0.4525,-0.19804 c 0,-0.02371 0.036398,-0.045198 0.14899,-0.087959 0.036421,-0.013832 0.14437,-0.059684 0.23989,-0.10189 0.15585,-0.06887 0.20931,-0.083559 0.18992,-0.052181 -0.0099882,0.016161 -0.5459,0.26408 -0.57052,0.26393 -0.0045529,-2.79e-5 -0.0082775,-0.00988 -0.0082774,-0.021899 z m 6.6274,-0.34962 c -0.29136,-0.068989 -0.567,-0.13173 -0.61253,-0.13942 -0.059154,-0.00999 -0.082774,-0.018619 -0.082774,-0.030221 0,-0.022869 0.10754,-0.028004 0.15309,-0.0073 0.018992,0.00863 0.11399,0.034241 0.21112,0.056913 0.097121,0.022673 0.23122,0.055419 0.29799,0.072771 0.066771,0.01735 0.17107,0.042226 0.23177,0.055277 0.18352,0.039459 0.33049,0.077459 0.34158,0.088319 0.035074,0.034332 -0.060071,0.017367 -0.54024,-0.096328 z m -7.8249,-0.081001 c -0.0044152,-0.00715 -0.0035472,-0.017469 0.0019289,-0.022945 0.012792,-0.012792 0.22108,-0.05648 0.24852,-0.052125 0.033117,0.00525 0.022576,0.024173 -0.021903,0.039303 -0.022516,0.00766 -0.048388,0.017302 -0.057493,0.021426 -0.0091048,0.00412 -0.031454,0.00815 -0.049664,0.00894 -0.01821,7.978e-4 -0.051165,0.00525 -0.073233,0.00991 -0.027102,0.00572 -0.042728,0.00425 -0.048151,-0.00453 z m 0.68235,-0.15 c -0.0096721,-0.025206 0.0057316,-0.035364 0.065373,-0.043107 0.081679,-0.010608 0.32035,-0.057932 0.38769,-0.07688 0.031083,-0.00875 0.11611,-0.026304 0.18895,-0.03902 0.072841,-0.012716 0.17714,-0.03467 0.23177,-0.048787 0.17277,-0.044646 0.33466,-0.075775 0.35449,-0.068165 0.037374,0.014342 -0.011457,0.040937 -0.11311,0.061604 -0.05385,0.01095 -0.12522,0.025617 -0.15861,0.032598 -0.075943,0.015877 -0.19495,0.039627 -0.28143,0.056165 -0.036421,0.00696 -0.10347,0.021905 -0.14899,0.033202 -0.045526,0.011297 -0.12747,0.028595 -0.1821,0.038443 -0.054631,0.00985 -0.12913,0.025468 -0.16555,0.034714 -0.11591,0.029425 -0.17225,0.035496 -0.17849,0.019234 z m 5.9727,-0.038147 c -0.042491,-0.011591 -0.087023,-0.021189 -0.09896,-0.021328 -0.036159,-4.206e-4 -0.11625,-0.035394 -0.11625,-0.050764 0,-0.027401 0.021499,-0.027271 0.13467,8.14e-4 0.06251,0.015513 0.13849,0.034327 0.16884,0.041809 0.035465,0.00875 0.055183,0.019484 0.055183,0.03006 0,0.024141 -0.053629,0.023919 -0.14347,-5.91e-4 z m -0.56482,-0.16159 c -0.033028,-0.00658 -0.054782,-0.033912 -0.039308,-0.049385 0.019911,-0.019912 0.096449,0.0036 0.096449,0.029631 0,0.022343 -0.016142,0.027923 -0.057141,0.019754 z m -6.7749,-0.45667 c -0.018541,-0.03 0.021538,-0.039624 0.13839,-0.033228 0.092831,0.00508 0.11588,0.00964 0.11588,0.022897 0,0.013542 -0.02244,0.017121 -0.12329,0.019667 -0.082728,0.00209 -0.12582,-9.837e-4 -0.13099,-0.00934 z m 0.78513,-0.00856 c -0.0035053,-0.00567 0.0012272,-0.016619 0.010515,-0.024328 0.012846,-0.010663 0.072919,-0.013022 0.25096,-0.00986 0.29955,0.00531 0.34272,0.0053 0.88519,-3.483e-4 0.40536,-0.00422 0.45281,-0.0029 0.4558,0.012672 0.0028135,0.014607 -0.014795,0.018338 -0.11033,0.023385 -0.20291,0.010719 -1.4854,0.00942 -1.4921,-0.00152 z m 5.9918,-0.04581 c -0.0044433,-0.00719 -0.0037684,-0.017382 0.0014999,-0.02265 0.0052683,-0.00527 0.4019,-0.014665 0.88141,-0.020881 0.47951,-0.00621 0.93888,-0.013726 1.0208,-0.016689 0.15078,-0.00545 0.18489,4.62e-4 0.17353,0.030086 -0.005356,0.013957 -0.077901,0.017366 -0.49549,0.023274 -0.26907,0.00381 -0.56123,0.00581 -0.64925,0.00444 -0.088016,-0.00137 -0.33202,0.00156 -0.54223,0.00651 -0.29081,0.00684 -0.38414,0.00587 -0.39028,-0.00408 z m 2.538,-0.033807 c -0.014274,-0.023096 0.011183,-0.030235 0.12176,-0.034142 0.10431,-0.00369 0.11037,-0.00269 0.11037,0.018173 0,0.02042 -0.008403,0.022307 -0.11224,0.025209 -0.07418,0.00207 -0.11483,-0.00106 -0.11989,-0.00924 z m -6.2522,-0.30929 c -0.015359,-0.00572 -0.069935,-0.019114 -0.12128,-0.02976 -0.073732,-0.015288 -0.094196,-0.023721 -0.097354,-0.040119 -0.0035295,-0.018325 9.9219e-4,-0.019954 0.038506,-0.013872 0.12931,0.020963 0.24116,0.055016 0.24116,0.07342 0,0.020119 -0.023904,0.024165 -0.061034,0.010333 z m 3.5481,-0.066058 c -0.0040153,-0.0065 -0.0045089,-0.014602 -0.0010978,-0.018013 0.0034117,-0.00342 0.1213,-0.030176 0.26198,-0.059478 0.27336,-0.05694 0.41561,-0.088427 0.67567,-0.14957 0.17013,-0.039998 0.21168,-0.042953 0.21168,-0.015049 0,0.017511 -0.045712,0.029631 -0.23054,0.061127 -0.053955,0.0092 -0.10157,0.018865 -0.10582,0.02149 -0.004248,0.00262 -0.10413,0.024515 -0.22196,0.048645 -0.11783,0.02413 -0.23659,0.049081 -0.2639,0.055449 -0.041834,0.00975 -0.2088,0.045096 -0.29455,0.06235 -0.013286,0.00268 -0.027441,-4.548e-4 -0.031456,-0.00695 z m -4.1659,-0.076441 c -0.027315,-0.010829 -0.15148,-0.042622 -0.27591,-0.070645 -0.12444,-0.028023 -0.27591,-0.063388 -0.33661,-0.07859 -0.060701,-0.015202 -0.12427,-0.027602 -0.14126,-0.027554 -0.016994,4.64e-5 -0.04431,-0.0067 -0.060701,-0.01499 -0.016391,-0.0083 -0.057118,-0.021205 -0.090503,-0.028699 -0.16183,-0.036325 -0.34474,-0.079388 -0.41939,-0.098736 -0.045526,-0.011799 -0.16472,-0.0395 -0.26488,-0.061558 -0.25466,-0.056082 -0.24778,-0.054033 -0.25181,-0.074998 -0.0022318,-0.011587 0.0032894,-0.018922 0.014239,-0.018922 0.0098351,0 0.15795,0.034142 0.32915,0.075872 0.17119,0.04173 0.38079,0.091957 0.46577,0.11162 0.084981,0.01966 0.18431,0.043132 0.22073,0.05216 0.036421,0.00903 0.13823,0.032965 0.22625,0.053194 0.088016,0.020229 0.22708,0.052274 0.30902,0.071211 0.13074,0.030213 0.25888,0.057832 0.33985,0.073247 0.030513,0.00581 0.044601,0.035705 0.023209,0.04925 -0.020052,0.012697 -0.027911,0.011628 -0.087141,-0.011861 z m 2.3569,-0.10126 c -0.068501,-0.14248 -0.1283,-0.23942 -0.18941,-0.30706 -0.040025,-0.044303 -0.041062,-0.04743 -0.026888,-0.081063 0.041548,-0.09859 0.088911,-0.2562 0.10504,-0.34952 0.038809,-0.2246 0.033784,-0.53551 -0.012447,-0.77007 -0.0099001,-0.050229 -0.015122,-0.094204 -0.011604,-0.097722 0.010129,-0.010135 0.16541,0.079754 0.26376,0.15268 0.31846,0.23613 0.50815,0.5807 0.50828,0.92329 2.9908e-5,0.081168 -0.004066,0.11691 -0.014111,0.12312 -0.0077839,0.00481 -0.03697,0.00138 -0.064857,-0.00762 -0.087335,-0.028193 -0.14559,-0.029709 -0.1852,-0.00481 -0.071869,0.045161 -0.21263,0.27503 -0.2664,0.43504 -0.017967,0.053469 -0.035546,0.10009 -0.039063,0.10361 -0.0035174,0.00351 -0.033713,-0.050423 -0.067101,-0.11987 z m -0.6297,-0.03835 c -0.042491,-0.027288 -0.11078,-0.066727 -0.15175,-0.087643 -0.040973,-0.020915 -0.074497,-0.042579 -0.074497,-0.048142 0,-0.00556 0.028557,-0.015749 0.06346,-0.022635 0.10011,-0.01975 0.17807,-0.042565 0.27082,-0.079264 0.047278,-0.018705 0.088542,-0.031428 0.091698,-0.028272 0.0031561,0.00315 -0.0026449,0.024899 -0.012891,0.048317 -0.010246,0.023419 -0.034612,0.091992 -0.054146,0.15238 -0.019534,0.060392 -0.039999,0.11094 -0.045477,0.11234 -0.0054783,0.00139 -0.044725,-0.019795 -0.087216,-0.047083 z m 1.7525,-0.1002 c 0.0019278,-0.13027 -6.3302e-4,-0.15733 -0.017305,-0.18286 -0.01569,-0.024022 -0.027999,-0.029959 -0.062109,-0.029959 -0.049561,0 -0.058625,-0.00889 -0.083017,-0.081423 -0.016897,-0.050244 -0.016851,-0.055741 6.8283e-4,-0.082501 0.059624,-0.090998 0.20644,-0.21668 0.34881,-0.2986 0.15467,-0.089 0.44261,-0.2092 0.45461,-0.18977 0.0030746,0.00498 -0.021805,0.043275 -0.055287,0.085111 -0.096719,0.12085 -0.18195,0.25635 -0.37845,0.6017 -0.10098,0.17746 -0.18958,0.32458 -0.19689,0.32693 -0.010014,0.00323 -0.01274,-0.033503 -0.011037,-0.14862 z m -0.46123,-0.010972 c -0.018188,-0.035141 -0.059235,-0.098657 -0.091216,-0.14115 -0.054887,-0.072926 -0.056745,-0.077477 -0.033149,-0.081208 0.032713,-0.00518 0.48301,0.056223 0.48301,0.065856 0,0.00975 -0.28686,0.21057 -0.3087,0.21611 -0.011357,0.00288 -0.027706,-0.01663 -0.049952,-0.059611 z m 2.7033,-0.00415 c -0.012213,-0.019762 0.010344,-0.032885 0.094504,-0.05498 0.10885,-0.028579 0.21527,-0.038925 0.22576,-0.02195 0.004467,0.00723 0.006381,0.014882 0.004254,0.017009 -0.003401,0.0034 -0.30128,0.071919 -0.31267,0.071919 -0.002438,0 -0.00777,-0.0054 -0.011848,-0.011999 z m -5.0817,-0.060836 c -0.027315,-0.015632 -0.10678,-0.058545 -0.17658,-0.09536 -0.19796,-0.10441 -0.41496,-0.22074 -0.52975,-0.28401 -0.20998,-0.11572 -0.55937,-0.30034 -0.64012,-0.33824 -0.045526,-0.021367 -0.097673,-0.046594 -0.11588,-0.056062 -0.01821,-0.00946 -0.0567,-0.028995 -0.085533,-0.043395 -0.054112,-0.027026 -0.06498,-0.044077 -0.035341,-0.055452 0.016384,-0.00629 0.10963,0.035457 0.21468,0.096108 0.027315,0.015771 0.094362,0.052633 0.14899,0.081917 0.17765,0.095226 0.43742,0.23357 0.62908,0.33503 0.10319,0.054623 0.22239,0.11831 0.26488,0.14153 0.042491,0.02322 0.15408,0.08278 0.24798,0.13236 0.093898,0.049576 0.17253,0.095566 0.17475,0.1022 0.0072067,0.021619 -0.046329,0.012459 -0.097146,-0.016622 z m 3.5927,-0.048083 c -0.0091334,-0.014779 0.026176,-0.035698 0.15973,-0.094631 0.063736,-0.028125 0.22357,-0.10335 0.35519,-0.16717 0.22432,-0.10876 0.30425,-0.13611 0.31438,-0.10755 0.0040591,0.011438 -0.2055,0.11258 -0.37353,0.18028 -0.044461,0.017914 -0.12161,0.052774 -0.17143,0.077468 -0.049828,0.024694 -0.095494,0.044898 -0.10148,0.044898 -0.0059868,0 -0.045521,0.017382 -0.087854,0.038628 -0.085361,0.042839 -0.085806,0.042971 -0.095012,0.028076 z m -1.0874,-0.11531 -0.10485,-0.012094 -0.007037,-0.13796 c -0.0075967,-0.14893 -0.024275,-0.2347 -0.070818,-0.36421 -0.066014,-0.18368 -0.15689,-0.32906 -0.2851,-0.45606 L 6.6138,288.345997 6.632975,288.305479 c 0.069776,-0.14744 0.24205,-0.34646 0.40899,-0.47249 0.11095,-0.08376 0.23635,-0.1631 0.24465,-0.1548 0.0034789,0.00348 -0.0091334,0.054978 -0.028027,0.11444 -0.074492,0.23445 -0.094488,0.40573 -0.086591,0.74174 0.0066217,0.28177 0.028605,0.45289 0.09064,0.70553 0.03567,0.14527 0.039488,0.1813 0.018719,0.17667 -0.0041938,-9.349e-4 -0.054807,-0.00714 -0.11247,-0.013796 z m -1.7294,-0.11037 c -0.013358,-0.020742 -0.06054,-0.068584 -0.10485,-0.10631 -0.044308,-0.03773 -0.084456,-0.072118 -0.089219,-0.076416 -0.0047622,-0.0043 -0.018295,-0.048159 -0.030072,-0.097468 -0.028222,-0.11816 -0.064699,-0.2059 -0.11855,-0.28515 -0.064638,-0.095131 -0.14506,-0.18067 -0.16987,-0.18067 -0.031478,0 -0.076505,-0.026141 -0.11431,-0.066365 -0.01821,-0.019374 -0.085257,-0.081229 -0.14899,-0.13746 -0.12295,-0.10846 -0.15566,-0.12635 -0.33408,-0.18269 -0.17434,-0.055057 -0.22554,-0.12653 -0.14877,-0.20771 0.032213,-0.034062 0.033338,-0.037313 0.011037,-0.031909 -0.028514,0.00691 -0.032444,-0.00497 -0.0082775,-0.025025 0.0091048,-0.00756 0.016555,-0.018803 0.016555,-0.024994 0,-0.012856 -0.076093,-0.10561 -0.16217,-0.19768 -0.03221,-0.034453 -0.058564,-0.068188 -0.058564,-0.07497 0,-0.00679 -0.022796,-0.036699 -0.050657,-0.066485 -0.048138,-0.051464 -0.055102,-0.077336 -0.020817,-0.077336 0.008533,0 0.021226,0.010674 0.028205,0.023711 0.0069798,0.013041 0.040678,0.054261 0.074885,0.091599 0.034207,0.037338 0.093197,0.10781 0.13109,0.1566 0.10315,0.13283 0.097526,0.12935 0.17508,0.10824 0.036872,-0.010036 0.13198,-0.020375 0.21956,-0.023862 0.094614,-0.00377 0.15765,-0.010906 0.16262,-0.01843 0.014068,-0.021306 0.0091356,-0.1218 -0.0090365,-0.1841 -0.0096159,-0.03297 -0.046864,-0.11253 -0.082774,-0.17679 -0.03591,-0.064266 -0.065291,-0.12014 -0.065291,-0.12416 0,-0.027108 0.19338,0.034614 0.27318,0.08719 0.05367,0.035363 0.12414,0.11508 0.12414,0.14043 0,0.00599 -0.023591,-0.011102 -0.052424,-0.037983 -0.084855,-0.079109 -0.22374,-0.16384 -0.26855,-0.16384 -0.016822,0 -0.011398,0.025419 0.01413,0.06622 0.01874,0.029951 0.02511,0.03429 0.028359,0.019314 0.0060247,-0.027771 0.014802,-0.024847 0.086891,0.02895 0.12092,0.090242 0.20291,0.19323 0.28148,0.35359 0.057483,0.11733 0.067164,0.15805 0.034279,0.1442 -0.010623,-0.00447 -0.073841,-0.02766 -0.14048,-0.051525 -0.066644,-0.023865 -0.12492,-0.049292 -0.12951,-0.056506 -0.0045871,-0.00722 -0.0084912,-0.028015 -0.0086773,-0.046224 -1.8609e-4,-0.018211 -0.0048867,-0.0403 -0.010448,-0.049089 -0.0078093,-0.012343 -0.011771,-0.00858 -0.017412,0.016555 -0.016833,0.074996 -0.011272,0.071078 -0.10256,0.072262 -0.046634,6.047e-4 -0.097206,0.00481 -0.11238,0.00934 -0.022193,0.00663 -0.014636,0.00976 0.038628,0.015986 0.3024,0.035343 0.52354,0.12189 0.63955,0.25031 0.044518,0.049276 0.04594,0.069391 0.0052183,0.073809 -0.051567,0.0056 -0.1095,0.0257 -0.1095,0.038004 0,0.00683 0.036687,0.074923 0.081527,0.15131 0.11634,0.1982 0.16808,0.30606 0.21691,0.45219 0.064978,0.19447 0.10451,0.4986 0.065769,0.50593 -0.0091048,0.00172 -0.027484,-0.013841 -0.040843,-0.034584 z m 2.5304,-0.082442 c -0.0071725,-0.011605 0.042602,-0.067608 0.060089,-0.067608 0.013771,0 0.16983,-0.10671 0.33382,-0.22825 0.10006,-0.074165 0.14082,-0.09007 0.14033,-0.054756 -9.8011e-5,0.00694 -0.05597,0.049863 -0.12416,0.095389 -0.068191,0.045526 -0.18083,0.12375 -0.2503,0.17383 -0.1232,0.088807 -0.14754,0.10121 -0.15978,0.081403 z m -0.67305,-0.021788 c -0.008891,-0.014387 -0.059243,-0.37717 -0.072227,-0.52039 -0.014617,-0.16123 -0.015023,-0.51927 -6.3175e-4,-0.55712 0.01722,-0.045291 0.26061,-0.27947 0.3758,-0.36158 0.14177,-0.10105 0.40279,-0.22683 0.42489,-0.20474 0.0038942,0.00389 -0.025047,0.045944 -0.064312,0.093445 -0.2292,0.27727 -0.37055,0.55706 -0.43436,0.85978 -0.025749,0.12215 -0.030269,0.17098 -0.0315,0.34024 l -0.0014376,0.19763 -0.073085,0.069241 c -0.078664,0.074527 -0.11391,0.098422 -0.12314,0.083489 z m -2.2463,-0.2 c -0.045526,-0.02376 -0.090593,-0.045324 -0.10015,-0.047921 -0.0095564,-0.0026 -0.051772,-0.060254 -0.09381,-0.12813 -0.042039,-0.067877 -0.10251,-0.15617 -0.13438,-0.1962 -0.031868,-0.040033 -0.057942,-0.079226 -0.057942,-0.087097 0,-0.018478 0.049948,-0.0095 0.13433,0.024151 0.16639,0.066346 0.28977,0.20625 0.34451,0.39066 0.031444,0.10592 0.02811,0.10752 -0.09257,0.044539 z m 2.5078,-0.02447 c -0.036724,-0.045072 -0.045319,-0.18687 -0.018889,-0.31165 0.020191,-0.095322 0.070583,-0.17203 0.15759,-0.2399 0.11275,-0.087945 0.22577,-0.14284 0.17099,-0.08305 -0.032478,0.03545 -0.087658,0.13745 -0.11231,0.20761 -0.0116,0.033014 -0.038211,0.097274 -0.059135,0.1428 -0.020924,0.045526 -0.054112,0.1312 -0.073752,0.19038 -0.01964,0.059184 -0.039657,0.10761 -0.044484,0.10761 -0.0048261,0 -0.013833,-0.00621 -0.020016,-0.013796 z m 1.9993,-0.035341 c -0.009147,-0.023837 0.002568,-0.036094 0.048383,-0.050618 0.022678,-0.00719 0.051166,-0.019253 0.063306,-0.026809 0.01214,-0.00756 0.084154,-0.039832 0.16003,-0.071727 0.075876,-0.031895 0.17382,-0.074824 0.21766,-0.095399 0.08872,-0.041642 0.12813,-0.04781 0.12253,-0.019176 -0.002357,0.012045 -0.10283,0.062579 -0.29604,0.1489 -0.16086,0.071864 -0.29635,0.13071 -0.30109,0.13076 -0.004743,5.34e-5 -0.011391,-0.00712 -0.014774,-0.015929 z m -1.8913,-0.030879 c 2.3592e-4,-0.033999 0.028352,-0.15097 0.038588,-0.16054 0.0045717,-0.00427 0.0049231,0.023271 7.8264e-4,0.061209 -0.0052613,0.048205 -0.0037895,0.068978 0.0048889,0.068978 0.0068299,0 0.046067,-0.019653 0.087194,-0.043672 0.11057,-0.064574 0.22713,-0.1005 0.32776,-0.10103 0.045879,-2.401e-4 0.086274,0.00242 0.089766,0.00592 0.0034921,0.00349 -0.016304,0.00635 -0.043992,0.00635 -0.074481,0 -0.18455,0.037889 -0.34022,0.11711 -0.076208,0.038783 -0.1445,0.070514 -0.15175,0.070514 -0.0072552,0 -0.013114,-0.011175 -0.01302,-0.024832 z m 1.0526,-0.20889 c -0.010201,-0.016505 0.036302,-0.056028 0.1778,-0.1511 0.18885,-0.12689 0.49292,-0.3435 0.57731,-0.41126 0.078536,-0.063053 0.12351,-0.080925 0.12351,-0.049085 0,0.014344 -0.085979,0.078495 -0.40835,0.30468 -0.063736,0.044718 -0.15313,0.10956 -0.19866,0.1441 -0.10634,0.080669 -0.24432,0.17566 -0.25515,0.17566 -0.004631,0 -0.012034,-0.00585 -0.016452,-0.012995 z m -2.5607,-0.1173 c -0.095789,-0.10343 -0.20309,-0.18408 -0.33244,-0.24989 -0.044008,-0.022389 -0.080015,-0.045542 -0.080015,-0.051453 0,-0.0059 0.01683,-0.059094 0.037399,-0.11819 0.058066,-0.16682 0.077532,-0.27541 0.07752,-0.43243 -9.429e-6,-0.12189 -0.0035361,-0.14809 -0.030277,-0.22493 -0.016647,-0.047833 -0.027917,-0.089319 -0.025044,-0.092191 0.0028719,-0.00288 0.04651,0.00844 0.096974,0.025146 0.2351,0.077815 0.42205,0.18404 0.52825,0.30016 0.080787,0.088329 0.27535,0.35263 0.27535,0.37405 0,0.00971 -0.016759,0.040658 -0.037242,0.068786 -0.020483,0.028128 -0.0479,0.072251 -0.060925,0.098048 -0.013026,0.025797 -0.029186,0.046905 -0.035911,0.046905 -0.016232,0 -0.10488,-0.053107 -0.21336,-0.12782 -0.087951,-0.060572 -0.1323,-0.080402 -0.14696,-0.065708 -0.01534,0.015377 -0.0040264,0.16788 0.019679,0.26526 0.026115,0.10728 0.042555,0.28153 0.026537,0.28127 -0.0054078,-8.87e-5 -0.050201,-0.043748 -0.09954,-0.097019 z m 1.9126,0.078789 c -0.0040473,-0.00404 -0.0073576,-0.011724 -0.0073576,-0.017063 0,-0.00534 0.17507,-0.1854 0.38904,-0.40014 0.21397,-0.21474 0.41844,-0.42186 0.45437,-0.46027 0.19462,-0.20805 0.38534,-0.3933 0.39937,-0.38792 0.0084645,0.00325 0.01537,0.011582 0.015345,0.01852 -2.4721e-5,0.00694 -0.14281,0.15742 -0.3173,0.33439 -0.30651,0.31088 -0.64943,0.66114 -0.81809,0.83559 -0.077169,0.07982 -0.098334,0.093925 -0.11538,0.076884 z m -3.8219,-0.10049 c -0.080253,-0.074047 -0.18929,-0.17173 -0.42353,-0.37941 -0.1123,-0.099567 -0.29607,-0.26285 -0.40838,-0.36284 -0.11231,-0.099997 -0.23151,-0.20406 -0.26488,-0.23125 -0.033371,-0.027191 -0.10661,-0.091294 -0.16276,-0.14245 -0.093658,-0.085335 -0.12109,-0.12265 -0.090169,-0.12265 0.012766,0 0.30068,0.25048 0.67757,0.58949 0.12763,0.1148 0.30655,0.2726 0.3976,0.35066 0.2739,0.23483 0.36972,0.32218 0.36972,0.33702 0,0.028516 -0.040097,0.012275 -0.095187,-0.038555 z m 6.1542,-0.010818 c 0,-0.017681 0.076801,-0.068491 0.10485,-0.069365 0.00607,-1.894e-4 0.030902,-0.00994 0.055183,-0.021667 0.05179,-0.025016 0.09381,-0.028234 0.09381,-0.00718 0,0.015508 -0.2049,0.11755 -0.23605,0.11755 -0.009787,0 -0.017795,-0.0087 -0.017795,-0.019334 z m -2.8143,-0.11223 c 0,-0.032653 0.13016,-0.36001 0.13944,-0.35072 0.0021052,0.0021 -0.015993,0.062823 -0.040217,0.13493 -0.024225,0.072107 -0.044045,0.13258 -0.044045,0.13438 0,0.012169 0.031242,-0.00194 0.070149,-0.031689 0.033625,-0.025707 0.025358,-0.014019 -0.031225,0.044146 -0.074027,0.076097 -0.094106,0.09081 -0.094107,0.068954 z m -5.1927,-0.069183 c -0.030351,-0.019126 -0.10609,-0.059146 -0.16831,-0.088934 -0.08364,-0.040043 -0.11312,-0.059521 -0.11312,-0.07473 0,-0.034984 0.020471,-0.03577 0.074736,-0.00288 0.028701,0.017401 0.09998,0.055167 0.1584,0.083925 0.10876,0.053542 0.14983,0.085336 0.13702,0.10607 -0.011478,0.018572 -0.029643,0.013768 -0.088722,-0.023462 z m 5.5675,-0.06613 c 0.011954,-0.027025 0.018748,-0.059611 0.015232,-0.073058 -0.005063,-0.019363 -0.0016205,-0.024275 0.017012,-0.024275 0.012848,0 0.023251,0.00621 0.023118,0.013795 -4.1063e-4,0.023386 -0.039388,0.10125 -0.058673,0.1172 -0.015559,0.012876 -0.015069,0.00789 0.0033116,-0.033667 z m -2.3393,-0.054364 c -0.015175,-0.00618 -0.087189,-0.021329 -0.16003,-0.033673 -0.072841,-0.012344 -0.1349,-0.024843 -0.13791,-0.027778 -0.0030085,-0.00293 -0.0038127,-0.070748 -0.0017857,-0.1507 0.0044934,-0.17731 -0.020077,-0.37114 -0.060354,-0.4761 -0.0042478,-0.011071 -5.9244e-5,-0.01691 0.012132,-0.01691 0.029687,0 0.34517,0.15591 0.44477,0.2198 l 0.090794,0.058242 v 0.067164 c 0,0.084717 -0.034839,0.21459 -0.08059,0.30043 -0.037213,0.069821 -0.056027,0.080284 -0.10703,0.059525 z m -0.41599,-0.18909 c -0.040488,-0.041774 -0.047667,-0.057488 -0.064337,-0.14083 -0.01032,-0.051596 -0.030887,-0.13575 -0.045703,-0.187 -0.027142,-0.093897 -0.091409,-0.25874 -0.098218,-0.25193 -0.0020181,0.00202 0.0084857,0.045476 0.023341,0.096574 0.033773,0.11617 0.034602,0.13192 0.0055609,0.10564 -0.012554,-0.011361 -0.028738,-0.052119 -0.039024,-0.098281 -0.047521,-0.21325 -0.10714,-0.35101 -0.293,-0.67706 -0.078799,-0.13823 -0.1417,-0.25606 -0.13977,-0.26183 0.0066471,-0.01994 0.029709,-0.019161 0.029739,10e-4 2.5931e-5,0.017689 0.010086,0.020325 0.080015,0.02096 0.28895,0.00262 0.56577,0.21687 0.74768,0.57866 0.039403,0.078369 0.14349,0.31492 0.14349,0.3261 0,0.012531 -0.047099,0.0024 -0.13064,-0.028085 -0.088684,-0.032366 -0.1818,-0.043316 -0.19444,-0.022866 -0.0034822,0.00563 0.0063353,0.084179 0.021816,0.17455 0.029354,0.17135 0.035204,0.39944 0.010456,0.40764 -0.0062615,0.00207 -0.031892,-0.017387 -0.056957,-0.043247 z m 1.5036,-0.033225 c -0.04653,-0.080164 -0.14829,-0.20423 -0.27763,-0.33848 -0.075202,-0.078058 -0.13673,-0.14868 -0.13673,-0.15694 0,-0.065395 0.51985,-0.60875 0.55182,-0.57677 0.0061183,0.00611 0.0061503,0.038188 8.1585e-5,0.081121 -0.020831,0.14737 0.019075,0.30495 0.14243,0.56241 0.041904,0.087462 0.073904,0.16498 0.071111,0.17226 -0.0027937,0.00728 -0.069382,0.071429 -0.14798,0.14256 -0.078593,0.071126 -0.1429,0.13391 -0.1429,0.13953 0,0.024584 -0.041245,0.00701 -0.060207,-0.025663 z m 0.54115,-0.071738 c 0.0040572,-0.022762 0.021449,-0.078635 0.03865,-0.12416 0.039074,-0.10342 0.056246,-0.17905 0.043538,-0.19176 -0.01804,-0.018041 -0.08537,0.00443 -0.1483,0.04949 -0.034491,0.024698 -0.069052,0.042472 -0.076803,0.039498 -0.019507,-0.00749 -0.085204,-0.13712 -0.12878,-0.25411 l -0.036326,-0.097531 0.029747,-0.060653 c 0.084988,-0.17329 0.24054,-0.4022 0.35386,-0.52075 0.15755,-0.16482 0.4417,-0.35952 0.64093,-0.43917 0.094701,-0.037858 0.06816,-0.048466 -0.036041,-0.014406 -0.15035,0.049146 -0.29953,0.13934 -0.45508,0.27516 -0.098667,0.086148 -0.11382,0.092192 -0.054104,0.021586 0.1308,-0.15466 0.34396,-0.2889 0.51821,-0.32634 0.087019,-0.0187 0.091319,-0.021072 0.10635,-0.058677 0.0086167,-0.021554 0.030299,-0.069597 0.048183,-0.10676 0.017884,-0.037165 0.032517,-0.075378 0.032517,-0.084917 0,-0.00954 0.012052,-0.031279 0.026782,-0.04831 0.024813,-0.028689 0.02738,-0.029426 0.034915,-0.010025 0.0044725,0.011517 0.0027804,0.033867 -0.0037598,0.049665 -0.044965,0.1086 -0.078086,0.19924 -0.083512,0.22855 l -0.0063463,0.034279 0.046311,-0.00897 c 0.11435,-0.022136 0.11254,-0.00296 -0.011991,0.1273 -0.32304,0.3379 -0.54045,0.77994 -0.6249,1.2705 -0.015435,0.089662 -0.020322,0.10126 -0.053174,0.12624 -0.019898,0.01513 -0.068857,0.058585 -0.1088,0.09657 -0.085484,0.081293 -0.10254,0.08642 -0.09207,0.027674 z m -1.5154,-0.25 c -0.037659,-0.028712 -0.080017,-0.060298 -0.094128,-0.070192 -0.017777,-0.012462 -0.03353,-0.045233 -0.05129,-0.1067 -0.027783,-0.09615 -0.11903,-0.28969 -0.18451,-0.39134 -0.031994,-0.04967 -0.042356,-0.078554 -0.04751,-0.13244 -0.0055256,-0.057769 -0.0097393,-0.068383 -0.026054,-0.065637 -0.023581,0.00397 -0.038034,-0.027451 -0.020632,-0.044854 0.0068762,-0.00687 0.012578,-0.022683 0.012671,-0.035127 1.2846e-4,-0.017219 0.0024775,-0.018981 0.0098296,-0.00737 0.0076473,0.012075 0.011144,0.010586 0.016776,-0.00716 0.0093196,-0.029362 -0.011104,-0.15506 -0.03832,-0.23585 -0.025722,-0.076353 -0.025673,-0.075746 -0.0061172,-0.075746 0.025148,0 0.12524,0.11773 0.17227,0.20263 0.024009,0.043341 0.074284,0.15578 0.11172,0.24987 0.074152,0.18635 0.082505,0.20146 0.097763,0.17677 0.022861,-0.03699 0.047149,-0.22263 0.039775,-0.30401 -0.022401,-0.2472 -0.17373,-0.55404 -0.40554,-0.8223 -0.043886,-0.050786 -0.074816,-0.096046 -0.071516,-0.10465 0.0071406,-0.018607 0.060962,-0.012022 0.15554,0.019032 0.16872,0.055396 0.28926,0.1705 0.46085,0.44006 l 0.074152,0.11649 -0.037802,0.087548 c -0.097608,0.22606 -0.13012,0.45843 -0.10175,0.72724 0.0014717,0.01394 -0.0055763,0.023165 -0.019788,0.025903 -0.01214,0.00234 -0.026218,0.00816 -0.031285,0.012946 -0.0050663,0.00478 0.0069192,0.055205 0.026635,0.11205 0.035543,0.10249 0.05892,0.28576 0.036385,0.28524 -0.0053141,-1.205e-4 -0.040473,-0.023711 -0.078132,-0.052423 z m 2.3642,0.030798 c -0.0093603,-0.015146 0.0049947,-0.039117 0.12522,-0.20912 0.058267,-0.082388 0.13166,-0.18953 0.1631,-0.23809 0.031437,-0.048561 0.067925,-0.10195 0.081085,-0.11864 0.023745,-0.030119 0.055359,-0.040897 0.055359,-0.018874 0,0.022057 -0.046817,0.10297 -0.098156,0.16963 -0.028467,0.036967 -0.068348,0.094526 -0.088624,0.12791 -0.020276,0.033385 -0.049867,0.076113 -0.065758,0.094951 -0.015891,0.018837 -0.052614,0.072227 -0.081607,0.11864 -0.049271,0.078881 -0.074624,0.099468 -0.09062,0.073584 z m -0.5432,-0.09 c 0.0068839,-0.073718 0.049099,-0.21902 0.091465,-0.31482 0.0233,-0.052685 0.032111,-0.061185 0.089719,-0.086551 0.035135,-0.015471 0.080022,-0.040366 0.09975,-0.055324 0.045681,-0.034635 0.045406,-0.021791 -0.0019146,0.089358 -0.032702,0.076813 -0.069279,0.19833 -0.088296,0.29334 -0.0039261,0.019614 -0.030877,0.045258 -0.089894,0.085533 -0.046358,0.031636 -0.08946,0.05752 -0.095783,0.05752 -0.0074325,0 -0.009216,-0.024412 -0.0050462,-0.069062 z m 0.2285,-0.11 c 0,-0.050822 0.039456,-0.17513 0.065706,-0.20701 0.021107,-0.025632 0.021108,-0.024994 8.2676e-5,0.05685 -0.037356,0.14541 -0.028762,0.16377 0.059429,0.12692 0.021792,-0.00911 0.060888,-0.016048 0.086881,-0.015428 l 0.04726,0.00112 -0.038628,0.010686 c -0.021245,0.00587 -0.076478,0.022751 -0.12274,0.037501 -0.046262,0.01475 -0.087235,0.026818 -0.091051,0.026818 -0.0038171,0 -0.0069401,-0.016859 -0.0069395,-0.037465 z m -1.6634,-0.068027 c -0.04987,-0.027446 -0.092936,-0.053564 -0.095702,-0.05804 -0.0027661,-0.00447 0.016938,-0.081759 0.043786,-0.17174 0.055525,-0.18609 0.092846,-0.35767 0.093094,-0.42798 3.0232e-4,-0.085773 0.011459,-0.087055 0.097067,-0.011158 0.13852,0.12281 0.2898,0.30008 0.28873,0.33832 -1.7247e-4,0.00615 -0.049812,0.06822 -0.11031,0.13793 -0.060498,0.069712 -0.12864,0.15279 -0.15144,0.18462 -0.022793,0.031832 -0.048892,0.057891 -0.057997,0.05791 -0.0091048,1.89e-5 -0.057358,-0.022422 -0.10723,-0.049868 z m -0.20896,-0.081818 c -0.025926,-0.01073 -0.040661,-0.048167 -0.058471,-0.14857 -0.039422,-0.22224 0.016332,-0.44061 0.22542,-0.88288 0.10129,-0.21425 0.1478,-0.33027 0.23092,-0.57599 0.057246,-0.16924 0.11467,-0.33129 0.12761,-0.36012 0.040208,-0.089607 0.055555,-0.06655 0.055695,0.083677 1.2155e-4,0.13024 0.0175,0.32953 0.039139,0.44884 0.025199,0.13894 0.063255,0.25464 0.13249,0.40283 0.082975,0.1776 0.10238,0.23501 0.12121,0.35869 0.029216,0.1919 0.018457,0.24026 -0.062796,0.28228 -0.018037,0.00933 -0.052231,0.034519 -0.075987,0.05598 -0.023756,0.021461 -0.047556,0.037322 -0.052889,0.035245 -0.005334,-0.00208 -0.043956,-0.044278 -0.085828,-0.09378 -0.123,-0.14541 -0.32609,-0.37324 -0.33606,-0.377 -0.0050619,-0.00191 -0.012183,0.015475 -0.015825,0.038628 -0.019082,0.1213 -0.077598,0.39458 -0.11891,0.55529 -0.044279,0.17228 -0.048293,0.18223 -0.074396,0.18441 -0.015175,0.00127 -0.038267,-0.00212 -0.051315,-0.00751 z m 0.99585,-0.12355 c -0.0025414,-0.0081 -0.0073521,-0.046996 -0.010692,-0.086451 -0.0055234,-0.065266 -0.0018926,-0.11041 0.021528,-0.26764 0.0075912,-0.05096 0.0070183,-0.052423 -0.020539,-0.052423 -0.02972,0 -0.034198,-0.0076 -0.04697,-0.079693 -0.0068068,-0.038426 -0.0032762,-0.045519 0.054939,-0.11037 0.034218,-0.038116 0.0782,-0.10252 0.097738,-0.14312 0.019538,-0.040601 0.04049,-0.072556 0.04656,-0.071012 0.016668,0.00424 0.070318,0.22945 0.084453,0.35452 0.015666,0.13861 0.0061789,0.17616 -0.06702,0.26527 -0.030096,0.036635 -0.071163,0.095826 -0.09126,0.13154 -0.037084,0.065893 -0.060374,0.08601 -0.068739,0.059372 z m 0.81028,-0.079205 c 0,-0.03145 0.10725,-0.26788 0.11707,-0.25806 0.0018804,0.00188 -0.008403,0.040459 -0.022851,0.08573 -0.014448,0.045271 -0.022283,0.086438 -0.017411,0.091483 0.0048724,0.00505 0.029796,-0.00151 0.055387,-0.014565 0.060664,-0.030949 0.067204,-0.022309 0.014548,0.019221 -0.073551,0.058007 -0.14674,0.096011 -0.14674,0.076192 z m -2.0531,-0.14592 c -0.00592,-0.01557 -0.010764,-0.032602 -0.010764,-0.037849 0,-0.017678 -0.098726,-0.22243 -0.14026,-0.29088 -0.022647,-0.037328 -0.072902,-0.10428 -0.11168,-0.14878 -0.055243,-0.063402 -0.063675,-0.077323 -0.038963,-0.064326 0.08504,0.044724 0.18808,0.18751 0.24775,0.3433 0.042612,0.11127 0.054216,0.1243 0.054086,0.060746 -1.3853e-4,-0.067916 -0.046203,-0.26462 -0.085925,-0.36692 -0.018159,-0.046764 -0.030742,-0.085026 -0.027962,-0.085026 0.01309,0 0.092847,0.19236 0.1144,0.27591 0.028228,0.10943 0.043822,0.34213 0.022927,0.34213 -0.0070668,0 -0.017693,-0.012739 -0.023612,-0.028311 z m 4.0989,-0.098498 c -0.007756,-0.020213 0.13386,-0.1767 0.15991,-0.1767 0.042367,0 0.024162,0.041945 -0.050694,0.1168 -0.077909,0.077909 -0.098066,0.088963 -0.10922,0.059897 z m -4.5135,-0.0623 c -0.036039,-0.040385 -0.15951,-0.12958 -0.22103,-0.15968 -0.032341,-0.015823 -0.0999,-0.043131 -0.15013,-0.060685 l -0.091328,-0.031916 0.060701,0.0065 c 0.16871,0.018067 0.3631,0.13233 0.43474,0.25555 0.013135,0.022589 -0.010275,0.015654 -0.032958,-0.00976 z m -1.0344,-0.066312 c -0.0718,-0.11237 -0.17305,-0.28932 -0.17305,-0.30243 0,-0.00883 0.0086917,-0.016006 0.019314,-0.015946 0.012869,7.24e-5 0.036833,0.032298 0.071814,0.09657 0.028875,0.053053 0.068606,0.12474 0.088292,0.15929 0.027126,0.04762 0.032701,0.065944 0.023024,0.075677 -0.0096963,0.00975 -0.016768,0.00659 -0.02939,-0.013171 z m -0.97242,-0.091823 c -0.048129,-0.057207 -0.092099,-0.11222 -0.097713,-0.12225 -0.012643,-0.022593 0.0036551,-0.04152 0.027781,-0.032263 0.019476,0.00747 0.096071,0.095404 0.11982,0.13755 0.0085506,0.015176 0.029313,0.04403 0.04614,0.064121 0.029707,0.03547 0.031492,0.057504 0.0046234,0.057069 -0.0072298,-1.171e-4 -0.052522,-0.047019 -0.10065,-0.10423 z m 2.0172,-0.1885 c -0.0035945,-0.00936 -0.0040693,-0.019496 -0.0010554,-0.022511 0.003014,-0.00302 0.0081287,0.00465 0.011367,0.017031 0.0068773,0.0263 -7.6404e-4,0.03036 -0.010311,0.00547 z m 1.7013,-0.021597 c 0.0039537,-0.01214 0.019631,-0.066772 0.034838,-0.1214 0.03658,-0.13141 0.040538,-0.13981 0.045373,-0.09634 0.0052392,0.047116 -0.022675,0.14009 -0.058748,0.19567 -0.015758,0.02428 -0.025417,0.034214 -0.021463,0.022073 z m -1.7144,-0.038628 c 0,-0.015176 0.002505,-0.021383 0.0055664,-0.013795 0.0030614,0.00759 0.0030614,0.020004 0,0.027591 -0.0030614,0.00759 -0.0055664,0.00138 -0.0055664,-0.013796 z m 0.62182,-0.14102 c -0.09757,-0.14239 -0.20462,-0.26243 -0.28074,-0.3148 -0.02735,-0.018818 -0.087116,-0.050885 -0.13281,-0.07126 -0.079312,-0.035365 -0.08083,-0.036711 -0.033421,-0.029649 0.1138,0.016953 0.25195,0.092358 0.3514,0.19181 0.069219,0.069219 0.11465,0.13454 0.15801,0.22719 0.018405,0.039332 0.0378,0.071512 0.0431,0.071512 0.0087027,0 0.092133,-0.13555 0.15284,-0.24832 0.038912,-0.072283 0.014464,9.801e-4 -0.03683,0.11037 -0.057194,0.12197 -0.10151,0.19332 -0.11959,0.19257 -0.0075118,-3.122e-4 -0.053389,-0.058549 -0.10195,-0.12942 z m 0.7018,-0.42803 c -0.037233,-0.14786 -0.058436,-0.41927 -0.035572,-0.45533 0.0053318,-0.00841 0.011991,0.052079 0.015794,0.14347 0.0036166,0.086908 0.014082,0.20251 0.023258,0.25689 0.018324,0.1086 0.016657,0.13494 -0.00348,0.05497 z m -1.3861,0.00619 c 0.0037521,-0.00607 0.0090111,-0.011037 0.011688,-0.011037 0.0026769,0 0.0048669,0.00497 0.0048669,0.011037 0,0.00607 -0.0052591,0.011037 -0.011688,0.011037 -0.0064279,0 -0.0086189,-0.00497 -0.0048669,-0.011037 z m 1.2196,-0.53 c 0,-0.00607 0.0052591,-0.011037 0.011688,-0.011037 0.0064279,0 0.0086189,0.00497 0.0048669,0.011037 -0.003751,0.00607 -0.0090111,0.011037 -0.011688,0.011037 -0.0026769,0 -0.0048669,-0.00497 -0.0048669,-0.011037 z"
       inkscape:connector-curvature="0"
       style="fill:#333333;fill-opacity:1" />
  </g>
</svg>
