<?xml version="1.0" encoding="UTF-8" standalone="no"?>
<!-- Created with Inkscape (http://www.inkscape.org/) -->

<svg
   xmlns:dc="http://purl.org/dc/elements/1.1/"
   xmlns:cc="http://creativecommons.org/ns#"
   xmlns:rdf="http://www.w3.org/1999/02/22-rdf-syntax-ns#"
   xmlns:svg="http://www.w3.org/2000/svg"
   xmlns="http://www.w3.org/2000/svg"
   xmlns:sodipodi="http://sodipodi.sourceforge.net/DTD/sodipodi-0.dtd"
   xmlns:inkscape="http://www.inkscape.org/namespaces/inkscape"
   id="svg8"
   height="271.3110046"
   viewBox="0 0 182.5625 71.78436998"
   width="690"
   version="1.1"
   sodipodi:docname="kuwa_mjanja - copia.svg"
   inkscape:version="0.92.2 (5c3e80d, 2017-08-06)">
  <defs
     id="defs9" />
  <sodipodi:namedview
     pagecolor="#ffffff"
     bordercolor="#666666"
     borderopacity="1"
     objecttolerance="10"
     gridtolerance="10"
     guidetolerance="10"
     inkscape:pageopacity="0"
     inkscape:pageshadow="2"
     inkscape:window-width="1920"
     inkscape:window-height="1017"
     id="namedview7"
     showgrid="false"
     inkscape:zoom="1.083455184"
     inkscape:cx="156.5784256"
     inkscape:cy="-18.77839893"
     inkscape:window-x="-8"
     inkscape:window-y="-8"
     inkscape:window-maximized="1"
     inkscape:current-layer="svg8" />
  <title
     id="title4753">UIO-icon</title>
  <metadata
     id="metadata5">
    <rdf:RDF>
      <cc:Work
         rdf:about="">
        <dc:format>image/svg+xml</dc:format>
        <dc:type
           rdf:resource="http://purl.org/dc/dcmitype/StillImage" />
        <dc:title>UIO-icon</dc:title>
        <dc:creator>
          <cc:Agent>
            <dc:title>Joaquín Urbano</dc:title>
          </cc:Agent>
        </dc:creator>
        <dc:rights>
          <cc:Agent>
            <dc:title>GPL</dc:title>
          </cc:Agent>
        </dc:rights>
      </cc:Work>
    </rdf:RDF>
  </metadata>
  <g
     id="layer1"
     transform="matrix(22.09672799,0,0,22.09672799,-49.85412134,-6456.896502)"
     style="fill:#ffffff;stroke-width:0.0452542305">
    <path
       id="rect894"
       d="m 5.7819,292.21 c -0.031221,-4.01e-5 -0.053831,0.049226 -0.081815,0.16197 -0.018042,0.072688 -0.056814,0.20856 -0.086169,0.30194 -0.061251,0.19485 -0.068495,0.27646 -0.030122,0.3394 0.044253,0.072584 0.1377,0.089651 0.23721,0.04332 0.16596,-0.077271 0.2649,-0.29178 0.20111,-0.43598 -0.038194,-0.086344 -0.10464,-0.10465 -0.21332,-0.058763 -0.025357,0.010705 -0.025522,0.011979 0.020874,-0.1496 0.036548,-0.12728 0.036628,-0.13782 0.0014575,-0.17299 -0.019064,-0.019064 -0.035032,-0.029273 -0.049223,-0.029292 z m 1.2095,0.07003 c -0.078563,0 -0.15199,0.10426 -0.21851,0.31029 -0.032452,0.10051 -0.04496,0.24847 -0.024533,0.29018 0.007823,0.015975 0.0047673,0.020111 -0.014881,0.020111 -0.035604,0 -0.081164,0.050079 -0.081164,0.089222 0,0.036098 0.016558,0.062159 0.051715,0.081388 0.031064,0.016991 0.047021,0.016288 0.08581,-0.00377 0.064058,-0.033126 0.070276,-0.12409 0.010662,-0.156 -0.021122,-0.011304 -0.02184,-0.014746 -0.0066888,-0.031873 0.0093402,-0.010558 0.040574,-0.077095 0.069425,-0.14787 0.058978,-0.14469 0.10177,-0.23252 0.16177,-0.33202 0.022531,-0.037366 0.040992,-0.071443 0.041008,-0.075732 7.686e-5,-0.020341 -0.039976,-0.043926 -0.07461,-0.043927 z m -3.2543,4.485e-4 c -0.048968,-3.519e-4 -0.11378,0.029851 -0.16906,0.085136 -0.061327,0.061327 -0.13498,0.17133 -0.21972,0.32813 -0.099268,0.18369 -0.16758,0.28015 -0.21119,0.29821 -0.044427,0.018402 -0.052412,0.041523 -0.024129,0.069806 0.028882,0.028882 0.075644,0.028901 0.12294,6.74e-5 0.049275,-0.030044 0.0922,-0.091328 0.18946,-0.2704 0.10513,-0.19355 0.17466,-0.30778 0.17916,-0.29429 0.0019713,0.00591 -0.0098065,0.059901 -0.026172,0.11997 -0.075817,0.2783 -0.055769,0.48811 0.04424,0.46301 0.040198,-0.010089 0.083494,-0.071718 0.18906,-0.26921 0.11615,-0.21729 0.14329,-0.26239 0.14848,-0.24681 0.0024665,0.0074 -0.011944,0.064166 -0.032008,0.12614 -0.024612,0.076028 -0.038448,0.14525 -0.042535,0.21281 l -0.0060603,0.10015 0.040649,0.040627 c 0.030388,0.030389 0.050359,0.040636 0.079143,0.040604 0.047807,-5.34e-5 0.10934,-0.036398 0.12691,-0.074946 0.017573,-0.038568 -0.0010993,-0.057169 -0.057394,-0.057169 -0.036592,0 -0.043085,-0.00399 -0.046575,-0.02873 -0.0061992,-0.043937 0.016866,-0.1353 0.092274,-0.36575 0.065969,-0.2016 0.06806,-0.21156 0.048909,-0.23272 -0.030484,-0.033685 -0.095004,-0.028773 -0.15546,0.011829 -0.067131,0.045086 -0.14215,0.14704 -0.23696,0.32205 -0.064769,0.11955 -0.078594,0.13861 -0.08159,0.11261 -0.0042288,-0.036696 0.039917,-0.20423 0.089558,-0.3399 0.025836,-0.070607 0.031973,-0.10087 0.023635,-0.11645 -0.012508,-0.023372 -0.036183,-0.03458 -0.065564,-0.034791 z m 1.6786,0.25238 c -0.032125,0 -0.090949,0.031928 -0.12444,0.067539 -0.018564,0.019741 -0.037454,0.035891 -0.041973,0.035891 -0.0045197,0 -0.013485,-0.01513 -0.019932,-0.033624 -0.028865,-0.082803 -0.10945,-0.086867 -0.19312,-0.00974 -0.039984,0.036856 -0.051102,0.042319 -0.055822,0.027451 -0.0032419,-0.010211 -0.0082001,-0.026015 -0.011021,-0.035127 -0.0028215,-0.00911 -0.01869,-0.025458 -0.035262,-0.036317 -0.023681,-0.015517 -0.038963,-0.017509 -0.071332,-0.00929 -0.053667,0.013623 -0.070396,0.039756 -0.049942,0.077976 0.019848,0.037086 0.012116,0.073942 -0.045879,0.2186 -0.05224,0.1303 -0.060489,0.14264 -0.082847,0.12408 -0.0085449,-0.00709 -0.030727,-0.011792 -0.049313,-0.010437 -0.028595,0.00208 -0.034329,-0.00211 -0.03726,-0.027339 -0.0035689,-0.030719 0.044371,-0.16256 0.096606,-0.26564 0.023403,-0.046184 0.027189,-0.063873 0.018001,-0.084037 -0.015956,-0.035021 -0.065789,-0.04599 -0.10179,-0.022401 -0.026273,0.017215 -0.031525,0.017179 -0.068863,-5.388e-4 -0.051887,-0.024622 -0.1065,-0.015153 -0.17891,0.030998 -0.18158,0.11572 -0.24837,0.40057 -0.11355,0.48424 0.040825,0.025337 0.091985,0.02398 0.13362,-0.00352 0.018962,-0.012527 0.043849,-0.029313 0.055306,-0.037305 0.017634,-0.0123 0.023876,-0.010808 0.040694,0.00965 0.046183,0.056186 0.12528,0.06361 0.16852,0.015824 0.02649,-0.029272 0.033031,-0.028694 0.067696,0.00597 0.033685,0.033685 0.065252,0.03672 0.089648,0.00862 0.0096031,-0.011061 0.039155,-0.06223 0.065654,-0.11371 0.031388,-0.060979 0.07832,-0.12606 0.1347,-0.18675 0.13181,-0.14189 0.13647,-0.13131 0.037709,0.086012 -0.038411,0.084525 -0.068147,0.16228 -0.06608,0.17279 0.0020679,0.010511 0.017338,0.029261 0.03396,0.041659 0.048911,0.036481 0.072858,0.01928 0.12345,-0.088683 0.024717,-0.052744 0.073082,-0.13389 0.10747,-0.18031 0.11045,-0.14909 0.13965,-0.15191 0.0714,-0.00689 -0.036978,0.078565 -0.044701,0.10739 -0.044936,0.16767 -2.5671e-4,0.06568 0.0028713,0.07551 0.031963,0.10056 0.039188,0.033739 0.081716,0.035273 0.1318,0.00474 0.071877,-0.043823 0.073011,-0.12149 0.0015727,-0.1072 -0.04668,0.00934 -0.0442,-0.010559 0.018248,-0.14679 0.065358,-0.14258 0.069224,-0.20036 0.016363,-0.24484 -0.019447,-0.016364 -0.042897,-0.029763 -0.052096,-0.029763 z m 0.97917,0.00658 c -0.15154,0.00214 -0.29166,0.16111 -0.30288,0.34362 -0.0043453,0.070694 -0.0015602,0.085773 0.022244,0.12098 0.054429,0.080504 0.14489,0.10013 0.24553,0.053264 0.1157,-0.053876 0.20238,-0.19544 0.20504,-0.33482 0.0022859,-0.11979 -0.057916,-0.18463 -0.16994,-0.18304 z m 0.0037483,0.091287 c 0.0021831,7.95e-5 0.0042388,4.64e-4 0.0061276,0.00119 0.017808,0.00683 0.019815,0.018057 0.014724,0.081478 -0.007031,0.087593 -0.060361,0.20531 -0.11313,0.24971 -0.040683,0.034233 -0.048305,0.03559 -0.067876,0.012009 -0.020819,-0.025085 -0.0070718,-0.11866 0.029337,-0.19979 0.034323,-0.076483 0.098076,-0.14579 0.13081,-0.1446 z m -1.9037,0.00857 c 0.015394,-2.422e-4 0.026404,0.00836 0.029224,0.028192 0.0049009,0.034464 -0.076862,0.20609 -0.12347,0.25918 -0.040114,0.045688 -0.066182,0.054124 -0.077348,0.025027 -0.010739,-0.027987 0.0048302,-0.11515 0.031761,-0.17775 0.03258,-0.075735 0.1005,-0.13403 0.13984,-0.13465 z m 1.3717,0.010527 c 0.023946,-8.409e-4 0.029393,0.020643 0.024219,0.077707 -0.011924,0.1315 -0.093524,0.25352 -0.16955,0.25352 -0.025763,0 -0.035457,-0.00634 -0.040514,-0.026486 -0.015136,-0.060308 0.10746,-0.28212 0.16623,-0.30077 0.0075928,-0.00241 0.014092,-0.00378 0.019618,-0.00397 z m 1.4987,0.75256 c -0.035644,7.225e-4 -0.081236,0.011048 -0.093958,0.02377 -0.0059164,0.00592 0.021044,0.17122 0.064329,0.39451 0.089111,0.45967 0.076494,0.43613 0.23375,0.43585 0.054954,-9.69e-5 0.10669,-0.00448 0.11499,-0.00974 0.0094888,-0.00602 0.029914,-0.10512 0.055037,-0.26701 0.021974,-0.1416 0.044327,-0.2678 0.04965,-0.28044 0.011296,-0.026827 0.0071553,-0.047136 0.057102,0.28142 0.042193,0.27755 0.041142,0.27604 0.1944,0.27577 0.054954,-9.69e-5 0.10583,-0.00398 0.11308,-0.00862 0.013373,-0.00856 0.16502,-0.74145 0.16498,-0.79729 -3.0894e-5,-0.037238 -0.016764,-0.04433 -0.10464,-0.04433 -0.059932,0 -0.069567,0.00315 -0.079031,0.025857 -0.0059289,0.014222 -0.031694,0.15472 -0.057236,0.31222 -0.025543,0.15749 -0.048887,0.28881 -0.051894,0.29182 -0.0097249,0.00972 -0.015658,-0.022082 -0.057281,-0.30712 -0.022533,-0.15431 -0.046701,-0.28748 -0.053713,-0.29592 -0.017032,-0.020522 -0.20492,-0.021326 -0.2304,-9.872e-4 -0.012917,0.010307 -0.02994,0.092278 -0.060222,0.29018 -0.042891,0.28031 -0.050769,0.32167 -0.059683,0.31276 -0.002753,-0.00275 -0.025387,-0.13094 -0.050278,-0.28488 -0.047971,-0.29667 -0.059125,-0.32925 -0.11822,-0.34506 -0.008084,-0.00216 -0.018869,-0.00298 -0.030751,-0.00274 z m -1.0732,0.00251 c -0.039217,2.738e-4 -0.081302,0.0075 -0.098065,0.02148 -0.013268,0.011061 -0.057243,0.082169 -0.097706,0.15802 -0.061958,0.11614 -0.078237,0.13847 -0.10316,0.1415 -0.037635,0.00458 -0.04112,-0.00958 -0.044802,-0.18172 l -0.0028277,-0.13216 h -0.18388 v 0.83893 h 0.18388 l 0.0032099,-0.16013 c 0.0018872,-0.094096 0.0083976,-0.16636 0.015779,-0.17526 0.018581,-0.022388 0.071471,-0.018372 0.10496,0.00797 0.020983,0.016505 0.04134,0.059008 0.071265,0.14881 0.044955,0.13491 0.071852,0.17987 0.11243,0.18787 0.034338,0.00677 0.087559,-0.00271 0.12619,-0.022446 0.036145,-0.01847 0.039148,-0.034149 0.013512,-0.070749 -0.0099547,-0.014212 -0.035092,-0.07626 -0.055845,-0.13788 -0.04784,-0.14206 -0.066302,-0.17734 -0.11133,-0.21258 l -0.03634,-0.028416 0.040178,-0.067404 c 0.086108,-0.14439 0.15052,-0.27713 0.14343,-0.29561 -0.0053039,-0.013821 -0.041655,-0.020497 -0.080872,-0.020224 z m 0.27359,0.00137 c -0.056427,0 -0.063018,0.00264 -0.069357,0.0279 -0.003852,0.015348 -0.0051092,0.15627 -0.0028059,0.31316 0.0039302,0.26771 0.0058018,0.28889 0.030526,0.34409 0.034601,0.077252 0.0896,0.12891 0.16484,0.1549 0.074538,0.025744 0.19181,0.027885 0.26924,0.00489 0.075923,-0.022547 0.14467,-0.083135 0.17541,-0.15461 0.023678,-0.05504 0.024647,-0.071828 0.021727,-0.37112 l -0.003052,-0.31348 h -0.1838 l -0.0057461,0.31029 c -0.0061369,0.3314 -0.0088239,0.34664 -0.06599,0.37269 -0.034628,0.015778 -0.097711,0.015778 -0.13234,0 -0.056553,-0.025767 -0.059859,-0.043252 -0.06599,-0.34784 l -0.0057461,-0.28546 -0.032254,-0.027698 c -0.025505,-0.02192 -0.04527,-0.027721 -0.094586,-0.027721 z m 2.1992,0.00126 c -0.014914,-7.84e-5 -0.03401,4.142e-4 -0.058875,0.00119 l -0.10576,0.0033 -0.1344,0.40757 c -0.098946,0.30005 -0.13116,0.41146 -0.12213,0.42234 0.016284,0.019621 0.15194,0.019947 0.16742,4.049e-4 0.0062584,-0.0079 0.020495,-0.042808 0.031648,-0.077572 0.011154,-0.034764 0.02539,-0.069671 0.031648,-0.077572 0.0077772,-0.00982 0.048689,-0.014365 0.12924,-0.014365 0.080553,0 0.12146,0.00455 0.12924,0.014365 0.0062584,0.0079 0.020087,0.041127 0.030751,0.073824 0.010664,0.032697 0.026532,0.065366 0.035262,0.072612 0.042015,0.034869 0.14325,0.038647 0.17624,0.00658 0.012623,-0.012269 -0.0058741,-0.080879 -0.10747,-0.39852 -0.067497,-0.21103 -0.13019,-0.39552 -0.13932,-0.40997 -0.011715,-0.018537 -0.018757,-0.023939 -0.063499,-0.024174 z m -4.3294,0.00287 c -0.033592,-0.00115 -0.051299,0.037463 -0.081613,0.16278 -0.018312,0.075699 -0.051661,0.19166 -0.074116,0.2577 -0.094807,0.27881 -0.089408,0.38334 0.022378,0.43269 0.051732,0.022835 0.10818,0.019033 0.17427,-0.011739 0.13061,-0.060815 0.2149,-0.19126 0.21591,-0.33415 7.0693e-4,-0.10082 -0.025712,-0.15243 -0.090636,-0.17714 -0.03956,-0.015057 -0.049863,-0.014853 -0.096786,0.00202 -0.028885,0.010387 -0.054821,0.016578 -0.057641,0.013759 -0.0028184,-0.00282 0.0092982,-0.052154 0.026935,-0.10965 0.049059,-0.15993 0.043722,-0.21349 -0.023254,-0.23346 -0.0055303,-0.00165 -0.010644,-0.00264 -0.015443,-0.00281 z m -1.5544,0.064823 c -0.04611,0 -0.067813,0.026855 -0.055733,0.068976 0.01057,0.036856 0.0024229,0.077627 -0.0268,0.13414 -0.018533,0.035839 -0.17462,0.18762 -0.19294,0.18762 -0.014496,0 -0.012833,-0.017528 0.012637,-0.13274 0.036249,-0.16397 0.030094,-0.20749 -0.034005,-0.24064 -0.043345,-0.022415 -0.10292,-0.02205 -0.16044,9.655e-4 -0.04996,0.01999 -0.066141,0.048684 -0.047293,0.083902 0.01503,0.028083 0.046948,0.038922 0.085855,0.029157 0.037513,-0.00942 0.038516,0.00866 0.0071379,0.13104 -0.050057,0.19522 -0.1112,0.34236 -0.17936,0.43163 -0.042667,0.05588 -0.045269,0.092592 -0.00725,0.1026 0.010764,0.00283 0.021021,0.00575 0.022805,0.00649 0.0017845,7.319e-4 0.019964,-0.00567 0.040402,-0.014208 0.050392,-0.021055 0.10365,-0.084343 0.15241,-0.18116 0.022901,-0.045476 0.046658,-0.078694 0.054453,-0.076136 0.0076056,0.0025 0.035526,0.042933 0.06204,0.08985 0.083299,0.1474 0.15415,0.19941 0.2419,0.17764 0.040263,-0.00999 0.083386,-0.049863 0.083386,-0.077101 0,-0.015751 -0.0087903,-0.020987 -0.03524,-0.020987 -0.053816,0 -0.07435,-0.016306 -0.1399,-0.11104 -0.03325,-0.048051 -0.067169,-0.096433 -0.075373,-0.10754 -0.013341,-0.018057 -0.0030582,-0.02913 0.097392,-0.1048 0.11937,-0.089924 0.17159,-0.15156 0.18726,-0.22105 0.019102,-0.084695 -0.023745,-0.1566 -0.093329,-0.1566 z m 1.2745,0.023658 c -0.025823,-6.415e-4 -0.052629,0.00783 -0.072342,0.027541 -0.034473,0.034473 -0.035996,0.073721 -0.0043995,0.11389 0.026137,0.033227 0.082189,0.040807 0.11508,0.015555 0.024478,-0.018794 0.044981,-0.058869 0.044981,-0.087942 0,-0.041616 -0.04028,-0.067973 -0.083318,-0.069043 z m 4.5491,0.13212 c 0.011559,6.882e-4 0.08447,0.25857 0.076989,0.27231 -0.0025817,0.00474 -0.038005,0.00862 -0.078717,0.00862 -0.063072,0 -0.073928,-0.00297 -0.073397,-0.020111 0.0012457,-0.04021 0.064964,-0.26142 0.075126,-0.26082 z m -5.4446,0.098537 c -0.022077,-4.079e-4 -0.046275,0.00789 -0.084239,0.025678 -0.068317,0.032016 -0.15157,0.11799 -0.18866,0.19481 -0.032598,0.067527 -0.044719,0.18755 -0.023994,0.23759 0.020819,0.050262 0.075005,0.092072 0.11934,0.092072 0.02147,0 0.059998,-0.01452 0.091466,-0.034477 0.0299,-0.018962 0.056353,-0.034477 0.058808,-0.034477 0.002454,0 0.019981,0.015515 0.038943,0.034477 0.040804,0.040804 0.082953,0.04445 0.13649,0.011806 0.035888,-0.021882 0.056637,-0.064173 0.046418,-0.094631 -0.0027748,-0.00827 -0.02237,-0.014859 -0.044218,-0.014859 -0.037517,0 -0.039184,-0.00178 -0.038113,-0.040941 6.1662e-4,-0.022521 0.02833,-0.10395 0.061591,-0.18093 0.033261,-0.076986 0.057449,-0.14784 0.053757,-0.15746 -0.012396,-0.032303 -0.066347,-0.044205 -0.10549,-0.023276 -0.031714,0.016955 -0.038176,0.017037 -0.068953,9.872e-4 -0.020093,-0.010478 -0.03598,-0.016046 -0.053152,-0.016363 z m 1.9585,8.98e-5 c -0.0081951,2.859e-4 -0.016267,0.00457 -0.029224,0.013063 -0.015962,0.010459 -0.061809,0.076622 -0.10188,0.14702 -0.073637,0.12936 -0.18324,0.26541 -0.2004,0.24874 -0.0051273,-0.00498 -0.0036029,-0.023082 0.0033892,-0.040223 0.0069921,-0.017141 0.030949,-0.075112 0.053241,-0.12884 0.059305,-0.14293 0.063147,-0.17545 0.025252,-0.21335 -0.025708,-0.025708 -0.03753,-0.029614 -0.072298,-0.023972 -0.02286,0.00371 -0.051738,0.016902 -0.064172,0.029336 -0.021299,0.021299 -0.021504,0.024289 -0.003681,0.05149 0.02135,0.032584 0.022393,0.028291 -0.045699,0.18684 -0.066654,0.1552 -0.066814,0.24163 -4.7025e-4,0.26836 0.037375,0.015059 0.063459,0.013544 0.10487,-0.00611 0.020494,-0.00973 0.054616,-0.035582 0.075822,-0.057461 0.021206,-0.021879 0.04231,-0.039774 0.046889,-0.039774 0.0045786,0 0.011721,0.015457 0.015869,0.034342 0.0089731,0.040854 0.055344,0.08058 0.09407,0.08058 0.061472,0 0.11856,-0.049425 0.11856,-0.10267 0,-0.01947 -0.0072347,-0.023748 -0.040223,-0.023748 -0.031423,0 -0.040223,-0.00464 -0.040223,-0.021189 0,-0.030163 0.035831,-0.13012 0.085698,-0.23909 0.02357,-0.051505 0.041043,-0.10306 0.038831,-0.11454 -0.0022111,-0.011484 -0.017621,-0.028499 -0.03423,-0.037821 -0.013482,-0.00757 -0.021792,-0.011284 -0.029987,-0.010998 z m -1.339,0.00188 c -0.025164,0.0014 -0.052958,0.017214 -0.087718,0.048617 l -0.044263,0.039976 -0.013894,-0.033556 c -0.02289,-0.055262 -0.097893,-0.071953 -0.14695,-0.032703 -0.018116,0.014493 -0.018434,0.048443 -7.1939e-4,0.076809 0.016122,0.025815 -0.0027219,0.10407 -0.066058,0.27433 -0.030542,0.082109 -0.037011,0.11194 -0.02799,0.12879 0.02361,0.044115 0.078204,0.059002 0.1037,0.028281 0.0080407,-0.00969 0.031629,-0.056763 0.052433,-0.10462 0.046983,-0.10808 0.10355,-0.20233 0.14558,-0.24259 0.028597,-0.027398 0.035753,-0.029336 0.06608,-0.017889 0.02877,0.010859 0.038474,0.00932 0.062938,-0.00992 0.023078,-0.018153 0.02891,-0.032962 0.02891,-0.073352 0,-0.041269 -0.0052836,-0.054098 -0.028641,-0.069402 -0.014156,-0.00928 -0.028312,-0.013611 -0.04341,-0.012771 z m 0.20511,0.00103 c -0.029304,3.364e-4 -0.059746,0.00904 -0.07663,0.025925 -0.02378,0.02378 -0.023963,0.025847 -0.0049831,0.057977 0.019396,0.032835 0.01888,0.035311 -0.035374,0.1707 -0.067532,0.16852 -0.072183,0.22338 -0.022603,0.26603 0.044319,0.038122 0.11413,0.0316 0.15366,-0.014365 0.035801,-0.041622 0.02948,-0.077848 -0.014971,-0.085832 -0.043366,-0.00779 -0.042262,-0.015723 0.023972,-0.17095 0.060141,-0.14094 0.070894,-0.19277 0.046709,-0.22524 -0.012323,-0.016549 -0.04048,-0.024577 -0.069783,-0.024242 z m -0.8252,0.12 c 0.0023232,-1.933e-4 0.0045421,-1.616e-4 0.0066215,1.346e-4 0.020394,0.00291 0.024512,0.010847 0.023523,0.045363 -0.0015976,0.055786 -0.060666,0.17947 -0.11378,0.23826 -0.04513,0.049953 -0.070849,0.059213 -0.082219,0.029583 -0.0097669,-0.025452 0.014987,-0.13886 0.042894,-0.19651 0.027921,-0.057678 0.088126,-0.11393 0.1229605,-0.1168306 z m 1.2571,0.01129 c 0.0020803,-1.637e-4 0.0040753,-6.72e-5 0.0059706,3.145e-4 0.017619,0.00355 0.020758,0.015129 0.01982,0.072836 -0.002071,0.12734 -0.08583,0.25824 -0.16525,0.25824 -0.018369,0 -0.036804,-0.0055 -0.040963,-0.012233 -0.033747,-0.054603 0.1159,-0.31409 0.18042,-0.31916 z m 5.9574,0.7276 c -0.03099,6.135e-4 -0.075406,0.011325 -0.11979,0.030392 l -0.050323,0.021615 0.00707,0.11203 c 0.003884,0.061622 0.010366,0.17928 0.01441,0.26145 0.004045,0.082169 0.012509,0.15586 0.018809,0.16376 0.014715,0.018451 0.11945,0.018827 0.13079,4.702e-4 0.004721,-0.00764 0.017964,-0.13766 0.029426,-0.28897 0.01543,-0.20367 0.017504,-0.27912 0.007991,-0.29058 -0.006029,-0.00726 -0.019788,-0.010536 -0.038382,-0.010167 z m -4.5447,0.00602 c -0.076621,0 -0.11687,0.00463 -0.12475,0.014365 -0.013503,0.016671 -0.076764,0.80695 -0.06599,0.82439 0.01029,0.01665 0.16336,0.01493 0.1738,-0.00195 0.0046281,-0.00749 0.015074,-0.1329 0.023186,-0.27869 0.0081129,-0.14579 0.015112,-0.27023 0.015577,-0.27655 0.0023855,-0.032393 0.026816,0.043486 0.063319,0.19671 0.022411,0.094071 0.046282,0.18803 0.053039,0.20881 l 0.012278,0.037799 0.099524,-0.00332 0.099524,-0.0033 0.053017,-0.21582 c 0.029155,-0.1187 0.055972,-0.21877 0.059593,-0.22239 0.010775,-0.010775 0.017211,0.057356 0.029112,0.30827 0.0062042,0.1308 0.014639,0.24328 0.018765,0.24996 0.0041251,0.00667 0.043558,0.012143 0.087628,0.012143 0.061775,0 0.081707,-0.00409 0.086977,-0.017822 0.010555,-0.027506 -0.053214,-0.80113 -0.067449,-0.81828 -0.0091852,-0.011068 -0.043487,-0.014216 -0.12857,-0.011829 l -0.11604,0.00325 -0.013086,0.040223 c -0.007207,0.022122 -0.031968,0.12297 -0.055014,0.2241 -0.023046,0.10113 -0.04625,0.19422 -0.051558,0.20686 -0.011188,0.026645 -0.0091933,0.033291 -0.075373,-0.25249 -0.023376,-0.10095 -0.047424,-0.19274 -0.053443,-0.20399 -0.009354,-0.017478 -0.027383,-0.020448 -0.12406,-0.020448 z m 1.7113,0 c -0.066568,0 -0.10459,0.00486 -0.11236,0.014365 -0.012404,0.015173 -0.26688,0.7871 -0.26688,0.80955 0,0.020343 0.022585,0.025351 0.10343,0.022962 l 0.074699,-0.0022 0.02873,-0.086191 0.02873,-0.086191 h 0.26424 l 0.023029,0.06489 c 0.03367,0.094859 0.054321,0.11324 0.12729,0.11324 0.075685,0 0.096853,-0.00795 0.096853,-0.036384 0,-0.028772 -0.24031,-0.78058 -0.25561,-0.79967 -0.0076305,-0.00952 -0.045448,-0.014365 -0.11214,-0.014366 z m 1.0873,0 c -0.04391,0 -0.069829,0.00639 -0.089064,0.021997 -0.027062,0.021951 -0.027137,0.022677 -0.027137,0.28158 0,0.14276 -0.0041871,0.25815 -0.009315,0.25644 -0.0051279,-0.00171 -0.060629,-0.12129 -0.12332,-0.26573 -0.062687,-0.14444 -0.12003,-0.26993 -0.12745,-0.27887 -0.010208,-0.012299 -0.03886,-0.015436 -0.11804,-0.012951 l -0.10455,0.00328 -0.0030302,0.40791 c -0.001663,0.22435 -4.3599e-4,0.41464 0.0027156,0.42285 0.0041457,0.010804 0.02882,0.014005 0.089222,0.011559 l 0.083476,-0.00339 -2.2391e-5,-0.27294 c -1.4824e-5,-0.15012 0.00308,-0.27294 0.0068909,-0.27294 0.0038121,0 0.060072,0.12121 0.125,0.26937 0.064928,0.14816 0.12559,0.27227 0.13481,0.27581 0.022528,0.00864 0.18072,0.00823 0.20356,-5.388e-4 0.016115,-0.00618 0.018181,-0.054436 0.018181,-0.42521 v -0.41823 z m 1.1077,0 c -0.066669,0 -0.10451,0.00485 -0.11216,0.014365 -0.0063543,0.0079 -0.070123,0.19439 -0.1417,0.41444 -0.10907,0.33531 -0.12743,0.40184 -0.1134,0.41094 0.0092091,0.00597 0.050359,0.00953 0.091444,0.0079 l 0.074699,-0.00296 0.02909,-0.086192 0.029067,-0.086191 h 0.26226 l 0.026464,0.068953 c 0.035053,0.091287 0.058225,0.10918 0.14141,0.10918 0.040332,0 0.071132,-0.00584 0.078672,-0.014926 0.009186,-0.011069 -0.020483,-0.1173 -0.11472,-0.41085 -0.069906,-0.21775 -0.13237,-0.40238 -0.1388,-0.41028 -0.007745,-0.00951 -0.045729,-0.014365 -0.11232,-0.014365 z m -0.51942,0.00139 c -0.011811,-1.301e-4 -0.026205,2.122e-4 -0.043949,9.218e-4 l -0.085945,0.00343 -0.0057461,0.31029 c -0.0041052,0.22168 -0.0099481,0.31764 -0.020448,0.33601 -0.018053,0.031595 -0.059105,0.04298 -0.11521,0.03194 -0.091018,-0.017908 -0.09796,-0.015645 -0.12612,0.041076 -0.029809,0.060037 -0.025582,0.083329 0.018406,0.10148 0.097564,0.040251 0.22814,0.038897 0.31222,-0.00323 0.079381,-0.039776 0.11404,-0.10491 0.12698,-0.23864 0.016345,-0.16899 0.013995,-0.54177 -0.0035689,-0.56579 -0.009054,-0.012382 -0.021175,-0.017095 -0.056608,-0.017485 z m -2.3249,0.00435 -0.0058806,0.31029 c -0.0032307,0.17066 -0.0099659,0.31861 -0.014971,0.32878 -0.016325,0.033177 -0.060351,0.048539 -0.11353,0.039594 -0.10235,-0.017214 -0.10479,-0.01647 -0.13315,0.040649 -0.014408,0.02902 -0.023082,0.060865 -0.019281,0.070771 0.021314,0.055543 0.23277,0.079577 0.33312,0.037866 0.056771,-0.023598 0.10707,-0.082805 0.12619,-0.14857 0.014163,-0.048718 0.016932,-0.11958 0.014455,-0.36982 l -0.0030738,-0.30957 h -0.091938 z m 0.63847,0.21202 c 0.0018748,2.728e-4 0.0039031,0.00132 0.005634,0.00305 0.007576,0.00758 0.073997,0.25004 0.074093,0.27047 4.7803e-5,0.01013 -0.023647,0.014365 -0.080378,0.014365 -0.044245,0 -0.080445,-0.00234 -0.080445,-0.00521 0,-0.010026 0.07237,-0.27639 0.076383,-0.28113 0.0011149,-0.00132 0.0028371,-0.00182 0.0047135,-0.00155 z m 2.2008,0.00382 c 0.005862,0.00185 0.01319,0.028786 0.044757,0.14266 0.041161,0.14849 0.043721,0.14141 -0.051154,0.14141 -0.044245,0 -0.080445,-0.00242 -0.080445,-0.00539 0,-0.017356 0.073151,-0.26638 0.080625,-0.27447 0.00247,-0.00267 0.004263,-0.00483 0.006217,-0.00422 z m 0.5734,0.45237 c -0.084811,0.00123 -0.098972,0.015375 -0.094766,0.094698 0.002915,0.054985 0.00742,0.065999 0.03212,0.078448 0.03603,0.018159 0.097169,0.018901 0.13005,0.00159 0.035362,-0.018613 0.041953,-0.03201 0.042153,-0.085563 2.4889e-4,-0.066535 -0.029002,-0.090341 -0.10956,-0.089177 z"
       inkscape:connector-curvature="0"
       style="fill:#ffffff;fill-rule:evenodd;stroke-width:0.0452542305" />
  </g>
</svg>
