<?xml version="1.0" encoding="UTF-8" standalone="no"?>
<svg
   xmlns:dc="http://purl.org/dc/elements/1.1/"
   xmlns:cc="http://creativecommons.org/ns#"
   xmlns:rdf="http://www.w3.org/1999/02/22-rdf-syntax-ns#"
   xmlns:svg="http://www.w3.org/2000/svg"
   xmlns="http://www.w3.org/2000/svg"
   xmlns:sodipodi="http://sodipodi.sourceforge.net/DTD/sodipodi-0.dtd"
   xmlns:inkscape="http://www.inkscape.org/namespaces/inkscape"
   id="svg6"
   height="100"
   width="100"
   version="1.1"
   viewBox="0 0 50 50"
   sodipodi:docname="mobile.svg"
   inkscape:version="0.92.2 (5c3e80d, 2017-08-06)"
   style="fill:#000000">
  <defs
     id="defs9" />
  <sodipodi:namedview
     pagecolor="#ffffff"
     bordercolor="#666666"
     borderopacity="1"
     objecttolerance="10"
     gridtolerance="10"
     guidetolerance="10"
     inkscape:pageopacity="0"
     inkscape:pageshadow="2"
     inkscape:window-width="1920"
     inkscape:window-height="1017"
     id="namedview7"
     showgrid="false"
     inkscape:zoom="6.293333325"
     inkscape:cx="82.98333986"
     inkscape:cy="21.59574749"
     inkscape:window-x="-8"
     inkscape:window-y="-8"
     inkscape:window-maximized="1"
     inkscape:current-layer="svg6" />
  <metadata
     id="metadata12">
    <rdf:RDF>
      <cc:Work
         rdf:about="">
        <dc:format>image/svg+xml</dc:format>
        <dc:type
           rdf:resource="http://purl.org/dc/dcmitype/StillImage" />
        <dc:title></dc:title>
      </cc:Work>
    </rdf:RDF>
  </metadata>
  <path
     id="path4-9"
     d="M 0,26 H 24 V 50 H 0 Z"
     inkscape:connector-curvature="0"
     style="fill:none" />
  <path
     id="path2"
     d="M 0,26 H 24 V 50 H 0 Z"
     inkscape:connector-curvature="0"
     style="fill:none" />
  <path
     style="fill:#241f21;stroke-width:1;fill-opacity:1"
     d="M 24.99869785,9.999999406e-8 V 9.766e-4 C 11.19269789,0.0012374 3.333333324e-4,11.1940913 0,25.0004883 -5.365079152e-4,32.0996271 2.958734068,38.5075536 7.710937478,43.0584038 H 0 V 50 h 49.99999986 v -6.9415962 h -6.5673828 L 40.87337229,40.4930242 H 40.2190754 l -0.23177083,-0.2220008 c 0.8124,-0.9450483 1.30078125,-2.1730034 1.30078125,-3.507744 0,-2.9761086 -2.41325625,-5.3866136 -5.3893229,-5.3866136 l 6.5166e-4,-3.25e-4 c -2.97603332,0 -5.38704425,2.4109639 -5.38704425,5.3869391 0,2.9761085 2.41087759,5.3895432 5.38704425,5.3895432 1.33466667,0 2.56222811,-0.4886639 3.50716144,-1.3010814 l 0.22460939,0.2320918 v 0.6539586 l 1.32291666,1.3206122 H 11.29166664 C 5.845142492,38.9178122 2.328058118,32.3705605 2.328450513,25.0004883 2.32845051,12.4797329 12.47836455,2.3297072 24.99869785,2.3297072 c 12.52099996,-0.00104 22.6728515,10.149359 22.6728515,22.6707811 1.424e-4,2.2784888 -0.3464797,4.4743996 -0.97167968,6.5490257 a 11.4023333,11.40244395 0 0 1 1.54264321,2.6164854 c 1.12116667,-2.8408112 1.75772031,-5.926241 1.75748698,-9.1655111 0,-13.808397 -11.19330205,-25.00148822 -25.00130201,-25.0004882000000066 z M 27.28320306,8.6013945 l -14.40787758,0.0013 c -1.58499999,0 -2.882486966,1.2977205 -2.882486966,2.8827562 V 37.422444 c 0,1.5850357 1.297486976,2.8824307 2.882486966,2.8824307 h 14.40787758 c 1.58499996,0 2.88281246,-1.297395 2.88281249,-2.8824307 V 11.4841487 c 0,-1.5850357 -1.29781251,-2.8827562 -2.88281249,-2.8827562 z M 12.87532548,12.9258544 H 27.28320306 V 35.9836722 H 12.87532548 Z M 35.89941397,33.03386 c 2.06416666,0 3.73177082,1.665293 3.73177082,3.7294194 0,2.0642263 -1.66760416,3.7297449 -3.73177082,3.7297448 -2.06416666,0 -3.72981771,-1.6656185 -3.72981771,-3.7297448 0,-2.0642264 1.66555105,-3.7294194 3.72981771,-3.7294194 z m -15.82194006,3.9963412 a 1.171599997,1.171610449 0 0 1 1.17154946,1.1718521 1.171599997,1.171610449 0 0 1 -1.17154946,1.1715267 1.171599997,1.171610449 0 0 1 -1.171875,-1.1715267 1.171599997,1.171610449 0 0 1 1.171875,-1.1718521 z m 4.55273435,6.9539658 h 0.94563802 v 1.8023736 c 0.21808533,-0.2551548 0.50487248,-0.382805 0.86035156,-0.382805 0.43180893,0 0.76974183,0.1594569 1.0139974,0.4778553 0.24643642,0.3162175 0.36979167,0.7621304 0.36979167,1.3378644 v 0.052408 c 0,0.5670107 -0.12120655,1.0097007 -0.36328125,1.328099 -0.24207472,0.3162176 -0.5800076,0.4742746 -1.0139974,0.4742746 -0.38383017,0 -0.69028125,-0.1473137 -0.91927083,-0.4417231 l -0.0426432,0.3762947 h -0.85058594 z m 5.59733072,0 h 0.9485677 v 5.0246414 h -0.9485677 z m -1.30533854,0.081704 c 0.16138315,0 0.29011016,0.045773 0.38606771,0.1373671 0.0959575,0.091594 0.1438802,0.2085009 0.1438802,0.3502536 0,0.1439335 -0.048997,0.2615891 -0.14713542,0.3531832 -0.0959575,0.091594 -0.22361021,0.1373671 -0.38281249,0.1373671 -0.15920229,0 -0.28792932,-0.045773 -0.3860677,-0.1373671 -0.0959575,-0.091594 -0.14388022,-0.2092497 -0.14388022,-0.3531832 0,-0.1417527 0.0468483,-0.2586595 0.140625,-0.3502536 0.0959576,-0.091594 0.22575893,-0.1373671 0.38932292,-0.1373671 z m -13.89973955,0.1800095 h 1.28255208 l 1.2233073,3.4543596 1.21712238,-3.4543596 h 1.28873698 v 4.7629278 h -0.98470052 v -1.3020579 l 0.0983073,-2.2473519 -1.28580729,3.5494098 h -0.67382813 l -1.28222655,-3.5461547 0.0979818,2.2440968 v 1.3020579 h -0.98144532 z m 7.33756508,1.157855 c 0.47760687,0 0.86701101,0.1462394 1.16796876,0.438468 0.30313859,0.2922286 0.47194229,0.6891455 0.50683594,1.1907319 l 0.006836,0.2421828 c 0,0.5430219 -0.151614,0.9789403 -0.4547526,1.3082427 -0.3031386,0.3271216 -0.71005795,0.4908758 -1.2203776,0.4908758 -0.51031968,0 -0.91798785,-0.1637542 -1.2233073,-0.4908758 -0.3031386,-0.3271216 -0.45475259,-0.7719602 -0.45475259,-1.3346093 v -0.042317 c 0,-0.3511106 0.0675866,-0.6643271 0.20279946,-0.9391093 0.13521293,-0.2747821 0.3293778,-0.4872069 0.58235678,-0.6376828 0.25515982,-0.150476 0.55054185,-0.2259071 0.88639315,-0.225907 z m 11.1223958,0 c 0.48414945,0 0.86463322,0.1526854 1.14160157,0.4579989 0.27914921,0.3053135 0.41894531,0.7383344 0.41894531,1.2988027 v 0.3860602 h -2.25390624 c 0.030532,0.2311659 0.12207985,0.4164068 0.27473958,0.5559787 0.15484058,0.1395719 0.35007983,0.2093058 0.58561198,0.2093058 0.36420248,0 0.64851542,-0.1319475 0.85351562,-0.3958256 l 0.46451823,0.5201722 c -0.14175547,0.2006345 -0.33344612,0.3576172 -0.57552083,0.4710194 -0.24207472,0.1112214 -0.51027232,0.1669889 -0.8046875,0.1669889 -0.51904307,0 -0.94240326,-0.1591314 -1.26953125,-0.4775297 -0.32494713,-0.3183983 -0.48730468,-0.7428246 -0.48730468,-1.2727616 v -0.09147 c 0,-0.3554721 0.0686609,-0.6726605 0.20605468,-0.9518043 0.13739375,-0.2813246 0.33155865,-0.4972979 0.58235677,-0.6477738 0.25297898,-0.1526568 0.5408405,-0.2291622 0.86360676,-0.2291618 z m -5.03450518,0.065428 h 0.94856769 v 3.5396444 h -0.94856769 z m -6.08789062,0.7001816 c -0.23117042,0 -0.40996881,0.090472 -0.53645833,0.2714791 -0.12648947,0.1788265 -0.18977863,0.4570134 -0.18977863,0.8342936 0,0.3358449 0.0632892,0.5929684 0.18977863,0.7717948 0.12648952,0.1766457 0.30743661,0.2649688 0.54296876,0.2649688 0.22898957,0 0.40778797,-0.087249 0.53645834,-0.2617136 0.12867031,-0.1766457 0.19303385,-0.45773 0.19303385,-0.8437335 0,-0.3293024 -0.0643635,-0.5846028 -0.19303385,-0.7656101 -0.12867037,-0.1810073 -0.30961747,-0.2714791 -0.54296877,-0.2714791 z m 11.1191406,0 c -0.18755338,0 -0.34024173,0.063288 -0.45800781,0.189775 -0.11558522,0.126487 -0.18961795,0.3074306 -0.22233072,0.5429581 h 1.31510416 v -0.075194 c -0.004362,-0.2093578 -0.0612048,-0.3706379 -0.1702474,-0.48404 -0.10904266,-0.115583 -0.26387973,-0.1734993 -0.46451823,-0.1734991 z m -7.28190101,0.00326 c -0.30095775,0 -0.50801492,0.1233529 -0.62141928,0.3697845 v 1.3967826 c 0.11558523,0.2486124 0.3247911,0.3727141 0.62792968,0.3727141 0.30531948,0 0.50593048,-0.1505367 0.60188803,-0.4514886 0.0457979,-0.1439335 0.0686849,-0.3628043 0.0686849,-0.6572137 0,-0.357653 -0.0565175,-0.618325 -0.16992188,-0.7818858 -0.11340437,-0.1657416 -0.28253357,-0.2486931 -0.50716145,-0.2486931 z"
     id="path4"
     inkscape:connector-curvature="0" />
</svg>
