<?xml version="1.0" encoding="UTF-8" standalone="no"?>
<svg
   xmlns:dc="http://purl.org/dc/elements/1.1/"
   xmlns:cc="http://creativecommons.org/ns#"
   xmlns:rdf="http://www.w3.org/1999/02/22-rdf-syntax-ns#"
   xmlns:svg="http://www.w3.org/2000/svg"
   xmlns="http://www.w3.org/2000/svg"
   xmlns:sodipodi="http://sodipodi.sourceforge.net/DTD/sodipodi-0.dtd"
   xmlns:inkscape="http://www.inkscape.org/namespaces/inkscape"
   id="svg6"
   height="100"
   viewBox="0 0 50 50"
   width="100"
   version="1.1"
   sodipodi:docname="personal_d.svg"
   inkscape:version="0.92.2 (5c3e80d, 2017-08-06)"
   style="fill:#000000">
  <defs
     id="defs7" />
  <sodipodi:namedview
     pagecolor="#ffffff"
     bordercolor="#666666"
     borderopacity="1"
     objecttolerance="10"
     gridtolerance="10"
     guidetolerance="10"
     inkscape:pageopacity="0"
     inkscape:pageshadow="2"
     inkscape:window-width="1920"
     inkscape:window-height="1017"
     id="namedview5"
     showgrid="false"
     inkscape:zoom="6.293333322"
     inkscape:cx="-7.02087516"
     inkscape:cy="74.17390298"
     inkscape:window-x="-8"
     inkscape:window-y="-8"
     inkscape:window-maximized="1"
     inkscape:current-layer="svg6" />
  <metadata
     id="metadata12">
    <rdf:RDF>
      <cc:Work
         rdf:about="">
        <dc:format>image/svg+xml</dc:format>
        <dc:type
           rdf:resource="http://purl.org/dc/dcmitype/StillImage" />
        <dc:title></dc:title>
      </cc:Work>
    </rdf:RDF>
  </metadata>
  <path
     d="m 25,-9.766e-4 c -13.80716666,0 -25,11.1926667 -25,25 6.427406839e-5,7.0992851 2.959863146,13.5073283 7.712239583,18.0582682 H 0 v 6.9417318 H 50 V 43.0572916 H 42.28776042 C 47.04020525,38.5063526 50,32.0983008 50,24.9990234 c 0,-13.8078333 -11.19333334,-25 -25,-25 z m 0,2.3284505 c 12.52166666,0 22.67154948,10.1505417 22.67154948,22.671875 0,7.3700523 -3.51702211,13.9171602 -8.96354167,18.0579427 H 11.29231771 C 5.845757572,38.9165091 2.32845052,32.3694012 2.32845052,24.9993489 2.328950524,12.4781823 12.47883334,2.3274739 25,2.3274739 Z m 0.0266927,3.8255209 c -1.28499998,0.00133 -2.3433203,1.011414 -2.4033203,2.2952474 h -1.92675781 c -0.54,0 -0.9749349,0.4362135 -0.9749349,0.9772135 v 0.21875 h -5.8655599 c -0.94533333,0 -1.70703125,0.7600703 -1.70703125,1.7054036 v 28.0351563 c 0,0.945 0.76169792,1.7067057 1.70703125,1.7067057 h 22.28841146 c 0.945,0 1.70507813,-0.7617057 1.70507811,-1.7067057 V 16.2184244 c -0.005043,0.1557268 -0.0433296,0.3121616 -0.11328123,0.4628907 l -7.05175782,15.1601562 c -0.14333333,0.3083334 -0.39673175,0.524961 -0.69173178,0.6266276 -0.006667,0.00333 -0.008346,0.0099 -0.0133463,0.018229 l -3.08333334,3.3300781 c -0.015,0.013333 -0.0334635,0.01987 -0.0501302,0.033203 -0.001667,0 -0.001588,0.00326 -0.003255,0.00326 -0.001667,0.00167 -0.004844,2.867e-4 -0.006511,0.00195 -0.0433333,0.035 -0.0883463,0.059909 -0.13834635,0.073242 0,0.00167 -0.001588,0.00163 -0.003255,0.00163 -0.001667,0.00167 -0.003542,0.00159 -0.005208,0.00326 -0.0516667,0.011667 -0.10328125,0.020013 -0.15494794,0.013346 -0.003333,-0.00167 -0.006758,0 -0.0100912,0 -0.006667,0 -0.0131902,-0.00651 -0.0198568,-0.00651 -0.0416667,-0.00667 -0.0817839,-0.016745 -0.1201172,-0.038411 -0.0233333,-0.01 -0.0415234,-0.026667 -0.0615234,-0.041667 -0.0133333,-0.01 -0.0283724,-0.013398 -0.0400391,-0.025065 -0.008333,-0.00667 -0.009935,-0.014818 -0.0166015,-0.021484 -0.03,-0.031667 -0.0516146,-0.065221 -0.0716146,-0.1018881 -0.003333,-0.01 -0.0119662,-0.01832 -0.0152995,-0.02832 -0.02,-0.048333 -0.0299088,-0.096732 -0.0315755,-0.1500651 -0.001667,-0.023333 -0.008216,-0.048281 -0.004883,-0.071615 l 0.52148437,-4.5 c 0,-0.016667 0.0116407,-0.03151 0.014974,-0.048177 -0.10833333,-0.29 -0.10488282,-0.6201692 0.0367838,-0.9235026 l 7.0501302,-15.1627604 c 0.21000002,-0.4513333 0.66321615,-0.7095573 1.12988282,-0.6920573 0.155,0.0055 0.31154948,0.040836 0.46321615,0.1110026 l 1.79687506,0.844726 c 0.44989481,0.2097843 0.70989285,0.6613867 0.69335936,1.1276042 v -4.8681691 c 0,-0.9453334 -0.76007811,-1.7054037 -1.70507811,-1.7054037 H 30.2779948 v -0.21875 c 0,-0.541 -0.43522137,-0.9772135 -0.97688804,-0.9772135 H 27.4313151 C 27.3696484,7.1647376 26.31270833,6.1546569 25.02604166,6.1533236 Z m -0.0384115,1.3323567 c 0.595,6.667e-4 1.07686198,0.4831328 1.07519531,1.0777995 0.001667,0.5946667 -0.48019531,1.0768073 -1.07519531,1.077474 -0.595,3.333e-4 -1.078125,-0.4821407 -1.078125,-1.077474 0,-0.5953333 0.483125,-1.0781328 1.078125,-1.0777995 z m -3.9749349,1.6210938 h 1.65494792 c 0.18,0.7666666 0.71852865,1.3689427 1.40852865,1.6621094 h -0.0133463 a 2.41,2.41 0 0 0 0.0882161,0.03418 c 0.0333333,0.012333 0.065013,0.024807 0.0966797,0.035807 a 2.41,2.41 0 0 0 0.31673175,0.082682 c 0.0283333,0.0055 0.0566276,0.00804 0.0849609,0.01237 A 2.41,2.41 0 0 0 25,10.9658203 h 0.0117187 a 2.41,2.41 0 0 0 0.36002605,-0.032227 c 0.0283333,-0.00417 0.0566276,-0.00704 0.0849609,-0.01237 a 2.41,2.41 0 0 0 0.29980468,-0.079102 c 0.0433333,-0.014 0.0852864,-0.030216 0.12695312,-0.046549 a 2.41,2.41 0 0 0 0.0732422,-0.027018 h -0.0117187 C 26.63665362,10.4753877 27.1751432,9.8731116 27.3551432,9.106445 h 1.6031901 c 0.325,0 0.58821615,0.2623828 0.58821615,0.5882161 v 1.0738932 0.9648438 H 20.4251302 V 10.7685544 9.6946611 c 0,-0.3258333 0.26154949,-0.5882161 0.5882161,-0.5882158 z m -2.29492181,4.7679036 c 0.33166666,0 0.59505208,0.2663386 0.59505208,0.5970052 v 1.578125 h 1.5764974 c 0.33166665,0 0.59830728,0.2663386 0.59830728,0.5970052 0,0.3311667 -0.26664063,0.5963542 -0.59830728,0.5963542 h -1.5764974 v 1.5764974 c 0,0.3316667 -0.26501302,0.5983073 -0.5966797,0.5983073 -0.33,0 -0.59667968,-0.2666406 -0.59667968,-0.5983073 v -1.5764974 h -1.57779948 c -0.3305,0 -0.59733073,-0.2651875 -0.59733073,-0.5963542 0,-0.3306666 0.26683073,-0.5970052 0.59733073,-0.5970052 h 1.57942709 v -1.578125 c 0,-0.3306666 0.26667969,-0.5970052 0.59667969,-0.5970052 z m 16.46809894,0.9951172 c -0.43166667,-0.015667 -0.84829427,0.2245938 -1.04329427,0.6419271 l -0.55501301,1.1962891 2.82682291,1.3134765 0.55664062,-1.194987 c 0.25833333,-0.5566666 0.0182552,-1.2134974 -0.53841145,-1.4723307 l -0.81673177,-0.3802083 c -0.14000001,-0.065 -0.28501303,-0.097333 -0.43001303,-0.1041667 z m -1.83333333,2.3398438 -0.28157552,0.6083984 2.82519532,1.3167318 0.28320311,-0.6100261 z m -0.51497395,1.110026 -1.91666667,4.1184896 -3.29980468,7.0966797 -0.2734375,0.5898437 c -0.10666669,0.2283334 -0.009948,0.4984766 0.22005206,0.6051433 l 0.59179689,0.2747395 0.81803385,0.3802084 0.59179688,0.2750651 c 0.22833333,0.1066666 0.49847657,0.00832 0.60514322,-0.2216797 L 30.4498698,30.8476562 33.75,23.7542317 35.66503906,19.6344401 Z M 15.76334636,23.6210937 H 28.9342448 l -0.61490887,1.2633464 H 15.76334636 Z m 0,3.6731771 h 11.3844401 l -0.61523438,1.2617188 H 15.76334636 Z m 0,3.671875 h 9.59765624 l -0.61328125,1.2633464 h -8.98437499 z m 11.52278645,0.3548177 -0.48860678,3.6634115 2.43847657,-2.7415365 z m -11.52278645,3.3183594 h 7.81087239 l -0.61328125,1.2617187 h -7.19759114 z m 10.1656901,9.34375 h 0.9485677 v 5.0247396 h -0.9485677 z m 5.49902344,0 h 0.9485677 v 5.0247396 h -0.85384114 l -0.0455729,-0.3763021 c -0.23553212,0.2944152 -0.53876015,0.4417318 -0.9095052,0.4417318 -0.41654297,0 -0.7512528,-0.1637575 -1.00423177,-0.4908854 -0.25079813,-0.3293089 -0.37630208,-0.7859741 -0.37630208,-1.3704428 0,-0.5517558 0.12335525,-0.9912313 0.36979167,-1.3183593 0.24861726,-0.327128 0.58762451,-0.4908854 1.0172526,-0.4908854 0.34457481,0 0.62921326,0.128727 0.85384115,0.3860677 z m 13.0032552,0 h 0.94889323 v 5.0247396 H 44.4313151 Z m -1.30501302,0.081706 c 0.16138314,0 0.28978465,0.045774 0.38574219,0.1373698 0.0959576,0.091596 0.14420573,0.208505 0.14420573,0.3502604 0,0.1439364 -0.0493225,0.2615943 -0.14746093,0.3531901 -0.0959576,0.091596 -0.2232847,0.1373698 -0.38248699,0.1373698 -0.15920228,0 -0.2879293,-0.045774 -0.38606771,-0.1373698 -0.0959575,-0.091596 -0.1438802,-0.2092537 -0.1438802,-0.3531901 0,-0.1417554 0.0468483,-0.2586645 0.140625,-0.3502604 0.0959576,-0.091596 0.22575891,-0.1373698 0.38932291,-0.1373698 z m -42.124348955,0.180013 h 1.858072916 c 0.357659932,0 0.67163149,0.065438 0.942057292,0.1962891 0.272606655,0.1308512 0.482138042,0.3171701 0.628255209,0.5592448 0.146117166,0.2398939 0.219075521,0.5137888 0.219075521,0.8212891 0,0.4667026 -0.160208845,0.8350429 -0.480794271,1.1054687 C 3.850215218,47.1953286 3.408590988,47.3294274 2.84375,47.3294274 H 1.983398437 v 1.6783854 H 1.001953125 Z m 35.925130205,0.3531902 h 0.9453125 v 0.8701171 h 0.60514323 v 0.6936849 h -0.60514323 v 1.7662761 c 0,0.1308512 0.0250357,0.2248733 0.0751953,0.2815755 0.0501596,0.056702 0.14633046,0.084961 0.28808593,0.084961 0.10468095,0 0.19730322,-0.00752 0.27799478,-0.022786 v 0.7161458 c -0.1853725,0.056702 -0.37631435,0.085286 -0.57259113,0.085286 -0.66297938,0 -1.00091228,-0.3347098 -1.0139974,-1.0042318 v -1.9072265 h -0.51692706 v -0.6936851 h 0.51692708 z M 1.983398437,45.0397138 v 1.4947917 h 0.876627604 c 0.259521535,0 0.456909497,-0.060815 0.592122395,-0.1829427 0.137393757,-0.1221278 0.206054689,-0.2966288 0.206054689,-0.5234375 0,-0.2333513 -0.06866093,-0.4221444 -0.206054689,-0.5660807 C 3.314754683,45.1181079 3.12488721,45.0440752 2.8828125,45.0397135 Z m 4.759440105,0.3629558 c 0.484149418,0 0.864958721,0.1526883 1.141927083,0.4580078 0.279149215,0.3053194 0.418619791,0.7383488 0.418619791,1.2988281 v 0.3860677 H 6.049479167 c 0.03053194,0.2311704 0.122079857,0.416415 0.274739583,0.5559896 0.15484058,0.1395746 0.35007983,0.2093099 0.58561198,0.2093099 0.36420249,0 0.64884094,-0.1319501 0.853841145,-0.3958334 l 0.464518228,0.5201823 c -0.14175546,0.2006385 -0.333771643,0.3576243 -0.575846353,0.4710287 -0.24207471,0.1112235 -0.510272313,0.1669922 -0.8046875,0.1669922 -0.51904307,0 -0.942077741,-0.1591345 -1.26920573,-0.4775391 C 5.253503388,48.2772988 5.091145833,47.8528643 5.091145833,47.3229169 v -0.091471 c 0,-0.3554791 0.06866093,-0.6726737 0.206054687,-0.9518229 0.137393757,-0.2813301 0.331233128,-0.4973076 0.58203125,-0.6477865 0.252978977,-0.1526597 0.540840492,-0.2291666 0.863606772,-0.2291669 z m 3.807942708,0 c 0.10468096,0 0.202675,0.014292 0.29427084,0.042643 l -0.0130208,0.9095052 c -0.12867034,-0.017447 -0.24203087,-0.026367 -0.34016927,-0.026367 -0.35765993,0 -0.592227007,0.1212065 -0.703450522,0.3632812 v 2.3160807 h -0.9453125 v -3.5397134 h 0.893229167 l 0.02604167,0.4222006 c 0.189734231,-0.3249472 0.452560055,-0.4876303 0.788411415,-0.4876303 z m 2.08365886,0 c 0.44925577,0 0.80825244,0.10584 1.07649739,0.3173828 0.2704258,0.2115427 0.40559896,0.486512 0.40559896,0.8245442 h -0.94563802 c 0,-0.1352129 -0.0436252,-0.2464247 -0.13085937,-0.3336588 -0.0872341,-0.089415 -0.22348165,-0.1341146 -0.40885417,-0.1341146 -0.15920229,0 -0.28223202,0.035779 -0.36946615,0.1077474 -0.0872341,0.071968 -0.13085937,0.1635161 -0.13085937,0.2747396 0,0.1046809 0.048997,0.1897827 0.14713541,0.2552083 0.10031925,0.063245 0.2683741,0.1190134 0.50390625,0.1669922 0.23553215,0.045798 0.43399447,0.098018 0.59537761,0.156901 0.49941539,0.1831917 0.74902344,0.5003863 0.74902344,0.951823 0,0.3227662 -0.13839623,0.5845177 -0.41536459,0.7851562 -0.27696836,0.1984577 -0.63489069,0.2978516 -1.07324218,0.2978516 -0.29659605,0 -0.56049623,-0.052546 -0.79166667,-0.1572266 -0.22898959,-0.1068618 -0.40886235,-0.2517042 -0.53971354,-0.4348958 -0.1308512,-0.1853726 -0.19628907,-0.3849092 -0.19628907,-0.5986328 h 0.89648438 c 0.008723,0.1679257 0.0709382,0.2966527 0.18652344,0.3860677 0.11558522,0.089415 0.27042229,0.1341146 0.46451823,0.1341146 0.18101081,0 0.31725833,-0.033956 0.40885416,-0.1015625 0.0937767,-0.069787 0.140625,-0.1602609 0.140625,-0.2714844 0,-0.1155852 -0.0579174,-0.2060588 -0.1735026,-0.2714844 -0.11340437,-0.067606 -0.29650019,-0.1276725 -0.54947917,-0.180013 -0.84180935,-0.1766491 -1.26269531,-0.5342459 -1.26269531,-1.0729167 0,-0.3140428 0.12980138,-0.5757943 0.38932292,-0.7851562 0.26170238,-0.2115428 0.60285834,-0.3173828 1.02376302,-0.3173828 z m 3.62141927,0 c 0.47760686,0 0.86701099,0.1462422 1.16796876,0.4384765 0.3031386,0.2922344 0.47194228,0.689159 0.50683593,1.1907552 l 0.006511,0.2421875 c 0,0.5430325 -0.15128848,0.9789594 -0.45442708,1.3082683 -0.3031386,0.3271279 -0.71005795,0.4908854 -1.22037761,0.4908854 -0.51031966,0 -0.91798784,-0.1637575 -1.22330729,-0.4908854 -0.3031386,-0.327128 -0.45475261,-0.7719753 -0.45475261,-1.3346355 v -0.042318 c 0,-0.3511173 0.0675866,-0.6643401 0.20279948,-0.9391276 0.1352129,-0.2747875 0.32937779,-0.4872164 0.58235677,-0.6376953 0.25515983,-0.1504789 0.55054183,-0.2259114 0.88639265,-0.2259111 z m 4.18717447,0 c 0.37510677,0 0.65437344,0.1101374 0.83756512,0.3304036 0.18319167,0.2202662 0.27688828,0.5496042 0.28125,0.9879557 v 2.2867839 h -0.9453125 v -2.2636719 c 0,-0.2006385 -0.0436252,-0.3458064 -0.13085938,-0.4352213 -0.0872341,-0.091596 -0.232402,-0.1373698 -0.43522135,-0.1373698 -0.2660641,0 -0.46560077,0.1133605 -0.59863282,0.3401692 v 2.4960938 h -0.9453125 v -3.5397136 h 0.88964843 l 0.0296224,0.4091797 c 0.25297899,-0.3162237 0.59198622,-0.4746094 1.0172526,-0.4746093 z m 3.28125,0 c 0.43617065,0 0.78162404,0.1101374 1.03678385,0.3304036 0.2573407,0.2180853 0.38606771,0.5256108 0.38606771,0.922526 v 1.5341797 c 0.002181,0.3358514 0.0490292,0.5900824 0.140625,0.7623698 v 0.055664 H 24.3326823 c -0.0436171,-0.085053 -0.0754244,-0.1908933 -0.0950521,-0.3173828 -0.22898956,0.2551598 -0.5265203,0.3828125 -0.89290363,0.3828125 -0.34675567,0 -0.63461718,-0.1004683 -0.86360677,-0.3011068 -0.22680876,-0.2006385 -0.34016928,-0.4534696 -0.34016928,-0.7587891 0,-0.3751067 0.13839623,-0.6629683 0.41536458,-0.8636067 0.27914922,-0.2006385 0.68144562,-0.3021812 1.20703125,-0.304362 h 0.43522135 v -0.2027995 c 0,-0.163564 -0.0425509,-0.2944397 -0.12760416,-0.3925781 -0.0828724,-0.098138 -0.21482249,-0.1471354 -0.39583334,-0.1471354 -0.15920228,0 -0.28470623,0.038253 -0.37630206,0.1145833 -0.089415,0.07633 -0.1341146,0.1807701 -0.1341146,0.3138021 h -0.9453125 c 0,-0.2050002 0.0632892,-0.3945422 0.18977865,-0.5690104 0.1264895,-0.1744683 0.3052879,-0.3107158 0.53645833,-0.4088542 0.23117045,-0.1003192 0.49077322,-0.1507161 0.77864583,-0.150716 z m 10.91601563,0 c 0.48414942,0 0.86495872,0.1526883 1.14192708,0.4580078 0.27914922,0.3053194 0.41861979,0.7383488 0.41861979,1.2988281 v 0.3860677 H 33.9469401 c 0.030532,0.2311704 0.12207986,0.416415 0.27473958,0.5559896 0.15484058,0.1395746 0.35007983,0.2093099 0.58561198,0.2093099 0.36420249,0 0.64884094,-0.1319501 0.85384115,-0.3958334 l 0.46451822,0.5201823 c -0.14175545,0.2006385 -0.33377163,0.3576243 -0.57584635,0.4710287 -0.2420747,0.1112235 -0.51027232,0.1669922 -0.8046875,0.1669922 -0.51904307,0 -0.94207775,-0.1591345 -1.26920572,-0.4775391 -0.32494715,-0.3184046 -0.4873047,-0.7428391 -0.4873047,-1.2727865 v -0.091471 c 0,-0.3554791 0.0686609,-0.6726737 0.2060547,-0.9518229 0.13739374,-0.2813301 0.33123312,-0.4973076 0.58203124,-0.6477865 0.252979,-0.1526597 0.5408405,-0.2291666 0.86360678,-0.2291669 z m 5.80664062,0 c 0.43617065,0 0.78194955,0.1101374 1.03710938,0.3304036 0.25734069,0.2180853 0.3860677,0.5256108 0.3860677,0.922526 v 1.5341797 c 0.002181,0.3358514 0.0490292,0.5900824 0.140625,0.7623698 v 0.055664 h -0.95540365 c -0.043617,-0.085053 -0.0750989,-0.1908933 -0.0947265,-0.3173828 -0.2289896,0.2551598 -0.52684583,0.3828125 -0.89322917,0.3828125 -0.34675566,0 -0.63461718,-0.1004683 -0.86360678,-0.3011068 -0.22680872,-0.2006385 -0.34016927,-0.4534696 -0.34016927,-0.7587891 0,-0.3751067 0.13872175,-0.6629683 0.4156901,-0.8636067 0.27914924,-0.2006385 0.68144562,-0.3021812 1.20703127,-0.304362 h 0.43489583 v -0.2027995 c 0,-0.163564 -0.0425509,-0.2944397 -0.12760416,-0.3925781 -0.0828725,-0.098138 -0.21482254,-0.1471354 -0.39583334,-0.1471354 -0.15920231,0 -0.28438073,0.038253 -0.37597656,0.1145833 -0.089415,0.07633 -0.13411459,0.1807701 -0.13411459,0.3138021 H 38.9420573 c 0,-0.2050002 0.0632891,-0.3945422 0.18977863,-0.5690104 0.1264895,-0.1744683 0.3052879,-0.3107158 0.53645833,-0.4088542 0.23117045,-0.1003192 0.49077322,-0.1507161 0.77864584,-0.150716 z m 7.05957032,0 c 0.44925576,0 0.80792691,0.10584 1.07617188,0.3173828 0.27042578,0.2115427 0.40559895,0.486512 0.40559895,0.8245442 h -0.9453125 c 0,-0.1352129 -0.0436252,-0.2464247 -0.13085938,-0.3336588 -0.0872341,-0.089415 -0.22348164,-0.1341146 -0.40885417,-0.1341146 -0.15920228,0 -0.28255753,0.035779 -0.36979167,0.1077474 -0.0872341,0.071968 -0.13085936,0.1635161 -0.13085936,0.2747396 0,0.1046809 0.048997,0.1897827 0.14713541,0.2552083 0.10031925,0.063245 0.2683741,0.1190134 0.50390625,0.1669922 0.23553215,0.045798 0.43399447,0.098018 0.5953776,0.156901 0.4994154,0.1831917 0.74902344,0.5003863 0.74902344,0.951823 0,0.3227662 -0.13839624,0.5845177 -0.41536457,0.7851562 -0.27696837,0.1984577 -0.63456518,0.2978516 -1.07291667,0.2978516 -0.29659605,0 -0.56049623,-0.052546 -0.79166666,-0.1572266 -0.2289896,-0.1068618 -0.40886235,-0.2517042 -0.53971355,-0.4348958 -0.1308512,-0.1853726 -0.19628907,-0.3849092 -0.19628907,-0.5986328 h 0.89615885 c 0.008723,0.1679257 0.0709382,0.2966527 0.18652345,0.3860677 0.11558522,0.089415 0.2704223,0.1341146 0.46451822,0.1341146 0.18101083,0 0.31725833,-0.033956 0.40885416,-0.1015625 0.0937767,-0.069787 0.140625,-0.1602609 0.140625,-0.2714844 0,-0.1155852 -0.0575919,-0.2060588 -0.17317706,-0.2714844 -0.11340439,-0.067606 -0.29682572,-0.1276725 -0.5498047,-0.180013 -0.84180935,-0.1766491 -1.26269532,-0.5342459 -1.2626953,-1.0729167 0,-0.3140428 0.12980138,-0.5757943 0.3893229,-0.7851562 0.2617024,-0.2115428 0.60318388,-0.3173828 1.02408855,-0.3173828 z m -4.85481772,0.06543 h 0.94889323 v 3.5397136 H 42.6516927 Z M 6.739583334,46.168295 c -0.187553379,0 -0.340241737,0.063289 -0.458007814,0.1897786 -0.11558522,0.1264895 -0.18961793,0.3074366 -0.222330728,0.5429687 h 1.315104167 v -0.075195 C 7.369987259,46.6164854 7.313144229,46.4552022 7.204101564,46.3417979 7.0950589,46.2262126 6.940221832,46.1682953 6.739583334,46.168295 Z m 9.516276046,0 c -0.23117045,0 -0.40996885,0.090473 -0.53645834,0.2714843 -0.12648948,0.17883 -0.18977864,0.4570223 -0.18977864,0.8343099 0,0.3358514 0.0632892,0.59298 0.18977864,0.7718099 0.12648949,0.1766491 0.3074366,0.264974 0.54296875,0.264974 0.22898959,0 0.40778798,-0.08725 0.53645835,-0.2617188 0.12867033,-0.1766491 0.19303385,-0.4577389 0.19303385,-0.84375 0,-0.3293088 -0.0643635,-0.5846142 -0.19303385,-0.765625 -0.12867037,-0.1810108 -0.30961747,-0.2714843 -0.54296876,-0.2714843 z m 18.38118488,0 c -0.18755336,0 -0.33991621,0.063289 -0.45768228,0.1897786 -0.11558523,0.1264895 -0.18994345,0.3074366 -0.22265625,0.5429687 h 1.31510417 v -0.075195 c -0.004362,-0.2093619 -0.0612047,-0.3706451 -0.1702474,-0.4840494 -0.10904267,-0.1155853 -0.26387974,-0.1735026 -0.46451824,-0.1735029 z m -3.82063801,0.00326 c -0.45579834,0 -0.68391927,0.3697403 -0.68391927,1.1090495 0,0.3314897 0.0579174,0.5853952 0.1735026,0.7620443 0.11558522,0.1766491 0.28364007,0.2649739 0.50390625,0.2649739 0.29223433,0 0.49821713,-0.1230297 0.61816407,-0.3694661 V 46.5413467 C 31.31029381,46.2949103 31.10645973,46.171555 30.81640625,46.171555 Z m -6.97102865,1.2265625 c -0.47324515,0 -0.72532743,0.1637574 -0.75585936,0.4908854 l -0.003255,0.055664 c 0,0.1177661 0.0414765,0.2146858 0.12434897,0.2910156 0.0828724,0.07633 0.19623295,0.1145834 0.34016926,0.1145834 0.1395746,0 0.26830162,-0.030733 0.38606772,-0.091797 0.11776605,-0.063245 0.20501655,-0.1469467 0.26171873,-0.2516276 v -0.608724 z m 16.72265625,0 c -0.47324515,0 -0.7250019,0.1637574 -0.75553385,0.4908854 l -0.003255,0.055664 c 0,0.1177661 0.041151,0.2146858 0.12402343,0.2910156 0.0828724,0.07633 0.19655847,0.1145834 0.34049479,0.1145834 0.13957461,0 0.26797613,-0.030733 0.38574218,-0.091797 0.1177661,-0.063245 0.20501657,-0.1469467 0.26171877,-0.2516276 v -0.608724 z"
     id="path911"
     style="fill:#241f21;stroke-width:0.4999999702;fill-opacity:1"
     inkscape:connector-curvature="0" />
</svg>
