<?xml version="1.0" encoding="UTF-8" standalone="no"?>
<svg
   xmlns:dc="http://purl.org/dc/elements/1.1/"
   xmlns:cc="http://creativecommons.org/ns#"
   xmlns:rdf="http://www.w3.org/1999/02/22-rdf-syntax-ns#"
   xmlns:svg="http://www.w3.org/2000/svg"
   xmlns="http://www.w3.org/2000/svg"
   xmlns:sodipodi="http://sodipodi.sourceforge.net/DTD/sodipodi-0.dtd"
   xmlns:inkscape="http://www.inkscape.org/namespaces/inkscape"
   height="40"
   viewBox="0 0 20 20"
   width="40"
   version="1.1"
   id="svg6"
   sodipodi:docname="profile.svg"
   inkscape:version="0.92.2 (5c3e80d, 2017-08-06)"
   style="fill:#000000">
  <metadata
     id="metadata12">
    <rdf:RDF>
      <cc:Work
         rdf:about="">
        <dc:format>image/svg+xml</dc:format>
        <dc:type
           rdf:resource="http://purl.org/dc/dcmitype/StillImage" />
        <dc:title></dc:title>
      </cc:Work>
    </rdf:RDF>
  </metadata>
  <defs
     id="defs10" />
  <sodipodi:namedview
     pagecolor="#ffffff"
     bordercolor="#666666"
     borderopacity="1"
     objecttolerance="10"
     gridtolerance="10"
     guidetolerance="10"
     inkscape:pageopacity="0"
     inkscape:pageshadow="2"
     inkscape:window-width="1920"
     inkscape:window-height="1017"
     id="namedview8"
     showgrid="false"
     inkscape:zoom="4.916666667"
     inkscape:cx="-56.33898306"
     inkscape:cy="24.00000016"
     inkscape:window-x="-8"
     inkscape:window-y="-8"
     inkscape:window-maximized="1"
     inkscape:current-layer="svg6" />
  <path
     inkscape:connector-curvature="0"
     style="fill:#cccccc"
     d="m 7,9.75 c -0.69,0 -1.25,0.56 -1.25,1.25 0,0.69 0.56,1.25 1.25,1.25 0.69,0 1.249999995,-0.56 1.249999995,-1.25 C 8.249999995,10.31 7.69,9.75 7,9.75 Z m 6,0 c -0.69,0 -1.25,0.56 -1.25,1.25 0,0.69 0.56,1.25 1.25,1.25 0.68999999,0 1.25,-0.56 1.25,-1.25 0,-0.69 -0.56000001,-1.25 -1.25,-1.25 z M 9.999999995,0 C 4.48,0 0,4.48 0,10 0,15.52 4.48,20 9.999999995,20 15.51999999,20 20,15.52 20,10 20,4.48 15.51999999,0 9.999999995,0 Z m 0,18 C 5.59,18 2,14.41 2,10 2,9.71 2.02,9.42 2.05,9.14 4.41,8.09 6.28,6.16 7.26,3.77 9.069999995,6.33 12.05,8 15.42,8 16.2,8 16.95,7.91 17.67,7.74 17.88,8.45 18,9.21 18,10 c 0,4.41 -3.59,8 -8.000000005,8 z"
     id="path2" />
</svg>
